<svg preserveAspectRatio="none" width="100%" height="100%" overflow="visible" style="display: block;" viewBox="0 0 18 16" fill="none" xmlns="http://www.w3.org/2000/svg">
<path id="Vector" fill-rule="evenodd" clip-rule="evenodd" d="M6.46672 1.25C7.42922 -0.416667 9.83589 -0.416667 10.7976 1.25L16.9267 11.8733C17.8884 13.54 16.6851 15.6233 14.7609 15.6233H2.50339C0.579221 15.6233 -0.623279 13.54 0.338388 11.8733L6.46589 1.25H6.46672ZM8.63255 5.6225C8.79831 5.6225 8.95729 5.68835 9.0745 5.80556C9.19171 5.92277 9.25755 6.08174 9.25755 6.2475V9.3725C9.25755 9.53826 9.19171 9.69723 9.0745 9.81444C8.95729 9.93165 8.79831 9.9975 8.63255 9.9975C8.46679 9.9975 8.30782 9.93165 8.19061 9.81444C8.0734 9.69723 8.00755 9.53826 8.00755 9.3725V6.2475C8.00755 6.08174 8.0734 5.92277 8.19061 5.80556C8.30782 5.68835 8.46679 5.6225 8.63255 5.6225ZM8.63255 12.4975C8.79831 12.4975 8.95729 12.4317 9.0745 12.3144C9.19171 12.1972 9.25755 12.0383 9.25755 11.8725C9.25755 11.7067 9.19171 11.5478 9.0745 11.4306C8.95729 11.3133 8.79831 11.2475 8.63255 11.2475C8.46679 11.2475 8.30782 11.3133 8.19061 11.4306C8.0734 11.5478 8.00755 11.7067 8.00755 11.8725C8.00755 12.0383 8.0734 12.1972 8.19061 12.3144C8.30782 12.4317 8.46679 12.4975 8.63255 12.4975Z" fill="var(--fill-0, #0A0A0A)"/>
</svg>
