<svg preserveAspectRatio="none" width="100%" height="100%" overflow="visible" style="display: block;" viewBox="0 0 21 16" fill="none" xmlns="http://www.w3.org/2000/svg">
<g id="Group">
<path id="Vector" d="M1.14216 0C0.721078 0.489047 0.338812 1.01231 0 1.5652H20.4774C20.1386 1.01231 19.7564 0.489 19.3353 0H1.14216Z" fill="var(--fill-0, #D80027)"/>
<path id="Vector_2" d="M1.14216 15.6522H19.3353C19.7564 15.1632 20.1387 14.6399 20.4775 14.087H4.67896e-05C0.338812 14.6399 0.721078 15.1632 1.14216 15.6522V15.6522Z" fill="var(--fill-0, #D80027)"/>
<path id="Vector_3" d="M8.70314 5.6317L9.6877 6.9885L11.2822 6.47147L10.2961 7.82709L11.2806 9.18384L9.68662 8.66484L8.70052 10.0205L8.7015 8.34417L7.10752 7.82517L8.70211 7.30814L8.70314 5.6317Z" fill="var(--fill-0, #D80027)"/>
<path id="Vector_4" d="M6.01603 11.2174C4.14309 11.2174 2.62472 9.69905 2.62472 7.82611C2.62472 5.95317 4.14309 4.4348 6.01603 4.4348C6.6 4.4348 7.14952 4.58245 7.62923 4.84242C6.87666 4.10644 5.84742 3.65217 4.71169 3.65217C2.40647 3.65217 0.537797 5.52089 0.537797 7.82606C0.537797 10.1312 2.40652 12 4.71169 12C5.84742 12 6.87666 11.5457 7.62923 10.8097C7.14952 11.0698 6.60005 11.2174 6.01603 11.2174Z" fill="var(--fill-0, #D80027)"/>
</g>
</svg>
