<svg preserveAspectRatio="none" width="100%" height="100%" overflow="visible" style="display: block;" viewBox="0 0 9 8" fill="none" xmlns="http://www.w3.org/2000/svg">
<g id="Group">
<path id="Vector" d="M7.11623 4.77778C7.70662 3.13219 7.04334 1.34245 5.61989 0.451078C5.87592 0.484406 6.13224 0.544688 6.38517 0.635391C8.28375 1.31658 9.27066 3.40777 8.58947 5.3063C7.90828 7.20497 5.81709 8.19178 3.91852 7.51059C3.66553 7.41984 3.42933 7.30336 3.21056 7.16634C4.87603 7.38323 6.52584 6.42338 7.11623 4.77778V4.77778Z" fill="var(--fill-0, #F0F0F0)"/>
<path id="Vector_2" d="M3.84169 1.19209e-07L3.32864 0.662907L2.53978 0.379828L3.01162 1.07255L2.49867 1.73536L3.30328 1.5007L3.77522 2.19333L3.80053 1.35558L4.60519 1.12088L3.81633 0.837891L3.84169 1.19209e-07Z" fill="var(--fill-0, #F0F0F0)"/>
<path id="Vector_3" d="M5.22694 2.15995L4.71389 2.82281L3.92498 2.53973L4.39687 3.23245L3.88387 3.89527L4.68848 3.66052L5.16042 4.35328L5.18583 3.51548L5.99044 3.28073L5.20153 2.9977L5.22694 2.15995Z" fill="var(--fill-0, #F0F0F0)"/>
<path id="Vector_4" d="M1.39931 0.786657L0.886266 1.44947L0.0974069 1.16648L0.569298 1.85916L0.0562975 2.52202L0.86086 2.28731L1.3328 2.97998L1.3582 2.14223L2.16281 1.90753L1.37395 1.62445L1.39931 0.786657Z" fill="var(--fill-0, #F0F0F0)"/>
<path id="Vector_5" d="M1.34306 3.26081L0.830063 3.92367L0.0411563 3.64064L0.513094 4.33336L4.76837e-07 4.99617L0.804703 4.76152L1.27659 5.45414L1.30195 4.61639L2.10661 4.38169L1.31766 4.09861L1.34306 3.26081Z" fill="var(--fill-0, #F0F0F0)"/>
<path id="Vector_6" d="M3.69741 4.10555L3.18436 4.76836L2.3955 4.48533L2.86744 5.17805L2.35434 5.84081L3.15905 5.60616L3.63094 6.29888L3.6563 5.46103L4.46095 5.22638L3.672 4.94334L3.69741 4.10555Z" fill="var(--fill-0, #F0F0F0)"/>
</g>
</svg>
