<svg preserveAspectRatio="none" width="100%" height="100%" overflow="visible" style="display: block;" viewBox="0 0 10 15" fill="none" xmlns="http://www.w3.org/2000/svg">
<g id="Group">
<path id="Vector" d="M7.17328 7.30434L5.70778 6.615L6.4882 5.19567L4.8968 5.50012L4.69514 3.89245L3.58664 5.07483L2.47819 3.89245L2.27648 5.50012L0.685125 5.19563L1.46555 6.615L2.98023e-08 7.30434L1.46555 7.99369L0.685125 9.41301L2.27663 9.10861L2.47814 10.7162L3.58664 9.53386L4.69514 10.7162L4.8968 9.10861L6.48811 9.41306L5.70773 7.99373L7.17328 7.30434Z" fill="var(--fill-0, #FFDA44)"/>
<path id="Vector_2" d="M2.15681 1.19209e-07L2.6445 0.681703L3.44348 0.428625L2.94577 1.10306L3.43345 1.78477L2.63817 1.51988L2.1405 2.19427L2.14673 1.35614L1.3515 1.0912L2.15063 0.838125L2.15681 1.19209e-07Z" fill="var(--fill-0, #FFDA44)"/>
<path id="Vector_3" d="M2.15681 12.4144L2.6445 13.0961L3.44348 12.843L2.94577 13.5175L3.43345 14.1992L2.63817 13.9343L2.1405 14.6087L2.14673 13.7706L1.3515 13.5056L2.15063 13.2525L2.15681 12.4144Z" fill="var(--fill-0, #FFDA44)"/>
<path id="Vector_4" d="M9.11273 6.20723L8.62509 6.88894L7.82606 6.63577L8.32378 7.31025L7.83609 7.992L8.63138 7.72706L9.12909 8.40145L9.12281 7.56337L9.91805 7.29844L9.11897 7.04536L9.11273 6.20723Z" fill="var(--fill-0, #FFDA44)"/>
</g>
</svg>
