<svg preserveAspectRatio="none" width="100%" height="100%" overflow="visible" style="display: block;" viewBox="0 0 1 3" fill="none" xmlns="http://www.w3.org/2000/svg">
<g id="Group">
<path id="Vector" d="M0.0677815 1.58081C0.0672658 1.60397 0.0667497 1.62722 0.0660935 1.65037C0.066656 1.62712 0.067219 1.60397 0.0677815 1.58081Z" fill="var(--fill-0, #F0F0F0)"/>
<path id="Vector_2" d="M0.0562501 1.90875C0.055172 1.93167 0.0535779 1.9545 0.0523591 1.97737C0.0535779 1.95454 0.0550783 1.93167 0.0562501 1.90875Z" fill="var(--fill-0, #F0F0F0)"/>
<path id="Vector_3" d="M0.0400782 2.17031C0.0376876 2.20401 0.035344 2.23771 0.0326253 2.27132C0.035344 2.23771 0.0376407 2.20401 0.0400782 2.17031Z" fill="var(--fill-0, #F0F0F0)"/>
<path id="Vector_4" d="M0 0C0.00440624 0.0401249 0.00881296 0.080203 0.0127973 0.120422C0.00881296 0.0801561 0.00435937 0.0401249 0 0Z" fill="var(--fill-0, #F0F0F0)"/>
<path id="Vector_5" d="M0.0523119 0.638389C0.0535776 0.661264 0.0551248 0.684092 0.0562029 0.707014C0.0550779 0.684092 0.0535776 0.661217 0.0523119 0.638389Z" fill="var(--fill-0, #F0F0F0)"/>
<path id="Vector_6" d="M0.0660477 0.965482C0.0667039 0.988638 0.0671717 1.01189 0.0677342 1.03504C0.0672186 1.01179 0.066657 0.988638 0.0660477 0.965482Z" fill="var(--fill-0, #F0F0F0)"/>
<path id="Vector_7" d="M0.0326253 0.344437C0.035344 0.378046 0.0376876 0.411749 0.0400782 0.445452C0.0376407 0.411749 0.035344 0.378046 0.0326253 0.344437Z" fill="var(--fill-0, #F0F0F0)"/>
</g>
</svg>
