<svg preserveAspectRatio="none" width="100%" height="100%" overflow="visible" style="display: block;" viewBox="0 0 21 19" fill="none" xmlns="http://www.w3.org/2000/svg">
<g id="Group">
<path id="Vector" d="M14.7571 6.78263H11.7448L10.2387 4.17394L8.73267 6.78263H5.7203L7.22658 9.39131L5.7203 12H8.73267L10.2387 14.6087L11.7448 12H14.7571L13.2509 9.39131L14.7571 6.78263ZM12.0891 9.39131L11.164 10.9939H9.31359L8.38833 9.39131L9.31355 7.78875H11.1639L12.0891 9.39131ZM10.2387 6.18614L10.5831 6.78258H9.89447L10.2387 6.18614ZM7.46306 7.78875H8.15175L7.80741 8.38519L7.46306 7.78875ZM7.46306 10.9939L7.80745 10.3974L8.1518 10.9939H7.46306ZM10.2387 12.5964L9.89442 12H10.5831L10.2387 12.5964ZM13.0144 10.9939H12.3257L12.6701 10.3974L13.0144 10.9939ZM12.3257 7.78875H13.0144L12.67 8.38519L12.3257 7.78875Z" fill="var(--fill-0, #0052B4)"/>
<path id="Vector_2" d="M17.7086 0H2.76886C1.67372 0.87225 0.734531 1.93172 0 3.13045H20.4774C19.7429 1.93177 18.8037 0.87225 17.7086 0V0Z" fill="var(--fill-0, #0052B4)"/>
<path id="Vector_3" d="M2.76886 18.7826H17.7085C18.8037 17.9104 19.7429 16.8509 20.4774 15.6522H5.96046e-08C0.734578 16.8509 1.67377 17.9104 2.76886 18.7826V18.7826Z" fill="var(--fill-0, #0052B4)"/>
</g>
</svg>
