<svg preserveAspectRatio="none" width="100%" height="100%" overflow="visible" style="display: block;" viewBox="0 0 9 10" fill="none" xmlns="http://www.w3.org/2000/svg">
<g id="Group">
<path id="Vector" d="M4.46578 4.76837e-07L4.66003 0.597844H5.28867L4.78012 0.96736L4.97437 1.5652L4.46578 1.19569L3.95719 1.5652L4.15148 0.96736L3.64294 0.597844H4.27158L4.46578 4.76837e-07Z" fill="var(--fill-0, #FFDA44)"/>
<path id="Vector_2" d="M4.46578 7.82606L4.66003 8.42395H5.28867L4.78012 8.79342L4.97437 9.39127L4.46578 9.0218L3.95719 9.39127L4.15148 8.79342L3.64294 8.42395H4.27158L4.46578 7.82606Z" fill="var(--fill-0, #FFDA44)"/>
<path id="Vector_3" d="M0.822844 5.17936L1.01709 5.77716H1.64573L1.13719 6.14663L1.33144 6.74456L0.822844 6.37505L0.31425 6.74456L0.508594 6.14663L0 5.77716H0.628594L0.822844 5.17936Z" fill="var(--fill-0, #FFDA44)"/>
<path id="Vector_4" d="M2.21433 0.782578L2.40858 1.38047H3.03717L2.52867 1.74994L2.72292 2.34783L2.21433 1.97831L1.70573 2.34783L1.90008 1.74994L1.39144 1.38047H2.02008L2.21433 0.782578Z" fill="var(--fill-0, #FFDA44)"/>
<path id="Vector_5" d="M0 3.24464L0.6285 3.24469L0.822797 2.6467L1.01709 3.24464L1.64573 3.24459L1.13714 3.61411L1.33144 4.212L0.822797 3.84248L0.31425 4.21186L0.5085 3.61406L0 3.24464Z" fill="var(--fill-0, #FFDA44)"/>
<path id="Vector_6" d="M1.70578 8.49445L1.90003 7.8967L1.39139 7.52723H2.02003L2.21433 6.92934L2.40863 7.52719H3.03722L2.52863 7.89666L2.72287 8.49459L2.21428 8.12503L1.70578 8.49445Z" fill="var(--fill-0, #FFDA44)"/>
<path id="Vector_7" d="M8.10736 5.17936L7.91316 5.77716H7.28452L7.79302 6.14663L7.59877 6.74456L8.10736 6.37505L8.61595 6.74456L8.42166 6.14663L8.93025 5.77716H8.30161L8.10736 5.17936Z" fill="var(--fill-0, #FFDA44)"/>
<path id="Vector_8" d="M6.71587 0.782578L6.52167 1.38047H5.89303L6.40153 1.74994L6.20728 2.34783L6.71587 1.97831L7.22447 2.34783L7.03017 1.74994L7.53877 1.38047H6.91012L6.71587 0.782578Z" fill="var(--fill-0, #FFDA44)"/>
<path id="Vector_9" d="M8.93025 3.24464L8.3017 3.24469L8.10741 2.6467L7.91316 3.24464L7.28452 3.24459L7.79306 3.61411L7.59877 4.212L8.10741 3.84248L8.61595 4.21186L8.4217 3.61406L8.93025 3.24464Z" fill="var(--fill-0, #FFDA44)"/>
<path id="Vector_10" d="M7.22442 8.49445L7.03022 7.8967L7.53881 7.52723H6.91017L6.71588 6.92934L6.52163 7.52719H5.89298L6.40158 7.89666L6.20733 8.49459L6.71592 8.12503L7.22442 8.49445Z" fill="var(--fill-0, #FFDA44)"/>
</g>
</svg>
