<svg preserveAspectRatio="none" width="100%" height="100%" overflow="visible" style="display: block;" viewBox="0 0 10 13" fill="none" xmlns="http://www.w3.org/2000/svg">
<g id="Group">
<path id="Vector" d="M2.08706 3.13041H7.30444V1.04348L6.26095 1.5652L4.69575 0L3.13055 1.5652L2.08706 1.04348V3.13041Z" fill="var(--fill-0, #FFDA44)"/>
<path id="Vector_2" d="M9.39141 6.26086H6.7837C6.88598 6.08395 6.94542 5.87925 6.94542 5.66025C6.94542 4.99523 6.40631 4.45622 5.74139 4.45622C5.28197 4.45622 4.88297 4.71366 4.67995 5.09194C4.47694 4.71361 4.07794 4.45622 3.61852 4.45622C2.95359 4.45622 2.41448 4.99523 2.41448 5.66025C2.41448 5.8793 2.47402 6.084 2.5762 6.26086H0C0 7.05881 0.695016 7.70564 1.49292 7.70564H1.44483C1.44483 8.36016 1.88016 8.91281 2.47702 9.09033L1.30434 10.2631L2.41111 11.3699L3.98109 9.79987C4.04259 9.82242 4.1062 9.84042 4.17197 9.8528L3.22331 11.9948C3.67791 12.1796 4.17473 12.2822 4.69575 12.2822C5.21672 12.2822 5.71355 12.1796 6.16819 11.9948L5.21953 9.8528C5.28525 9.84047 5.34886 9.82242 5.41031 9.79987L6.9803 11.3699L8.08702 10.2631L6.9143 9.09038C7.51111 8.91277 7.94648 8.3602 7.94648 7.70569H7.89834C8.69634 7.70564 9.39141 7.05881 9.39141 6.26086V6.26086Z" fill="var(--fill-0, #FFDA44)"/>
</g>
</svg>
