<svg preserveAspectRatio="none" width="100%" height="100%" overflow="visible" style="display: block;" viewBox="0 0 24 24" fill="none" xmlns="http://www.w3.org/2000/svg">
<g id="Group">
<path id="Vector" d="M12 24C18.6274 24 24 18.6274 24 12C24 5.37258 18.6274 0 12 0C5.37258 0 0 5.37258 0 12C0 18.6274 5.37258 24 12 24Z" fill="var(--fill-0, #F0F0F0)"/>
<path id="Vector_2" d="M2.74294 4.36369H21.2571C20.5733 3.53564 19.7801 2.80134 18.9003 2.18189H5.09967C4.21988 2.80125 3.4268 3.53559 2.74294 4.36369V4.36369Z" fill="var(--fill-0, #F0F0F0)"/>
<path id="Vector_3" d="M0 12C0 12.3678 0.0174844 12.7315 0.049875 13.0909H23.9501C23.9825 12.7315 24 12.3678 24 12C24 11.6322 23.9825 11.2685 23.9501 10.9091H0.049875C0.0174844 11.2685 0 11.6322 0 12H0Z" fill="var(--fill-0, #F0F0F0)"/>
<path id="Vector_4" d="M1.30856 17.4545H22.6914C23.0448 16.7633 23.333 16.0334 23.5481 15.2728H0.451875C0.666984 16.0334 0.955266 16.7633 1.30856 17.4545V17.4545Z" fill="var(--fill-0, #F0F0F0)"/>
<path id="Vector_5" d="M5.09967 21.8182H18.9003C19.7801 21.1987 20.5732 20.4645 21.257 19.6364H2.74294C3.4268 20.4644 4.21988 21.1987 5.09967 21.8182V21.8182Z" fill="var(--fill-0, #F0F0F0)"/>
<path id="Vector_6" d="M0.451828 8.72728H23.5482C23.333 7.96659 23.0448 7.23666 22.6914 6.54548H1.30856C0.955266 7.23666 0.666984 7.96659 0.451828 8.72728V8.72728Z" fill="var(--fill-0, #F0F0F0)"/>
</g>
</svg>
