<svg preserveAspectRatio="none" width="100%" height="100%" overflow="visible" style="display: block;" viewBox="0 0 14 17" fill="none" xmlns="http://www.w3.org/2000/svg">
<g id="Group">
<path id="Vector" d="M2.38419e-07 14.0869C1.92581 15.4035 4.25452 16.1739 6.76345 16.1739C9.27239 16.1739 11.601 15.4035 13.5269 14.0869H2.38419e-07Z" fill="var(--fill-0, #FFDA44)"/>
<path id="Vector_2" d="M6.76345 4.17389L9.71484 7.12528C10.4702 6.36994 10.9374 5.3265 10.9374 4.17389C10.9374 1.86867 9.06867 0 6.7635 0C4.45833 0 2.58956 1.86867 2.58956 4.17389C2.58956 5.32645 3.05672 6.36994 3.81211 7.12528L6.76345 4.17389Z" fill="var(--fill-0, #FFDA44)"/>
<path id="Vector_3" d="M8.58956 10.1739C8.58956 11.1824 7.77192 11.4782 6.76345 11.4782C5.75498 11.4782 4.93734 11.1824 4.93734 10.1739C4.93734 9.16537 5.75498 8.34778 6.76345 8.34778C7.77192 8.34778 8.58956 9.16537 8.58956 10.1739Z" fill="var(--fill-0, #FFDA44)"/>
</g>
</svg>
