<svg preserveAspectRatio="none" width="100%" height="100%" overflow="visible" style="display: block;" viewBox="0 0 24 24" fill="none" xmlns="http://www.w3.org/2000/svg">
<g id="Group">
<path id="Vector" d="M13.687 23.7241C15.6387 23.4263 17.4352 22.6578 18.9584 21.5389L11.862 11.862L13.687 23.7241Z" fill="var(--fill-0, #D80027)"/>
<path id="Vector_2" d="M10.0371 0C8.08542 0.29775 6.28889 1.06631 4.76564 2.18517L11.862 11.862L10.0371 0Z" fill="var(--fill-0, #D80027)"/>
<path id="Vector_3" d="M4.76564 21.5389C6.2888 22.6577 8.08533 23.4263 10.037 23.7241L11.862 11.862L4.76564 21.5389Z" fill="var(--fill-0, #D80027)"/>
<path id="Vector_4" d="M2.18517 4.76564C1.06627 6.28889 0.297797 8.08538 0 10.0371L11.862 11.862L2.18517 4.76564Z" fill="var(--fill-0, #D80027)"/>
<path id="Vector_5" d="M0 13.687C0.29775 15.6387 1.06631 17.4352 2.18522 18.9584L11.862 11.862L0 13.687Z" fill="var(--fill-0, #D80027)"/>
<path id="Vector_6" d="M23.7241 10.0371C23.4263 8.08542 22.6578 6.28889 21.5389 4.76569L11.862 11.862L23.7241 10.0371Z" fill="var(--fill-0, #D80027)"/>
<path id="Vector_7" d="M18.9584 2.18512C17.4352 1.06627 15.6387 0.29775 13.687 0L11.862 11.862L18.9584 2.18512Z" fill="var(--fill-0, #D80027)"/>
<path id="Vector_8" d="M21.539 18.9584C22.6578 17.4352 23.4263 15.6386 23.7242 13.687L11.862 11.862L21.539 18.9584Z" fill="var(--fill-0, #D80027)"/>
<path id="Vector_9" d="M11.862 16.0359C14.1672 16.0359 16.0359 14.1672 16.0359 11.862C16.0359 9.55687 14.1672 7.68816 11.862 7.68816C9.55687 7.68816 7.68816 9.55687 7.68816 11.862C7.68816 14.1672 9.55687 16.0359 11.862 16.0359Z" fill="var(--fill-0, #D80027)"/>
</g>
</svg>
