<svg preserveAspectRatio="none" width="100%" height="100%" overflow="visible" style="display: block;" viewBox="0 0 22 24" fill="none" xmlns="http://www.w3.org/2000/svg">
<g id="Group">
<path id="Vector" d="M10.8093 24C15.5668 24 19.6776 21.2313 21.6186 17.2174H0C1.941 21.2313 6.05175 24 10.8093 24Z" fill="var(--fill-0, #338AF3)"/>
<path id="Vector_2" d="M10.8093 0C6.05175 0 1.941 2.76867 0 6.78262H21.6185C19.6776 2.76867 15.5668 0 10.8093 0V0Z" fill="var(--fill-0, #338AF3)"/>
<path id="Vector_3" d="M6.1942 7.82611L6.5827 9.02184H7.83994L6.82284 9.76078L7.21139 10.9565L6.1942 10.2175L5.17702 10.9565L5.56556 9.76078L4.54842 9.02184H5.80566L6.1942 7.82611Z" fill="var(--fill-0, #338AF3)"/>
<path id="Vector_4" d="M6.1942 13.0435L6.5827 14.2393H7.83994L6.82284 14.9782L7.21139 16.1739L6.1942 15.4349L5.17702 16.1739L5.56556 14.9782L4.54842 14.2393H5.80566L6.1942 13.0435Z" fill="var(--fill-0, #338AF3)"/>
<path id="Vector_5" d="M15.4244 7.82611L15.8129 9.02184H17.0701L16.053 9.76078L16.4415 10.9565L15.4244 10.2175L14.4072 10.9565L14.7957 9.76078L13.7786 9.02184H15.0359L15.4244 7.82611Z" fill="var(--fill-0, #338AF3)"/>
<path id="Vector_6" d="M15.4244 13.0435L15.8129 14.2393H17.0701L16.053 14.9782L16.4415 16.1739L15.4244 15.4349L14.4072 16.1739L14.7957 14.9782L13.7786 14.2393H15.0359L15.4244 13.0435Z" fill="var(--fill-0, #338AF3)"/>
<path id="Vector_7" d="M10.8093 10.4348L11.1978 11.6306H12.4551L11.4379 12.3695L11.8265 13.5652L10.8093 12.8262L9.79209 13.5652L10.1806 12.3695L9.1635 11.6306H10.4207L10.8093 10.4348Z" fill="var(--fill-0, #338AF3)"/>
</g>
</svg>
