<svg preserveAspectRatio="none" width="100%" height="100%" overflow="visible" style="display: block;" viewBox="0 0 24 24" fill="none" xmlns="http://www.w3.org/2000/svg">
<g id="Group">
<path id="Vector" d="M23.8984 10.4348H13.5653H13.5652V0.101578C13.0529 0.034875 12.5305 0 12 0C11.4695 0 10.9471 0.034875 10.4348 0.101578V10.4347V10.4348H0.101578C0.034875 10.9471 0 11.4695 0 12C0 12.5306 0.034875 13.0529 0.101578 13.5652H10.4347H10.4348V23.8984C10.9471 23.9651 11.4695 24 12 24C12.5305 24 13.0529 23.9652 13.5652 23.8984V13.5653V13.5652H23.8984C23.9651 13.0529 24 12.5306 24 12C24 11.4695 23.9651 10.9471 23.8984 10.4348V10.4348Z" fill="var(--fill-0, #D80027)"/>
<path id="Vector_2" d="M7.30434 5.73914V4.17389H5.73914V5.73914H4.17389V7.30434H5.73914V8.86955H7.30434V7.30434H8.86955V5.73914H7.30434Z" fill="var(--fill-0, #D80027)"/>
<path id="Vector_3" d="M18.2609 5.73914V4.17389H16.6957V5.73914H15.1305V7.30434H16.6957V8.86955H18.2609V7.30434H19.8261V5.73914H18.2609Z" fill="var(--fill-0, #D80027)"/>
<path id="Vector_4" d="M7.30434 16.6957V15.1305H5.73914V16.6957H4.17389V18.2609H5.73914V19.8261H7.30434V18.2609H8.86955V16.6957H7.30434Z" fill="var(--fill-0, #D80027)"/>
<path id="Vector_5" d="M18.2609 16.6957V15.1305H16.6957V16.6957H15.1305V18.2609H16.6957V19.8261H18.2609V18.2609H19.8261V16.6957H18.2609Z" fill="var(--fill-0, #D80027)"/>
</g>
</svg>
