<svg preserveAspectRatio="none" width="100%" height="100%" overflow="visible" style="display: block;" viewBox="0 0 14 14" fill="none" xmlns="http://www.w3.org/2000/svg">
<g id="Group">
<path id="Vector" d="M6.78258 0.622125C4.47731 0.622125 2.60869 2.49084 2.60869 4.79602C2.60869 7.10119 4.47736 8.96991 6.78258 8.96991C9.0877 8.96991 10.9565 7.10119 10.9565 4.79602C10.9565 2.49084 9.08766 0.622125 6.78258 0.622125ZM5.73909 4.79602C5.73909 4.21973 6.20625 3.75253 6.78258 3.75253C7.35886 3.75253 7.82606 4.21973 7.82606 4.79602C7.82606 5.37234 7.35886 5.8395 6.78258 5.8395C6.20625 5.8395 5.73909 5.37234 5.73909 4.79602V4.79602ZM7.86445 3.01106C7.7025 2.91267 7.52597 2.83627 7.33903 2.78466V1.71591C7.8097 1.80038 8.24367 1.9897 8.61614 2.25942L7.86445 3.01106ZM6.29559 2.7668C6.0998 2.81363 5.91483 2.88802 5.74486 2.98566L4.9897 2.2305C5.37145 1.96322 5.81527 1.77858 6.29559 1.70344V2.7668ZM5.74481 6.60638C5.91478 6.70397 6.09975 6.77841 6.29555 6.82519V7.8885C5.81517 7.81345 5.37145 7.62872 4.9897 7.36144L5.74481 6.60638ZM7.33908 6.80737C7.52597 6.75577 7.70259 6.67941 7.86445 6.58102L8.61609 7.33266C8.24362 7.60233 7.8097 7.7917 7.33903 7.87617V6.80742H7.33908V6.80737ZM8.59289 5.83383C8.68481 5.67384 8.75667 5.50078 8.80378 5.31778H9.86888C9.7905 5.78475 9.60891 6.21642 9.34809 6.58889L8.59289 5.83383ZM8.80378 4.2743C8.75667 4.09125 8.68481 3.91833 8.59289 3.7583L9.34805 3.00314C9.60886 3.37566 9.7905 3.80728 9.86883 4.27425H8.80373V4.2743H8.80378ZM4.24594 2.9625L4.99758 3.71414C4.89309 3.88617 4.8128 4.07442 4.76133 4.2743H3.69623C3.77747 3.79027 3.96961 3.34411 4.24594 2.9625ZM3.69623 5.31773H4.76133C4.81275 5.51761 4.89305 5.70586 4.99758 5.87789L4.24594 6.62953C3.96961 6.24792 3.77747 5.80181 3.69623 5.31773Z" fill="var(--fill-0, #F0F0F0)"/>
<path id="Vector_2" d="M13.5652 4.79602C13.5652 2.9407 12.8199 1.25972 11.6129 0.0351562L10.5061 1.14192C11.43 2.08317 12 3.37298 12 4.79602C12 7.67752 9.66403 10.0134 6.78258 10.0134C3.90103 10.0134 1.5652 7.67752 1.5652 4.79602C1.5652 3.35522 2.14912 2.05088 3.09333 1.10677L1.98656 0C0.759141 1.22742 0 2.92308 0 4.79602C0 7.89984 2.08486 10.5167 4.93059 11.3227C4.61859 11.9153 4.66613 12.6615 5.11181 13.2177C5.69719 12.7486 6.30323 12.2629 6.81736 11.8509C7.33148 12.2629 7.93758 12.7486 8.52291 13.2177C8.973 12.656 9.0173 11.9003 8.69494 11.3048C11.5095 10.4791 13.5652 7.87781 13.5652 4.79602V4.79602Z" fill="var(--fill-0, #F0F0F0)"/>
</g>
</svg>
