<svg preserveAspectRatio="none" width="100%" height="100%" overflow="visible" style="display: block;" viewBox="0 0 6 21" fill="none" xmlns="http://www.w3.org/2000/svg">
<g id="Group">
<path id="Vector" d="M3.91303 9.46055L2.60869 7.09416L3.91303 4.76489L5.21737 7.09416L3.91303 9.46055Z" fill="var(--fill-0, #A2001D)"/>
<path id="Vector_2" d="M1.30434 9.46055L2.98023e-08 7.09416L1.30434 4.76489L2.60869 7.09416L1.30434 9.46055Z" fill="var(--fill-0, #A2001D)"/>
<path id="Vector_3" d="M3.91303 15.8954L2.60869 13.529L3.91303 11.1997L5.21737 13.529L3.91303 15.8954Z" fill="var(--fill-0, #A2001D)"/>
<path id="Vector_4" d="M1.30434 15.8954L2.98023e-08 13.529L1.30434 11.1997L2.60869 13.529L1.30434 15.8954Z" fill="var(--fill-0, #A2001D)"/>
<path id="Vector_5" d="M5.21738 0.659438L4.84809 0C4.18575 0.392437 3.56452 0.846797 2.99213 1.35511L3.91303 3.02578L5.21738 0.659438Z" fill="var(--fill-0, #A2001D)"/>
<path id="Vector_6" d="M3.91303 17.6345L2.98238 19.2965C3.55425 19.8054 4.17506 20.2605 4.83713 20.6537L5.21742 19.9638L3.91303 17.6345Z" fill="var(--fill-0, #A2001D)"/>
</g>
</svg>
