<svg preserveAspectRatio="none" width="100%" height="100%" overflow="visible" style="display: block;" viewBox="0 0 24 24" fill="none" xmlns="http://www.w3.org/2000/svg">
<path id="Vector" d="M23.3765 11.9543L23.7965 10.3891C23.7267 9.85566 23.6221 9.33309 23.4849 8.82394H10.8548V0C10.3223 0.0458437 9.79983 0.126891 9.28955 0.240047L7.20258 1.51955L6.15909 1.41422C5.60995 1.71384 5.08678 2.05509 4.59389 2.4338V8.82389H0.311625C0.174422 9.33305 0.0697969 9.85561 4.68716e-05 10.3891L0.419953 11.9543L0 13.5195C0.06975 14.053 0.174375 14.5756 0.311578 15.0848H4.59384V21.4748C5.08673 21.8536 5.60995 22.1948 6.15905 22.4944L7.72425 22.3891L9.28945 23.6686C9.79978 23.7817 10.3222 23.8627 10.8547 23.9086V15.0848H23.4848C23.622 14.5756 23.7266 14.0531 23.7963 13.5196L23.3765 11.9543Z" fill="var(--fill-0, #0052B4)"/>
</svg>
