<svg preserveAspectRatio="none" width="100%" height="100%" overflow="visible" style="display: block;" viewBox="0 0 5 6" fill="none" xmlns="http://www.w3.org/2000/svg">
<g id="Group">
<path id="Vector" d="M4.33913 3.31734C4.50525 2.91206 4.63444 2.3197 4.63444 2.02491C4.63444 1.55124 4.01691 1.16728 4.01691 1.16728C4.01691 1.16728 3.39937 1.55124 3.39937 2.02491C3.39937 2.31975 3.52861 2.91211 3.69464 3.31734L3.33816 4.12223C3.54769 4.20745 3.77672 4.2548 4.01695 4.2548C4.25719 4.2548 4.48617 4.20741 4.69575 4.12223L4.33913 3.31734Z" fill="var(--fill-0, #FF9811)"/>
<path id="Vector_2" d="M1.92548 0.711141C1.49161 0.769922 0.913969 0.954376 0.658688 1.10175C0.248485 1.33861 0.224672 2.06531 0.224672 2.06531C0.224672 2.06531 0.866015 2.40811 1.27617 2.1713C1.53155 2.02387 1.97986 1.61588 2.24766 1.26938L3.12309 1.17563C3.09211 0.951656 3.01842 0.72961 2.89847 0.521625C2.77828 0.313641 2.62289 0.138891 2.4443 0L1.92548 0.711141Z" fill="var(--fill-0, #FF9811)"/>
<path id="Vector_3" d="M0.875391 4.10461C1.14319 4.45092 1.59164 4.85888 1.84702 5.00634C2.25722 5.24316 2.89852 4.90045 2.89852 4.90045C2.89852 4.90045 2.87461 4.17366 2.4645 3.9368C2.20908 3.78938 1.63153 3.60511 1.19756 3.54642L0.678797 2.83519C0.50025 2.97403 0.344813 3.14888 0.224672 3.35667C0.104625 3.56475 0.0311255 3.7867 4.76837e-07 4.01081L0.875391 4.10461Z" fill="var(--fill-0, #FF9811)"/>
</g>
</svg>
