<svg preserveAspectRatio="none" width="100%" height="100%" overflow="visible" style="display: block;" viewBox="0 0 10 8" fill="none" xmlns="http://www.w3.org/2000/svg">
<g id="Group">
<path id="Vector" d="M1.56525 3.65212C1.56525 1.90378 2.79398 0.44325 4.4348 0.0848907C4.18261 0.0298594 3.921 0 3.65217 0C1.63509 0 0 1.63509 0 3.65217C0 5.66925 1.63509 7.30434 3.65217 7.30434C3.92091 7.30434 4.18256 7.27448 4.4348 7.21941C2.79398 6.86105 1.56525 5.40052 1.56525 3.65212V3.65212Z" fill="var(--fill-0, #F0F0F0)"/>
<path id="Vector_2" d="M6.26091 0.260859L6.51994 1.05797H7.35811L6.67997 1.55067L6.939 2.34778L6.26091 1.85517L5.58281 2.34778L5.84184 1.55067L5.16375 1.05797H6.00187L6.26091 0.260859Z" fill="var(--fill-0, #F0F0F0)"/>
<path id="Vector_3" d="M4.2277 1.82606L4.48669 2.62322H5.32486L4.64677 3.11588L4.9058 3.91298L4.2277 3.42037L3.54952 3.91298L3.80859 3.11588L3.13045 2.62322H3.96863L4.2277 1.82606Z" fill="var(--fill-0, #F0F0F0)"/>
<path id="Vector_4" d="M8.29416 1.82606L8.55324 2.62322H9.39136L8.71322 3.11588L8.9723 3.91298L8.29416 3.42037L7.61606 3.91298L7.87509 3.11588L7.197 2.62322H8.03513L8.29416 1.82606Z" fill="var(--fill-0, #F0F0F0)"/>
<path id="Vector_5" d="M7.51158 4.17389L7.77061 4.97105H8.60874L7.93064 5.4637L8.18967 6.26081L7.51158 5.7682L6.83348 6.26081L7.09252 5.4637L6.41442 4.97105H7.2525L7.51158 4.17389Z" fill="var(--fill-0, #F0F0F0)"/>
<path id="Vector_6" d="M5.01028 4.17389L5.26927 4.97105H6.10748L5.42934 5.4637L5.68842 6.26081L5.01028 5.7682L4.33214 6.26081L4.59117 5.4637L3.91308 4.97105H4.75125L5.01028 4.17389Z" fill="var(--fill-0, #F0F0F0)"/>
</g>
</svg>
