<svg preserveAspectRatio="none" width="100%" height="100%" overflow="visible" style="display: block;" viewBox="0 0 9 11" fill="none" xmlns="http://www.w3.org/2000/svg">
<g id="Group">
<path id="Vector" d="M7.38483 2.60869L7.64386 3.40584H8.48198L7.80394 3.89855L8.06297 4.69566L7.38483 4.20305L6.70678 4.69566L6.96577 3.89855L6.28762 3.40584H7.1258L7.38483 2.60869Z" fill="var(--fill-0, #F0F0F0)"/>
<path id="Vector_2" d="M3.98011 8.34783L4.30392 9.34434H5.35158L4.50394 9.96005L4.82775 10.9565L3.98011 10.3407L3.13252 10.9565L3.45628 9.96005L2.60869 9.34434H3.65634L3.98011 8.34783Z" fill="var(--fill-0, #F0F0F0)"/>
<path id="Vector_3" d="M3.98011 0L4.30392 0.996515H5.35158L4.50394 1.61222L4.82775 2.60869L3.98011 1.99284L3.13252 2.60869L3.45628 1.61222L2.60869 0.996515H3.65634L3.98011 0Z" fill="var(--fill-0, #F0F0F0)"/>
<path id="Vector_4" d="M1.37142 4.69566L1.69523 5.69217H2.74284L1.89525 6.30788L2.21906 7.30434L1.37142 6.6885L0.523828 7.30434L0.847594 6.30788L0 5.69217H1.04761L1.37142 4.69566Z" fill="var(--fill-0, #F0F0F0)"/>
</g>
</svg>
