<svg preserveAspectRatio="none" width="100%" height="100%" overflow="visible" style="display: block;" viewBox="0 0 6 10" fill="none" xmlns="http://www.w3.org/2000/svg">
<g id="Group">
<path id="Vector" d="M4.17394 5.73914H5.21742V9.91303H4.17394V5.73914Z" fill="var(--fill-0, #FFDA44)"/>
<path id="Vector_2" d="M0 5.73914H1.04348V9.91303H0V5.73914Z" fill="var(--fill-0, #FFDA44)"/>
<path id="Vector_3" d="M2.60869 8.34783C3.18499 8.34783 3.65217 7.88064 3.65217 7.30434C3.65217 6.72804 3.18499 6.26086 2.60869 6.26086C2.03239 6.26086 1.5652 6.72804 1.5652 7.30434C1.5652 7.88064 2.03239 8.34783 2.60869 8.34783Z" fill="var(--fill-0, #FFDA44)"/>
<path id="Vector_4" d="M2.60869 4.17389C2.89682 4.17389 3.13041 3.94031 3.13041 3.65217C3.13041 3.36403 2.89682 3.13045 2.60869 3.13045C2.32055 3.13045 2.08697 3.36403 2.08697 3.65217C2.08697 3.94031 2.32055 4.17389 2.60869 4.17389Z" fill="var(--fill-0, #FFDA44)"/>
<path id="Vector_5" d="M1.56525 8.86959H3.65222V9.91308H1.56525V8.86959Z" fill="var(--fill-0, #FFDA44)"/>
<path id="Vector_6" d="M1.56525 4.69566H3.65222V5.73914H1.56525V4.69566Z" fill="var(--fill-0, #FFDA44)"/>
<path id="Vector_7" d="M2.60869 0L2.97825 1.13719H4.17394L3.20667 1.84003L3.57595 2.97722L2.60869 2.27438L1.64147 2.97722L2.01075 1.84003L1.04348 1.13719H2.23917L2.60869 0Z" fill="var(--fill-0, #FFDA44)"/>
</g>
</svg>
