<svg preserveAspectRatio="none" width="100%" height="100%" overflow="visible" style="display: block;" viewBox="0 0 11 7" fill="none" xmlns="http://www.w3.org/2000/svg">
<g id="Group">
<path id="Vector" d="M3.21098 6.52181H7.38492V4.74787L6.55013 5.16525L5.29795 3.91308L4.04578 5.16525L3.21098 4.74787V6.52181Z" fill="var(--fill-0, #FFDA44)"/>
<path id="Vector_2" d="M0.82289 4.43484L1.01719 5.03269H1.64578L1.13719 5.4022L1.33148 6.00005L0.82289 5.63058L0.314297 6.00005L0.508593 5.4022L0 5.03269H0.628593L0.82289 4.43484Z" fill="var(--fill-0, #FFDA44)"/>
<path id="Vector_3" d="M1.42519 2.34787L1.61948 2.94572H2.24808L1.73948 3.31523L1.93373 3.91308L1.42519 3.54361L0.916594 3.91308L1.11089 3.31523L0.602297 2.94572H1.23089L1.42519 2.34787Z" fill="var(--fill-0, #FFDA44)"/>
<path id="Vector_4" d="M3.147 0.782672L3.3413 1.38052H3.96984L3.46134 1.75003L3.65555 2.34787L3.147 1.97841L2.63845 2.34787L2.8327 1.75003L2.32411 1.38052H2.95275L3.147 0.782672Z" fill="var(--fill-0, #FFDA44)"/>
<path id="Vector_5" d="M9.77302 4.43484L9.57872 5.03269H8.95012L9.45872 5.4022L9.26442 6.00005L9.77302 5.63058L10.2816 6.00005L10.0873 5.4022L10.5959 5.03269H9.96731L9.77302 4.43484Z" fill="var(--fill-0, #FFDA44)"/>
<path id="Vector_6" d="M9.17072 2.34787L8.97642 2.94572H8.34783L8.85642 3.31523L8.66213 3.91308L9.17072 3.54361L9.67931 3.91308L9.48502 3.31523L9.99361 2.94572H9.36502L9.17072 2.34787Z" fill="var(--fill-0, #FFDA44)"/>
<path id="Vector_7" d="M7.44891 0.782672L7.25461 1.38052H6.62606L7.13456 1.75003L6.94031 2.34787L7.44891 1.97841L7.95745 2.34787L7.7632 1.75003L8.27175 1.38052H7.64316L7.44891 0.782672Z" fill="var(--fill-0, #FFDA44)"/>
<path id="Vector_8" d="M5.29795 0L5.49225 0.597844H6.12084L5.61225 0.967359L5.80655 1.5652L5.29795 1.19573L4.78936 1.5652L4.98366 0.967359L4.47506 0.597844H5.10366L5.29795 0Z" fill="var(--fill-0, #FFDA44)"/>
</g>
</svg>
