<svg preserveAspectRatio="none" width="100%" height="100%" overflow="visible" style="display: block;" viewBox="0 0 24 24" fill="none" xmlns="http://www.w3.org/2000/svg">
<g id="Group">
<path id="Vector" d="M19.3057 2.48062C17.2823 0.925266 14.7494 0 12 0C9.25059 0 6.71766 0.925312 4.6942 2.48062L12 9.78638L19.3057 2.48062Z" fill="var(--fill-0, #0052B4)"/>
<path id="Vector_2" d="M2.48058 4.69425C0.925312 6.7177 0 9.25059 0 12C0 14.7494 0.925312 17.2823 2.48062 19.3058L9.78642 12L2.48058 4.69425Z" fill="var(--fill-0, #0052B4)"/>
<path id="Vector_3" d="M4.6942 21.5194C6.7177 23.0747 9.25059 24 12 24C14.7494 24 17.2823 23.0747 19.3058 21.5194L12 14.2136L4.6942 21.5194Z" fill="var(--fill-0, #0052B4)"/>
<path id="Vector_4" d="M21.5194 19.3057C23.0747 17.2823 24 14.7494 24 12C24 9.25059 23.0747 6.7177 21.5194 4.69425L14.2136 12L21.5194 19.3057Z" fill="var(--fill-0, #0052B4)"/>
</g>
</svg>
