<svg preserveAspectRatio="none" width="100%" height="100%" overflow="visible" style="display: block;" viewBox="0 0 14 9" fill="none" xmlns="http://www.w3.org/2000/svg">
<path id="Vector" d="M13.5652 0C13.2 0 12.7477 0 12 0C12 2.8815 9.66398 5.21738 6.78258 5.21738C3.90103 5.21738 1.5652 2.8815 1.5652 0C1.06083 0 0.504281 0 0 0C0 3.10383 2.08481 5.72072 4.93059 6.52664C4.61859 7.11933 4.66613 7.86553 5.11181 8.4217C5.69719 7.95253 6.30323 7.46686 6.81736 7.05492C7.33148 7.46691 7.93758 7.95258 8.52291 8.4217C8.973 7.86 9.0173 7.10433 8.69494 6.50878C11.5095 5.68308 13.5652 3.08175 13.5652 0V0Z" fill="var(--fill-0, #6DA544)"/>
</svg>
