<svg preserveAspectRatio="none" width="100%" height="100%" overflow="visible" style="display: block;" viewBox="0 0 21 17" fill="none" xmlns="http://www.w3.org/2000/svg">
<g id="Group">
<path id="Vector" d="M4.50581 0C2.62898 1.0687 1.0687 2.62898 0 4.50581V10.4348H3.13045V3.13055V3.13045H10.4348C10.4348 2.14313 10.4348 1.20253 10.4348 0H4.50581Z" fill="var(--fill-0, #D80027)"/>
<path id="Vector_2" d="M10.4348 8.95912L6.17137 4.6957C6.17137 4.6957 4.6957 4.6958 4.6957 4.6957V4.6958L10.4347 10.4348H10.4348C10.4348 10.4348 10.4348 9.41728 10.4348 8.95912Z" fill="var(--fill-0, #D80027)"/>
<path id="Vector_3" d="M19.2159 7.33912L19.4749 8.13628H20.313L19.635 8.62894L19.894 9.42605L19.2159 8.93344L18.5378 9.42605L18.7968 8.62894L18.1186 8.13628H18.9568L19.2159 7.33912Z" fill="var(--fill-0, #D80027)"/>
<path id="Vector_4" d="M16.2197 13.0782L16.6082 14.274H17.8655L16.8483 15.0129L17.2369 16.2087L16.2197 15.4697L15.2025 16.2087L15.5911 15.0129L14.5739 14.274H15.8311L16.2197 13.0782Z" fill="var(--fill-0, #D80027)"/>
<path id="Vector_5" d="M16.3328 3.68695L16.6567 4.68347H17.7044L16.8567 5.29917L17.1805 6.29564L16.3328 5.67975L15.4853 6.29564L15.809 5.29917L14.9614 4.68347H16.0091L16.3328 3.68695Z" fill="var(--fill-0, #D80027)"/>
<path id="Vector_6" d="M13.4499 7.30434L13.8384 8.50012H15.0957L14.0785 9.23906L14.4671 10.4348L13.4499 9.69581L12.4327 10.4348L12.8213 9.23906L11.8041 8.50012H13.0613L13.4499 7.30434Z" fill="var(--fill-0, #D80027)"/>
</g>
</svg>
