<svg preserveAspectRatio="none" width="100%" height="100%" overflow="visible" style="display: block;" viewBox="0 0 21 17" fill="none" xmlns="http://www.w3.org/2000/svg">
<g id="Group">
<path id="Vector" d="M3.51471 0C-1.17157 4.68628 -1.17157 12.2843 3.51471 16.9706C5.45126 15.0341 7.31374 13.1716 12 8.48531L3.51471 0Z" fill="var(--fill-0, #D80027)"/>
<path id="Vector_2" d="M15.1305 8.48531C15.1305 6.73697 16.3592 5.27639 18 4.91808C17.7478 4.863 17.4862 4.83314 17.2174 4.83314C15.2003 4.83314 13.5652 6.46823 13.5652 8.48531C13.5652 10.5024 15.2003 12.1375 17.2174 12.1375C17.4861 12.1375 17.7478 12.1076 18 12.0525C16.3592 11.6942 15.1305 10.2337 15.1305 8.48531Z" fill="var(--fill-0, #D80027)"/>
<path id="Vector_3" d="M18.1534 6.13748L18.6716 7.73189H20.3479L18.9917 8.71711L19.5097 10.3114L18.1534 9.32611L16.7973 10.3114L17.3154 8.71711L15.9591 7.73189H17.6354L18.1534 6.13748Z" fill="var(--fill-0, #D80027)"/>
</g>
</svg>
