<svg preserveAspectRatio="none" width="100%" height="100%" overflow="visible" style="display: block;" viewBox="0 0 15 22" fill="none" xmlns="http://www.w3.org/2000/svg">
<g id="Group">
<path id="Vector" d="M10.4348 5.96046e-08L10.6291 0.597844H11.2577L10.7492 0.967359L10.9435 1.5652L10.4348 1.19573L9.92627 1.5652L10.1206 0.967359L9.61192 0.597844H10.2405L10.4348 5.96046e-08Z" fill="var(--fill-0, #FFDA44)"/>
<path id="Vector_2" d="M7.52496 5.96046e-08L7.71925 0.597844H8.34785L7.8393 0.967359L8.0336 1.5652L7.52496 1.19573L7.01646 1.5652L7.21071 0.967359L6.70206 0.597844H7.33066L7.52496 5.96046e-08Z" fill="var(--fill-0, #FFDA44)"/>
<path id="Vector_3" d="M13.3447 5.96046e-08L13.539 0.597844H14.1676L13.659 0.967359L13.8533 1.5652L13.3447 1.19573L12.8361 1.5652L13.0304 0.967359L12.5218 0.597844H13.1504L13.3447 5.96046e-08Z" fill="var(--fill-0, #FFDA44)"/>
<path id="Vector_4" d="M10.4348 19.8261L10.6291 20.424H11.2577L10.7492 20.7935L10.9435 21.3913L10.4348 21.0218L9.92627 21.3913L10.1206 20.7935L9.61192 20.424H10.2405L10.4348 19.8261Z" fill="var(--fill-0, #FFDA44)"/>
<path id="Vector_5" d="M7.52496 19.8261L7.71925 20.424H8.34785L7.8393 20.7935L8.0336 21.3913L7.52496 21.0218L7.01646 21.3913L7.21071 20.7935L6.70206 20.424H7.33066L7.52496 19.8261Z" fill="var(--fill-0, #FFDA44)"/>
<path id="Vector_6" d="M13.3447 19.8261L13.539 20.424H14.1676L13.659 20.7935L13.8533 21.3913L13.3447 21.0218L12.8361 21.3913L13.0304 20.7935L12.5218 20.424H13.1504L13.3447 19.8261Z" fill="var(--fill-0, #FFDA44)"/>
<path id="Vector_7" d="M2.09121 10.4975C2.39941 10.9845 2.25456 11.629 1.76758 11.9373C1.28064 12.2455 0.636018 12.1007 0.327768 11.6137C-0.230279 10.7321 0.0932991 9.29222 0.0932991 9.29222C0.0932991 9.29222 1.53311 9.6158 2.09121 10.4975V10.4975Z" fill="var(--fill-0, #FFDA44)"/>
</g>
</svg>
