<svg preserveAspectRatio="none" width="100%" height="100%" overflow="visible" style="display: block;" viewBox="0 0 14 17" fill="none" xmlns="http://www.w3.org/2000/svg">
<g id="Group">
<path id="Vector" d="M10.8789 4.07663C10.8789 3.91706 11.0086 3.78736 11.1683 3.78736H11.7881C12.768 3.78736 13.5652 2.9902 13.5652 2.01038C13.5652 1.03055 12.768 0.233344 11.7881 0.233344H11.1995C11.0073 0.0890155 10.7496 0 10.4652 0C9.87211 0 9.39131 0.384609 9.39131 0.859078C9.39131 1.32895 9.86292 1.71014 10.4481 1.71755L10.4478 1.72097H11.7881C11.9477 1.72097 12.0774 1.85072 12.0774 2.01028C12.0774 2.16984 11.9477 2.29955 11.7881 2.29955H11.1683C10.1884 2.29955 9.39127 3.0967 9.39127 4.07653C9.39127 5.05636 10.1883 5.85356 11.1683 5.85356H13.5652V4.36584H11.1683C11.0086 4.36589 10.8789 4.23619 10.8789 4.07663V4.07663Z" fill="var(--fill-0, #F0F0F0)"/>
<path id="Vector_2" d="M1.48767 4.07663C1.48767 3.91706 1.61738 3.78736 1.77698 3.78736H2.39686C3.37673 3.78736 4.17394 2.9902 4.17394 2.01038C4.17394 1.03055 3.37678 0.233344 2.39686 0.233344H1.8082C1.61606 0.0890155 1.3583 0 1.07395 0C0.480844 0 4.68493e-05 0.384609 4.68493e-05 0.859078C4.68493e-05 1.32895 0.471656 1.71014 1.05684 1.71755L1.05656 1.72097H2.39691C2.55652 1.72097 2.68622 1.85072 2.68622 2.01028C2.68622 2.16984 2.55652 2.29955 2.39691 2.29955H1.77703C0.797156 2.29955 4.68493e-05 3.0967 4.68493e-05 4.07653C4.68493e-05 5.05636 0.797109 5.85356 1.77703 5.85356H4.17389V4.36584H1.77698C1.61738 4.36589 1.48767 4.23619 1.48767 4.07663V4.07663Z" fill="var(--fill-0, #F0F0F0)"/>
<path id="Vector_3" d="M10.8789 15.1477C10.8789 14.9881 11.0086 14.8584 11.1683 14.8584H11.7881C12.768 14.8584 13.5652 14.0612 13.5652 13.0814C13.5652 12.1016 12.768 11.3044 11.7881 11.3044H11.1995C11.0073 11.16 10.7496 11.071 10.4652 11.071C9.87206 11.071 9.39127 11.4557 9.39127 11.9301C9.39127 12.4 9.86288 12.7812 10.4481 12.7886L10.4478 12.792H11.7881C11.9477 12.792 12.0774 12.9217 12.0774 13.0813C12.0774 13.2409 11.9477 13.3706 11.7881 13.3706H11.1682C10.1883 13.3706 9.39122 14.1677 9.39122 15.1476C9.39122 16.1274 10.1883 16.9246 11.1682 16.9246H13.5652V15.4369H11.1683C11.0086 15.437 10.8789 15.3072 10.8789 15.1477V15.1477Z" fill="var(--fill-0, #F0F0F0)"/>
<path id="Vector_4" d="M1.48767 15.1477C1.48767 14.9881 1.61738 14.8584 1.77698 14.8584H2.39686C3.37673 14.8584 4.17394 14.0612 4.17394 13.0814C4.17394 12.1016 3.37678 11.3044 2.39686 11.3044H1.8082C1.61606 11.16 1.3583 11.071 1.07395 11.071C0.480797 11.071 0 11.4557 0 11.9301C0 12.4 0.47161 12.7812 1.0568 12.7886L1.05652 12.792H2.39686C2.55647 12.792 2.68617 12.9217 2.68617 13.0813C2.68617 13.2409 2.55647 13.3706 2.39686 13.3706H1.77698C0.79711 13.3706 0 14.1677 0 15.1476C0 16.1274 0.797063 16.9246 1.77698 16.9246H4.17389V15.4369H1.77698C1.61738 15.437 1.48767 15.3072 1.48767 15.1477Z" fill="var(--fill-0, #F0F0F0)"/>
</g>
</svg>
