<svg preserveAspectRatio="none" width="100%" height="100%" overflow="visible" style="display: block;" viewBox="0 0 24 2" fill="none" xmlns="http://www.w3.org/2000/svg">
<g id="Group">
<path id="Vector" d="M23.9935 4.72069e-05C23.9946 0.0333753 23.9957 0.0667035 23.9965 0.100172C23.9957 0.0667504 23.9945 0.0333753 23.9935 4.72069e-05Z" fill="var(--fill-0, #F0F0F0)"/>
<path id="Vector_2" d="M0.00351563 0.100125C0.0043125 0.0667032 0.0054375 0.033375 0.00646875 0C0.00548437 0.033375 0.00426563 0.0667501 0.00351563 0.100125V0.100125Z" fill="var(--fill-0, #F0F0F0)"/>
<path id="Vector_3" d="M0 0.377063C0 0.284485 0.00140625 0.192281 0.00351563 0.100125C0.00135938 0.192281 0 0.284485 0 0.377063Z" fill="var(--fill-0, #F0F0F0)"/>
<path id="Vector_4" d="M0 0.377063C0 0.595641 0.0061875 0.812813 0.0178594 1.02848C0.999563 1.0395 1.00608 1.94227 1.99997 1.94227C2.99995 1.94227 2.99995 1.02802 3.9998 1.02802C4.99988 1.02802 4.99988 1.94227 5.99995 1.94227C7.00003 1.94227 7.00003 1.02802 8.00011 1.02802C9.00009 1.02802 9.00009 1.94227 9.99994 1.94227C10.9999 1.94227 10.9999 1.02802 11.9999 1.02802C12.9999 1.02802 12.9999 1.94227 14 1.94227C15.0001 1.94227 15.0001 1.02802 16 1.02802C17 1.02802 17 1.94227 18 1.94227C18.9999 1.94227 18.9999 1.02802 19.9999 1.02802C21 1.02802 21 1.94227 21.9999 1.94227C22.9939 1.94227 23.0004 1.0395 23.9823 1.02848C23.9938 0.812766 24 0.595641 24 0.377063H0Z" fill="var(--fill-0, #F0F0F0)"/>
<path id="Vector_5" d="M23.9965 0.100125C23.9986 0.192188 24 0.284438 24 0.377063C24 0.284485 23.9986 0.192281 23.9965 0.100125Z" fill="var(--fill-0, #F0F0F0)"/>
</g>
</svg>
