<svg preserveAspectRatio="none" width="100%" height="100%" overflow="visible" style="display: block;" viewBox="0 0 9 8" fill="none" xmlns="http://www.w3.org/2000/svg">
<path id="Vector" d="M8.34778 1.30434H5.47823C5.47823 0.583969 4.89427 0 4.17389 0C3.45352 0 2.86955 0.583969 2.86955 1.30434H0C0 2.01361 0.617859 2.58853 1.32703 2.58853H1.28428C1.28428 3.29784 1.85925 3.87286 2.56856 3.87286C2.56856 4.50084 3.01959 5.02266 3.61528 5.13422L2.60325 7.419C3.08817 7.61611 3.61814 7.72566 4.17389 7.72566C4.72959 7.72566 5.25961 7.61611 5.74448 7.419L4.7325 5.13422C5.32819 5.02266 5.77922 4.50084 5.77922 3.87286C6.48853 3.87286 7.0635 3.29784 7.0635 2.58853H7.0207C7.72997 2.58853 8.34778 2.01356 8.34778 1.30434V1.30434Z" fill="var(--fill-0, #FF9811)"/>
</svg>
