<svg preserveAspectRatio="none" width="100%" height="100%" overflow="visible" style="display: block;" viewBox="0 0 24 3" fill="none" xmlns="http://www.w3.org/2000/svg">
<path id="Vector" d="M23.9628 0.00103068C23.0004 0.0237651 22.9872 0.914344 21.9998 0.914344C20.9999 0.914344 20.9999 0 19.9998 0C18.9998 0 18.9998 0.914344 17.9999 0.914344C17 0.914344 16.9999 0 16 0C15 0 15 0.914344 14 0.914344C12.9999 0.914344 12.9999 0 11.9998 0C10.9998 0 10.9998 0.914344 9.99989 0.914344C9.00005 0.914344 9.00005 0 8.00006 0C6.99998 0 6.99998 0.914344 5.99991 0.914344C4.99983 0.914344 4.99983 0 3.99975 0C2.99991 0 2.99991 0.914344 1.99992 0.914344C1.01278 0.914344 0.999422 0.0238588 0.0371719 0.00103068C0.01275 0.313874 0 0.63 0 0.949078C0 1.16766 0.0061875 1.38483 0.0178594 1.6005C0.999563 1.61152 1.00608 2.51428 1.99997 2.51428C2.99995 2.51428 2.99995 1.60003 3.9998 1.60003C4.99988 1.60003 4.99988 2.51428 5.99995 2.51428C7.00003 2.51428 7.00003 1.60003 8.00011 1.60003C9.00009 1.60003 9.00009 2.51428 9.99994 2.51428C10.9999 2.51428 10.9999 1.60003 11.9999 1.60003C12.9999 1.60003 12.9999 2.51428 14 2.51428C15.0001 2.51428 15.0001 1.60003 16 1.60003C17 1.60003 17 2.51428 18 2.51428C18.9999 2.51428 18.9999 1.60003 19.9999 1.60003C21 1.60003 21 2.51428 21.9999 2.51428C22.9939 2.51428 23.0004 1.61152 23.9823 1.6005C23.9938 1.38478 24 1.16766 24 0.949078C24 0.63 23.9872 0.313874 23.9628 0.00103068V0.00103068Z" fill="var(--fill-0, #F0F0F0)"/>
</svg>
