<svg preserveAspectRatio="none" width="100%" height="100%" overflow="visible" style="display: block;" viewBox="0 0 10 5" fill="none" xmlns="http://www.w3.org/2000/svg">
<g id="Group">
<path id="Vector" d="M8.17392 5.96046e-08V2.43473C8.17392 2.81841 7.86187 3.13041 7.4783 3.13041V4.17389C8.43727 4.17389 9.21741 3.39375 9.21741 2.43473V5.96046e-08H8.17392Z" fill="var(--fill-0, #F0F0F0)"/>
<path id="Vector_2" d="M0.695672 2.43473C0.695672 2.81841 0.383625 3.13041 0 3.13041V4.17389C0.959016 4.17389 1.73916 3.39375 1.73916 2.43473V0H0.695672V2.43473Z" fill="var(--fill-0, #F0F0F0)"/>
<path id="Vector_3" d="M6.60853 5.96046e-08H7.65202V2.43473H6.60853V5.96046e-08Z" fill="var(--fill-0, #F0F0F0)"/>
<path id="Vector_4" d="M5.04347 1.39125C5.04347 1.48716 4.96542 1.5652 4.86956 1.5652C4.77366 1.5652 4.69561 1.48716 4.69561 1.39125V5.96046e-08H3.65213V1.39125C3.65213 1.48716 3.57412 1.5652 3.47822 1.5652C3.38231 1.5652 3.30431 1.48716 3.30431 1.39125V5.96046e-08H2.26083V1.39125C2.26083 2.06259 2.80692 2.60869 3.47822 2.60869C3.73673 2.60869 3.97655 2.52745 4.17384 2.3895C4.37123 2.52745 4.611 2.60869 4.86952 2.60869C4.92159 2.60869 4.97278 2.60503 5.02313 2.59861C4.94916 2.90325 4.6748 3.13041 4.3478 3.13041V4.17389C5.30677 4.17389 6.08691 3.39375 6.08691 2.43473V1.39125V5.96046e-08H5.04342L5.04347 1.39125Z" fill="var(--fill-0, #F0F0F0)"/>
<path id="Vector_5" d="M2.26087 3.13045H3.82608V4.17394H2.26087V3.13045Z" fill="var(--fill-0, #F0F0F0)"/>
</g>
</svg>
