<svg preserveAspectRatio="none" width="100%" height="100%" overflow="visible" style="display: block;" viewBox="0 0 9 10" fill="none" xmlns="http://www.w3.org/2000/svg">
<g id="Group">
<path id="Vector" d="M0 0H1.66955V1.66955H0V0Z" fill="var(--fill-0, #D80027)"/>
<path id="Vector_2" d="M3.33909 0H5.00864V1.66955H3.33909V0Z" fill="var(--fill-0, #D80027)"/>
<path id="Vector_3" d="M6.67823 0H8.34778V1.66955H6.67823V0Z" fill="var(--fill-0, #D80027)"/>
<path id="Vector_4" d="M1.66955 1.66955H3.33909V3.33909H1.66955V1.66955Z" fill="var(--fill-0, #D80027)"/>
<path id="Vector_5" d="M5.00869 1.66955H6.67823V3.33909H5.00869V1.66955Z" fill="var(--fill-0, #D80027)"/>
<path id="Vector_6" d="M0 3.33858H1.66955V5.00812H0V3.33858Z" fill="var(--fill-0, #D80027)"/>
<path id="Vector_7" d="M1.66955 5.00817H3.33909V6.67772H1.66955V5.00817Z" fill="var(--fill-0, #D80027)"/>
<path id="Vector_8" d="M3.33909 3.33858H5.00864V5.00812H3.33909V3.33858Z" fill="var(--fill-0, #D80027)"/>
<path id="Vector_9" d="M6.67823 3.33858H8.34778V5.00812H6.67823V3.33858Z" fill="var(--fill-0, #D80027)"/>
<path id="Vector_10" d="M5.00869 5.00817H6.67823V6.67772H5.00869V5.00817Z" fill="var(--fill-0, #D80027)"/>
<path id="Vector_11" d="M3.33909 6.67772H5.00864V8.34727H3.33909V6.67772Z" fill="var(--fill-0, #D80027)"/>
<path id="Vector_12" d="M1.66955 6.67786H0.107719C0.250969 7.29848 0.532594 7.86638 0.91875 8.34741H1.66955V6.67786Z" fill="var(--fill-0, #D80027)"/>
<path id="Vector_13" d="M6.67823 8.34745H7.42898C7.81523 7.86642 8.09677 7.29848 8.24002 6.67791H6.67823V8.34745Z" fill="var(--fill-0, #D80027)"/>
<path id="Vector_14" d="M1.66955 8.34745V9.07594C2.15513 9.44133 2.72259 9.70331 3.33909 9.82903V8.34745H1.66955Z" fill="var(--fill-0, #D80027)"/>
<path id="Vector_15" d="M5.00869 8.34745V9.82903C5.62523 9.70341 6.19266 9.44133 6.67823 9.07594V8.34745H5.00869Z" fill="var(--fill-0, #D80027)"/>
</g>
</svg>
