<svg preserveAspectRatio="none" width="100%" height="100%" overflow="visible" style="display: block;" viewBox="0 0 24 22" fill="none" xmlns="http://www.w3.org/2000/svg">
<g id="Group">
<path id="Vector" d="M24 10.8093C24 6.05175 21.2313 1.941 17.2174 0V21.6185C21.2313 19.6776 24 15.5668 24 10.8093V10.8093Z" fill="var(--fill-0, #D80027)"/>
<path id="Vector_2" d="M0 10.8093C0 15.5668 2.76867 19.6776 6.78262 21.6186V0C2.76867 1.941 0 6.05175 0 10.8093Z" fill="var(--fill-0, #D80027)"/>
<path id="Vector_3" d="M14.087 12.3745L16.1739 11.331L15.1305 10.8093V9.7658L13.0435 10.8093L14.087 8.72231H13.0435L12 7.15711L10.9565 8.72231H9.91303L10.9565 10.8093L8.86955 9.7658V10.8093L7.82611 11.331L9.91303 12.3745L9.39131 13.418H11.4783V14.9832H12.5217V13.418H14.6087L14.087 12.3745Z" fill="var(--fill-0, #D80027)"/>
</g>
</svg>
