<svg preserveAspectRatio="none" width="100%" height="100%" overflow="visible" style="display: block;" viewBox="0 0 10 10" fill="none" xmlns="http://www.w3.org/2000/svg">
<path id="Vector" d="M8.22558 5.23341C7.68928 4.69711 6.99244 4.38028 6.24361 4.32586L8.48517 2.58244C7.59244 1.6897 6.39591 1.28653 5.22834 1.3718C5.08856 0.869484 4.82208 0.395016 4.42706 0L3.54164 1.77084C3.48356 1.665 3.41002 1.56539 3.3203 1.47572C2.81086 0.966328 1.98502 0.966328 1.47567 1.47572C0.966328 1.98511 0.966234 2.81095 1.47567 3.32034C1.56534 3.41002 1.665 3.48356 1.77084 3.54169L0 4.42711C0.395109 4.82227 0.869906 5.08894 1.3725 5.22862C1.28695 6.39619 1.6897 7.59253 2.58248 8.48531L4.54092 5.96728C4.68825 5.8222 4.88283 5.74209 5.08983 5.74209C5.29889 5.74209 5.49539 5.82347 5.64319 5.97136C5.79103 6.11916 5.87245 6.3157 5.87245 6.52472C5.87245 6.73378 5.79103 6.93028 5.64319 7.07812L6.38109 7.81603C6.72595 7.47113 6.91594 7.01255 6.91594 6.52477C6.91594 6.12567 6.78863 5.74627 6.55359 5.43258C6.89606 5.52403 7.21973 5.70319 7.48786 5.97136C8.30161 6.78506 8.30161 8.10909 7.48786 8.92275L8.22577 9.66066C8.817 9.06937 9.14264 8.28328 9.14264 7.44708C9.1425 6.61078 8.81681 5.82469 8.22558 5.23341V5.23341Z" fill="var(--fill-0, #FFDA44)"/>
</svg>
