<svg preserveAspectRatio="none" width="100%" height="100%" overflow="visible" style="display: block;" viewBox="0 0 9 8" fill="none" xmlns="http://www.w3.org/2000/svg">
<g id="Group">
<path id="Vector" d="M4.17389 5.5155C2.1758 5.5155 0.506578 4.11122 0.0970309 2.23598C0.0341246 2.52427 0 2.82319 0 3.13041C0 5.43567 1.86867 7.3043 4.17389 7.3043C6.47911 7.3043 8.34778 5.43563 8.34778 3.13041C8.34778 2.82319 8.31366 2.52427 8.25075 2.23594C7.8412 4.11127 6.17198 5.5155 4.17389 5.5155Z" fill="var(--fill-0, #FFDA44)"/>
<path id="Vector_2" d="M4.17384 4.76837e-07L4.56234 1.19573H5.81967L4.80253 1.93472L5.19103 3.13045L4.17384 2.39142L3.1567 3.13045L3.54525 1.93472L2.52811 1.19573H3.78534L4.17384 4.76837e-07Z" fill="var(--fill-0, #FFDA44)"/>
</g>
</svg>
