<svg preserveAspectRatio="none" width="100%" height="100%" overflow="visible" style="display: block;" viewBox="0 0 19 6" fill="none" xmlns="http://www.w3.org/2000/svg">
<g id="Group">
<path id="Vector" d="M18.8521 1.30434H14.9043C14.9043 0.58398 14.3203 4.29986e-07 13.6 4.29986e-07L12.5565 2.08695C12.5565 2.08695 13.6696 5.21739 13.6347 5.21739H14.9391C15.6595 5.21739 16.2434 4.63346 16.2434 3.91305C16.9638 3.91305 17.5478 3.32912 17.5478 2.60872H17.5043C18.2247 2.60867 18.8521 2.02474 18.8521 1.30434Z" fill="var(--fill-0, #ACABB1)"/>
<path id="Vector_2" d="M0 1.30434H3.94782C3.94782 0.583979 4.5318 0 5.25215 0L6.29565 2.08695C6.29565 2.08695 5.18258 5.21739 5.21739 5.21739H3.91305C3.19265 5.21739 2.60872 4.63346 2.60872 3.91305C1.88831 3.91305 1.30438 3.32912 1.30438 2.60872H1.34782C0.627421 2.60867 0 2.02474 0 1.30434V1.30434Z" fill="var(--fill-0, #ACABB1)"/>
</g>
</svg>
