<svg preserveAspectRatio="none" width="100%" height="100%" overflow="visible" style="display: block;" viewBox="0 0 19 17" fill="none" xmlns="http://www.w3.org/2000/svg">
<g id="Group">
<path id="Vector" d="M14.7689 13.5652L15.0982 14.2538L15.8418 14.0819L15.5088 14.7687L16.1068 15.2429L15.3622 15.4107L15.3644 16.1739L14.7689 15.6964L14.1735 16.1739L14.1756 15.4107L13.431 15.2429L14.029 14.7687L13.696 14.0819L14.4396 14.2538L14.7689 13.5652Z" fill="var(--fill-0, #FFDA44)"/>
<path id="Vector_2" d="M11.7055 6.26086L12.0349 6.94941L12.7785 6.77752L12.4455 7.46433L13.0434 7.93852L12.2989 8.10633L12.301 8.86955L11.7055 8.39208L11.1101 8.86955L11.1121 8.10633L10.3677 7.93852L10.9657 7.46433L10.6326 6.77752L11.3763 6.94941L11.7055 6.26086Z" fill="var(--fill-0, #FFDA44)"/>
<path id="Vector_3" d="M14.7689 2.08697L15.0982 2.77552L15.8418 2.60358L15.5089 3.29039L16.1068 3.76463L15.3622 3.93239L15.3643 4.69566L14.7689 4.21814L14.1735 4.69566L14.1756 3.93239L13.4311 3.76463L14.029 3.29039L13.696 2.60358L14.4396 2.77552L14.7689 2.08697Z" fill="var(--fill-0, #FFDA44)"/>
<path id="Vector_4" d="M17.4447 5.21737L17.774 5.90592L18.5176 5.73403L18.1846 6.42084L18.7826 6.89503L18.0381 7.06284L18.0401 7.82611L17.4447 7.34859L16.8493 7.82611L16.8513 7.06284L16.1068 6.89503L16.7048 6.42084L16.3717 5.73403L17.1154 5.90592L17.4447 5.21737Z" fill="var(--fill-0, #FFDA44)"/>
<path id="Vector_5" d="M15.5313 8.86955L15.7904 9.66675H16.6286L15.9504 10.1594L16.2095 10.9565L15.5313 10.4639L14.8533 10.9565L15.1123 10.1594L14.4342 9.66675H15.2723L15.5313 8.86955Z" fill="var(--fill-0, #FFDA44)"/>
<path id="Vector_6" d="M9.65212 11.7391C7.77914 11.7391 6.26077 10.2208 6.26077 8.34783C6.26077 6.47489 7.77909 4.95652 9.65212 4.95652C10.2361 4.95652 10.7856 5.10422 11.2653 5.36414C10.5127 4.62811 9.48361 4.17389 8.34769 4.17389C6.04256 4.17389 4.17384 6.04261 4.17384 8.34778C4.17384 10.653 6.04256 12.5217 8.34769 12.5217C9.48356 12.5217 10.5127 12.0675 11.2653 11.3314C10.7856 11.5914 10.2361 11.7391 9.65212 11.7391V11.7391Z" fill="var(--fill-0, #FFDA44)"/>
<path id="Vector_7" d="M3.894 1.04348C3.53306 0.419859 2.85923 0 2.08692 0C1.31461 0 0.640781 0.419859 0.279844 1.04348H3.894Z" fill="var(--fill-0, #FFDA44)"/>
<path id="Vector_8" d="M3.90094 1.05553L2.08692 2.86955L0.272906 1.05553C0.0995156 1.3598 0 1.71169 0 2.08697C0 3.23958 0.934359 4.17394 2.08697 4.17394C3.23958 4.17394 4.17394 3.23962 4.17394 2.08697C4.17389 1.71169 4.07433 1.3598 3.90094 1.05553V1.05553Z" fill="var(--fill-0, #FFDA44)"/>
</g>
</svg>
