<svg preserveAspectRatio="none" width="100%" height="100%" overflow="visible" style="display: block;" viewBox="0 0 4 10" fill="none" xmlns="http://www.w3.org/2000/svg">
<g id="Group">
<path id="Vector" d="M1.08483 6.32077L0.0366561 5.53992V4.43573L1.08483 3.65489H2.56725L3.61542 4.43573V5.53992L2.56725 6.32077H1.08483Z" fill="var(--fill-0, #496E2D)"/>
<path id="Vector_2" d="M3.65213 8.03873H3.19556V7.58222H2.3933L1.82602 7.01494L1.25878 7.58222H0.456516V8.03873H0V8.95177H0.456516V9.40828H1.25873L1.82606 9.97561L2.3933 9.40828H3.19556V8.95177H3.65213V8.03873Z" fill="var(--fill-0, #496E2D)"/>
<path id="Vector_3" d="M3.65213 1.02384H3.19556V0.567281H2.3933L1.82602 0L1.25878 0.567281H0.456516V1.02384H2.38419e-07V1.93688H0.456516V2.39339H1.25873L1.82606 2.96077L2.3933 2.39339H3.19556V1.93688H3.65213V1.02384Z" fill="var(--fill-0, #496E2D)"/>
</g>
</svg>
