<svg preserveAspectRatio="none" width="100%" height="100%" overflow="visible" style="display: block;" viewBox="0 0 12 5" fill="none" xmlns="http://www.w3.org/2000/svg">
<g id="Group">
<path id="Vector" d="M1.00622 2.34787C1.00622 1.22395 1.79611 0.285047 2.85094 0.0547032C2.68884 0.0192657 2.52061 9.38177e-05 2.34783 9.38177e-05C1.05117 9.38177e-05 0 1.05122 0 2.34792C0 3.64462 1.05108 4.69575 2.34783 4.69575C2.52061 4.69575 2.6888 4.67653 2.85094 4.64114C1.79616 4.4107 1.00622 3.4718 1.00622 2.34787V2.34787Z" fill="var(--fill-0, #F0F0F0)"/>
<path id="Vector_2" d="M4.23863 3.41508L4.39753 3.90422H4.91184L4.49578 4.20656L4.65469 4.6957L4.23863 4.39341L3.82247 4.6957L3.98142 4.20656L3.56531 3.90422H4.07963L4.23863 3.41508Z" fill="var(--fill-0, #F0F0F0)"/>
<path id="Vector_3" d="M5.88019 3.41508L6.03914 3.90422H6.55345L6.13734 4.20656L6.2963 4.6957L5.88019 4.39341L5.46408 4.6957L5.62303 4.20656L5.20697 3.90422H5.72123L5.88019 3.41508Z" fill="var(--fill-0, #F0F0F0)"/>
<path id="Vector_4" d="M7.5218 3.41508L7.6807 3.90422H8.19506L7.77895 4.20656L7.93786 4.6957L7.5218 4.39341L7.10564 4.6957L7.26464 4.20656L6.84849 3.90422H7.36284L7.5218 3.41508Z" fill="var(--fill-0, #F0F0F0)"/>
<path id="Vector_5" d="M9.16341 3.41508L9.32236 3.90422H9.83663L9.42056 4.20656L9.57952 4.6957L9.16341 4.39341L8.74725 4.6957L8.90625 4.20656L8.49009 3.90422H9.00441L9.16341 3.41508Z" fill="var(--fill-0, #F0F0F0)"/>
<path id="Vector_6" d="M10.805 3.41508L10.9639 3.90422H11.4782L11.0622 4.20656L11.2211 4.6957L10.805 4.39341L10.3889 4.6957L10.5478 4.20656L10.1318 3.90422H10.646L10.805 3.41508Z" fill="var(--fill-0, #F0F0F0)"/>
<path id="Vector_7" d="M5.88019 1.70756L6.03914 2.19666H6.55345L6.13734 2.49905L6.2963 2.98814L5.88019 2.68584L5.46408 2.98814L5.62303 2.49905L5.20697 2.19666H5.72123L5.88019 1.70756Z" fill="var(--fill-0, #F0F0F0)"/>
<path id="Vector_8" d="M7.5218 1.70756L7.6807 2.19666H8.19506L7.77895 2.49905L7.93786 2.98814L7.5218 2.68584L7.10564 2.98814L7.26464 2.49905L6.84849 2.19666H7.36284L7.5218 1.70756Z" fill="var(--fill-0, #F0F0F0)"/>
<path id="Vector_9" d="M9.16341 1.70756L9.32236 2.19666H9.83663L9.42056 2.49905L9.57952 2.98814L9.16341 2.68584L8.74725 2.98814L8.90625 2.49905L8.49009 2.19666H9.00441L9.16341 1.70756Z" fill="var(--fill-0, #F0F0F0)"/>
<path id="Vector_10" d="M10.805 1.70756L10.9639 2.19666H11.4782L11.0622 2.49905L11.2211 2.98814L10.805 2.68584L10.3889 2.98814L10.5478 2.49905L10.1318 2.19666H10.646L10.805 1.70756Z" fill="var(--fill-0, #F0F0F0)"/>
<path id="Vector_11" d="M7.5218 1.19209e-07L7.6807 0.489187H8.19506L7.77895 0.791485L7.93786 1.28067L7.5218 0.978375L7.10564 1.28067L7.26464 0.791485L6.84849 0.489187H7.36284L7.5218 1.19209e-07Z" fill="var(--fill-0, #F0F0F0)"/>
<path id="Vector_12" d="M9.16341 1.19209e-07L9.32236 0.489187H9.83663L9.42056 0.791485L9.57952 1.28067L9.16341 0.978375L8.74725 1.28067L8.90625 0.791485L8.49009 0.489187H9.00441L9.16341 1.19209e-07Z" fill="var(--fill-0, #F0F0F0)"/>
<path id="Vector_13" d="M10.805 1.19209e-07L10.9639 0.489187H11.4782L11.0622 0.791485L11.2211 1.28067L10.805 0.978375L10.3889 1.28067L10.5478 0.791485L10.1318 0.489187H10.646L10.805 1.19209e-07Z" fill="var(--fill-0, #F0F0F0)"/>
</g>
</svg>
