<svg preserveAspectRatio="none" width="100%" height="100%" overflow="visible" style="display: block;" viewBox="0 0 9 12" fill="none" xmlns="http://www.w3.org/2000/svg">
<path id="Vector" d="M5.73909 1.04348C5.73909 0.467156 5.27189 0 4.69561 0C4.5053 0 4.32745 0.0517499 4.17389 0.140719C4.02028 0.0517499 3.84248 0 3.65217 0C3.07589 0 2.60869 0.467156 2.60869 1.04348H0V6.26081C0 8.20313 1.54247 9.32639 2.75208 9.90867C2.66156 10.0633 2.60869 10.2427 2.60869 10.4348C2.60869 11.0111 3.07589 11.4783 3.65217 11.4783C3.84248 11.4783 4.02033 11.4265 4.17389 11.3376C4.3275 11.4265 4.5053 11.4783 4.69561 11.4783C5.27189 11.4783 5.73909 11.0111 5.73909 10.4348C5.73909 10.2427 5.68622 10.0633 5.59566 9.90867C6.80527 9.32639 8.34778 8.20317 8.34778 6.26081V1.04348H5.73909ZM6.78258 6.26081C6.78258 6.53273 6.78258 7.36013 5.49483 8.17884C5.00705 8.48897 4.5022 8.69006 4.17389 8.80186C3.84558 8.69006 3.34073 8.48897 2.85295 8.17884C1.5652 7.36013 1.5652 6.53273 1.5652 6.26081V2.60869H6.78258V6.26081Z" fill="var(--fill-0, #FF9811)"/>
</svg>
