<svg preserveAspectRatio="none" width="100%" height="100%" overflow="visible" style="display: block;" viewBox="0 0 10 11" fill="none" xmlns="http://www.w3.org/2000/svg">
<g id="Group">
<path id="Vector" d="M8.08569 3.91241C8.08569 5.78506 6.56756 7.30323 4.69487 7.30323C2.82217 7.30323 1.30404 5.78511 1.30404 3.91241C1.30404 3.32852 1.45166 2.77909 1.71163 2.29941C0.975818 3.05191 0.521543 4.08093 0.521543 5.21655C0.521543 7.5214 2.38997 9.38987 4.69487 9.38987C6.99976 9.38987 8.86819 7.52144 8.86819 5.21655C8.86819 4.08093 8.41396 3.05191 7.6781 2.29941C7.93808 2.77918 8.08569 3.32852 8.08569 3.91241V3.91241Z" fill="var(--fill-0, #D80027)"/>
<path id="Vector_2" d="M3.91246 0H5.47746V7.82496H3.91246V0Z" fill="var(--fill-0, #D80027)"/>
<path id="Vector_3" d="M7.30319 1.56496H2.08659C2.08659 1.9251 2.40033 2.21705 2.76043 2.21705H2.73868C2.73868 2.5772 3.03067 2.86914 3.39078 2.86914C3.39078 3.22929 3.68277 3.52123 4.04287 3.52123H5.34701C5.70715 3.52123 5.9991 3.22929 5.9991 2.86914C6.35925 2.86914 6.65119 2.5772 6.65119 2.21705H6.62949C6.98949 2.217 7.30319 1.92515 7.30319 1.56496Z" fill="var(--fill-0, #D80027)"/>
<path id="Vector_4" d="M1.04332 8.3466H8.3466V9.9116H1.04332V8.3466Z" fill="var(--fill-0, #D80027)"/>
<path id="Vector_5" d="M6.25992 8.86828H9.38987V10.4333H6.25992V8.86828Z" fill="var(--fill-0, #D80027)"/>
<path id="Vector_6" d="M0 8.86828H3.12996V10.4333H0V8.86828Z" fill="var(--fill-0, #D80027)"/>
</g>
</svg>
