<svg preserveAspectRatio="none" width="100%" height="100%" overflow="visible" style="display: block;" viewBox="0 0 8 8" fill="none" xmlns="http://www.w3.org/2000/svg">
<path id="Vector" d="M2.50828 2.29542L4.76348 5.27883C4.40817 5.81686 4.41005 6.54173 4.821 7.08534C5.34225 7.77492 6.32386 7.91142 7.01348 7.39012C7.70306 6.86887 7.83956 5.88727 7.31822 5.19769C6.90736 4.65408 6.21042 4.45458 5.59589 4.64967L2.08116 0L1.24875 0.62925L0 1.57303L1.2585 3.2378L2.50828 2.29542ZM5.75498 5.72527C5.98486 5.55145 6.31209 5.59702 6.48586 5.8268C6.65958 6.05667 6.61416 6.38391 6.38428 6.55772C6.15445 6.73139 5.82722 6.68602 5.6535 6.45609C5.47964 6.22622 5.52516 5.89898 5.75498 5.72527V5.72527Z" fill="var(--fill-0, #ACABB1)"/>
</svg>
