<svg preserveAspectRatio="none" width="100%" height="100%" overflow="visible" style="display: block;" viewBox="0 0 16 7" fill="none" xmlns="http://www.w3.org/2000/svg">
<g id="Group">
<path id="Vector" d="M4.95656 2.34783C4.95 2.34783 4.94358 2.34825 4.93702 2.34834V2.34783H2.64309C2.75939 1.89848 3.16711 1.5652 3.65222 1.5652V2.38419e-07C2.21377 2.38419e-07 1.04353 1.17028 1.04353 2.60869V3.88697V3.91308H4.93702H4.95656C5.10042 3.91308 5.21742 4.03012 5.21742 4.17394V4.69566H0V6.26086H6.78262V4.17389C6.78262 3.16702 5.96344 2.34783 4.95656 2.34783V2.34783Z" fill="var(--fill-0, #496E2D)"/>
<path id="Vector_2" d="M8.86959 4.69566V0H7.30439V6.26091H9.91308V4.69566H8.86959Z" fill="var(--fill-0, #496E2D)"/>
<path id="Vector_3" d="M14.087 4.6957V0H12.5218V4.6957H12V3.1305H10.4348V6.26095H15.1305V4.6957H14.087Z" fill="var(--fill-0, #496E2D)"/>
</g>
</svg>
