<svg preserveAspectRatio="none" width="100%" height="100%" overflow="visible" style="display: block;" viewBox="0 0 10 7" fill="none" xmlns="http://www.w3.org/2000/svg">
<g id="Group">
<path id="Vector" d="M8.8349 3.72478H5.70445C5.70445 3.1485 5.23725 2.6813 4.66097 2.6813C4.08469 2.6813 3.61748 3.1485 3.61748 3.72478H0.487031C0.487031 4.30111 0.989016 4.76827 1.56525 4.76827H1.53052C1.53052 5.34459 1.99763 5.81175 2.574 5.81175C2.574 6.38808 3.04111 6.85523 3.61748 6.85523H5.70445C6.28073 6.85523 6.74794 6.38808 6.74794 5.81175C7.32422 5.81175 7.79142 5.34459 7.79142 4.76827H7.75669C8.33292 4.76827 8.8349 4.30111 8.8349 3.72478V3.72478Z" fill="var(--fill-0, #FFDA44)"/>
<path id="Vector_2" d="M9.26372 2.05495L8.98978 2.49356L9.32208 2.88956L8.82033 2.76464L8.54634 3.20306L8.5102 2.6872L8.00845 2.56209L8.48803 2.36841L8.45194 1.85255L8.78433 2.24873L9.26372 2.05495Z" fill="var(--fill-0, #FFDA44)"/>
<path id="Vector_3" d="M7.66514 0.713625L7.55775 1.21945L8.00555 1.47797L7.49123 1.53225L7.38375 2.03794L7.17338 1.56553L6.65911 1.61953L7.04344 1.2735L6.83316 0.801187L7.28091 1.0597L7.66514 0.713625Z" fill="var(--fill-0, #FFDA44)"/>
<path id="Vector_4" d="M5.70436 0L5.77631 0.51211L6.28552 0.601875L5.8208 0.828562L5.89275 1.34067L5.53359 0.968672L5.06878 1.19536L5.31155 0.73875L4.95234 0.366844L5.46164 0.456563L5.70436 0Z" fill="var(--fill-0, #FFDA44)"/>
<path id="Vector_5" d="M3.61763 0L3.86044 0.456563L4.36964 0.366797L4.01044 0.738843L4.2532 1.19541L3.78848 0.968672L3.42923 1.34058L3.50123 0.828562L3.03647 0.601922L3.54567 0.51211L3.61763 0Z" fill="var(--fill-0, #FFDA44)"/>
<path id="Vector_6" d="M1.6568 0.713625L2.04108 1.0597L2.48883 0.801187L2.27864 1.27369L2.66278 1.61958L2.14861 1.56553L1.93819 2.03794L1.83084 1.53216L1.31653 1.47816L1.76428 1.2195L1.6568 0.713625Z" fill="var(--fill-0, #FFDA44)"/>
<path id="Vector_7" d="M0.0582658 2.05495L0.537844 2.24873L0.870047 1.85259L0.834141 2.36855L1.31353 2.56228L0.811734 2.68725L0.775547 3.20306L0.50175 2.76464L0 2.88966L0.332391 2.49356L0.0582658 2.05495Z" fill="var(--fill-0, #FFDA44)"/>
</g>
</svg>
