<svg preserveAspectRatio="none" width="100%" height="100%" overflow="visible" style="display: block;" viewBox="0 0 14 6" fill="none" xmlns="http://www.w3.org/2000/svg">
<g id="Group">
<path id="Vector" d="M6.56278 1.19209e-07L6.8707 0.947625H7.86712L7.06111 1.53337L7.3688 2.481L6.56278 1.89525L5.75677 2.481L6.06445 1.53337L5.25844 0.947625H6.25486L6.56278 1.19209e-07Z" fill="var(--fill-0, #FFDA44)"/>
<path id="Vector_2" d="M2.77373 1.65745L3.36614 2.1908L4.05647 1.79227L3.73228 2.52047L4.32464 3.05391L3.53189 2.97056L3.2077 3.69877L3.04186 2.91909L2.24916 2.83575L2.93944 2.43712L2.77373 1.65745Z" fill="var(--fill-0, #FFDA44)"/>
<path id="Vector_3" d="M2.38419e-07 4.43123L0.779719 4.59694L1.1783 3.90661L1.26164 4.69931L2.04127 4.86516L1.31311 5.18939L1.39645 5.98205L0.862969 5.38978L0.134813 5.71397L0.533391 5.02359L2.38419e-07 4.43123Z" fill="var(--fill-0, #FFDA44)"/>
<path id="Vector_4" d="M10.3518 1.65745L9.75947 2.1908L9.06914 1.79227L9.39328 2.52047L8.80097 3.05391L9.59372 2.97056L9.91791 3.69877L10.0838 2.91909L10.8765 2.83575L10.1862 2.43712L10.3518 1.65745Z" fill="var(--fill-0, #FFDA44)"/>
<path id="Vector_5" d="M13.1256 4.43123L12.3459 4.59694L11.9474 3.90661L11.864 4.69931L11.0843 4.86516L11.8125 5.18939L11.7292 5.98205L12.2626 5.38978L12.9908 5.71397L12.5922 5.02359L13.1256 4.43123Z" fill="var(--fill-0, #FFDA44)"/>
</g>
</svg>
