<svg preserveAspectRatio="none" width="100%" height="100%" overflow="visible" style="display: block;" viewBox="0 0 24 24" fill="none" xmlns="http://www.w3.org/2000/svg">
<g id="Group">
<path id="Vector" d="M20.2747 3.42862C18.1103 1.308 15.147 0 11.8776 0C10.8341 0 7.78097 1.308 5.6167 3.42862H20.2747Z" fill="var(--fill-0, #6DA544)"/>
<path id="Vector_2" d="M11.8776 10.2857H23.7551C23.582 9.07519 23.2284 7.923 22.7221 6.85716H11.3558L11.8776 10.2857Z" fill="var(--fill-0, #6DA544)"/>
<path id="Vector_3" d="M1.03308 17.1429H22.722C23.2284 16.0771 23.582 14.9248 23.7551 13.7143H0C0.173203 14.9249 0.526687 16.0771 1.03308 17.1429V17.1429Z" fill="var(--fill-0, #6DA544)"/>
<path id="Vector_4" d="M3.48047 20.5714C5.64483 22.692 8.60817 24 11.8776 24C15.147 24 18.1103 22.692 20.2747 20.5714H3.48047Z" fill="var(--fill-0, #6DA544)"/>
</g>
</svg>
