<svg preserveAspectRatio="none" width="100%" height="100%" overflow="visible" style="display: block;" viewBox="0 0 20 20" fill="none" xmlns="http://www.w3.org/2000/svg">
<path id="Vector" d="M19.0404 16.8269L11.7338 9.52026L11.7338 9.52022L19.0404 2.21353C18.7253 1.80403 18.3806 1.41009 18.0055 1.03491C17.6304 0.659813 17.2365 0.315047 16.8269 0L9.52026 7.30664H9.52022L2.21358 0C1.80408 0.315094 1.41009 0.659766 1.03491 1.03491C0.659813 1.41009 0.315047 1.80403 0 2.21358L7.30664 9.52017L7.30669 9.52022L4.68492e-05 16.8269C0.315141 17.2364 0.659859 17.6303 1.03495 18.0055C1.41009 18.3806 1.80408 18.7254 2.21362 19.0404L9.52022 11.7338L16.8269 19.0404C17.2364 18.7253 17.6303 18.3806 18.0055 18.0055C18.3807 17.6303 18.7253 17.2364 19.0404 16.8269V16.8269Z" fill="var(--fill-0, #496E2D)"/>
</svg>
