<svg preserveAspectRatio="none" width="100%" height="100%" overflow="visible" style="display: block;" viewBox="0 0 24 24" fill="none" xmlns="http://www.w3.org/2000/svg">
<g id="Group">
<path id="Vector" d="M23.7944 10.332C23.4633 7.80136 22.3266 5.35608 20.3825 3.41194C18.4383 1.4678 15.993 0.331031 13.4624 0L13.4625 10.332H23.7944Z" fill="var(--fill-0, #0052B4)"/>
<path id="Vector_2" d="M10.332 3.72529e-09C7.80136 0.331031 5.35603 1.46775 3.41189 3.41189C1.4678 5.35608 0.331031 7.80141 3.72529e-09 10.332L10.332 10.332L10.332 3.72529e-09Z" fill="var(--fill-0, #0052B4)"/>
<path id="Vector_3" d="M0 13.4625C0.331031 15.993 1.4678 18.4384 3.41189 20.3825C5.35603 22.3266 7.80131 23.4633 10.332 23.7945L10.332 13.4625L0 13.4625Z" fill="var(--fill-0, #0052B4)"/>
<path id="Vector_4" d="M13.4625 23.7944C15.993 23.4633 18.4383 22.3266 20.3825 20.3825C22.3266 18.4383 23.4633 15.993 23.7944 13.4625H13.4625V23.7944Z" fill="var(--fill-0, #0052B4)"/>
</g>
</svg>
