<svg preserveAspectRatio="none" width="100%" height="100%" overflow="visible" style="display: block;" viewBox="0 0 15 14" fill="none" xmlns="http://www.w3.org/2000/svg">
<path id="Vector" d="M9.99833 12.665V11.3317C9.99833 10.6244 9.71738 9.94615 9.21729 9.44605C8.71719 8.94595 8.03891 8.665 7.33167 8.665H3.33167C2.62442 8.665 1.94615 8.94595 1.44605 9.44605C0.945952 9.94615 0.665 10.6244 0.665 11.3317V12.665M11.9983 3.99833V7.99833M13.9983 5.99833H9.99833M7.99833 3.33167C7.99833 4.80443 6.80443 5.99833 5.33167 5.99833C3.85891 5.99833 2.665 4.80443 2.665 3.33167C2.665 1.85891 3.85891 0.665 5.33167 0.665C6.80443 0.665 7.99833 1.85891 7.99833 3.33167Z" stroke="var(--stroke-0, #FAFAFA)" stroke-width="1.33" stroke-linecap="round" stroke-linejoin="round"/>
</svg>
