<svg preserveAspectRatio="none" width="100%" height="100%" overflow="visible" style="display: block;" viewBox="0 0 24 24" fill="none" xmlns="http://www.w3.org/2000/svg">
<g id="Group">
<path id="Vector" d="M21.9842 13.4361C20.9842 13.4361 20.9842 12.5218 19.9842 12.5218C18.9842 12.5218 18.9842 13.4361 17.9843 13.4361C16.9844 13.4361 16.9843 12.5218 15.9844 12.5218C14.9844 12.5218 14.9844 13.4361 13.9844 13.4361C12.9843 13.4361 12.9843 12.5218 11.9842 12.5218C10.9842 12.5218 10.9842 13.4361 9.98428 13.4361C8.98444 13.4361 8.98444 12.5218 7.98445 12.5218C6.98438 12.5218 6.98438 13.4361 5.9843 13.4361C4.98422 13.4361 4.98422 12.5218 3.98414 12.5218C2.9843 12.5218 2.9843 13.4361 1.98431 13.4361C0.989719 13.4361 0.983953 12.5318 0 12.5222C0.0277031 13.071 0.0932344 13.61 0.192328 14.137C0.989391 14.254 1.05919 15.036 1.98441 15.036C2.98439 15.036 2.98439 14.1218 3.98423 14.1218C4.98431 14.1218 4.98431 15.036 5.98439 15.036C6.98447 15.036 6.98447 14.1218 7.98455 14.1218C8.98453 14.1218 8.98453 15.036 9.98438 15.036C10.9844 15.036 10.9844 14.1218 11.9843 14.1218C12.9844 14.1218 12.9844 15.036 13.9845 15.036C14.9845 15.036 14.9845 14.1218 15.9845 14.1218C16.9845 14.1218 16.9845 15.036 17.9844 15.036C18.9844 15.036 18.9844 14.1218 19.9843 14.1218C20.9844 14.1218 20.9844 15.036 21.9843 15.036C22.9096 15.036 22.9794 14.2541 23.7765 14.137C23.8756 13.6099 23.9411 13.0711 23.9689 12.5222C22.9847 12.5319 22.9789 13.4361 21.9842 13.4361V13.4361Z" fill="var(--fill-0, #0052B4)"/>
<path id="Vector_2" d="M19.9842 15.6522C18.9842 15.6522 18.9842 16.5665 17.9843 16.5665C16.9844 16.5665 16.9843 15.6522 15.9844 15.6522C14.9844 15.6522 14.9844 16.5665 13.9844 16.5665C12.9843 16.5665 12.9843 15.6522 11.9842 15.6522C10.9842 15.6522 10.9842 16.5665 9.98428 16.5665C8.98444 16.5665 8.98444 15.6522 7.98445 15.6522C6.98438 15.6522 6.98437 16.5665 5.9843 16.5665C4.98422 16.5665 4.98422 15.6522 3.98414 15.6522C2.9843 15.6522 2.9843 16.5665 1.98431 16.5665C1.24767 16.5665 1.05319 16.0707 0.602109 15.8095C0.875297 16.626 1.23412 17.4031 1.66748 18.1308C1.76133 18.1535 1.86567 18.1665 1.98427 18.1665C2.98425 18.1665 2.98425 17.2523 3.98409 17.2523C4.98417 17.2523 4.98417 18.1665 5.98425 18.1665C6.98433 18.1665 6.98433 17.2523 7.98441 17.2523C8.98439 17.2523 8.98439 18.1665 9.98423 18.1665C10.9842 18.1665 10.9842 17.2523 11.9842 17.2523C12.9842 17.2523 12.9842 18.1665 13.9843 18.1665C14.9844 18.1665 14.9844 17.2523 15.9843 17.2523C16.9843 17.2523 16.9843 18.1665 17.9843 18.1665C18.9842 18.1665 18.9842 17.2523 19.9842 17.2523C20.9842 17.2523 20.9843 18.1665 21.9842 18.1665C22.1029 18.1665 22.2073 18.1535 22.3012 18.1308C22.7346 17.4031 23.0934 16.626 23.3665 15.8095C22.9155 16.0707 22.7209 16.5666 21.9842 16.5666C20.9843 16.5665 20.9843 15.6522 19.9842 15.6522V15.6522Z" fill="var(--fill-0, #0052B4)"/>
<path id="Vector_3" d="M23.7052 9.41911C22.9742 9.57084 22.881 10.3057 21.9842 10.3057C20.9842 10.3057 20.9842 9.39131 19.9842 9.39131C18.9842 9.39131 18.9842 10.3057 17.9843 10.3057C16.9844 10.3057 16.9843 9.39131 15.9844 9.39131C14.9844 9.39131 14.9844 10.3057 13.9844 10.3057C12.9843 10.3057 12.9843 9.39131 11.9842 9.39131C11.4439 9.39131 11.1954 9.65822 10.9235 9.90366V11.5036C11.1954 11.2582 11.4438 10.9914 11.9842 10.9914C12.9843 10.9914 12.9843 11.9056 13.9844 11.9056C14.9844 11.9056 14.9844 10.9914 15.9844 10.9914C16.9844 10.9914 16.9844 11.9056 17.9843 11.9056C18.9842 11.9056 18.9843 10.9914 19.9842 10.9914C20.9843 10.9914 20.9843 11.9056 21.9842 11.9056C22.9095 11.9056 22.9793 11.1237 23.7764 11.0066C23.8275 11.0066 23.8846 11.0061 23.943 11.0054C23.8987 10.4657 23.8186 9.93619 23.7052 9.41911V9.41911Z" fill="var(--fill-0, #0052B4)"/>
<path id="Vector_4" d="M22.8286 6.85659C22.6214 7.03064 22.3819 7.1752 21.9843 7.1752C20.9843 7.1752 20.9843 6.26086 19.9843 6.26086C18.9843 6.26086 18.9843 7.1752 17.9843 7.1752C16.9844 7.1752 16.9844 6.26086 15.9844 6.26086C14.9844 6.26086 14.9844 7.1752 13.9844 7.1752C12.9844 7.1752 12.9843 6.26086 11.9843 6.26086C11.4439 6.26086 11.1955 6.52777 10.9236 6.7732V8.37319C11.1955 8.1278 11.4439 7.86094 11.9843 7.86094C12.9843 7.86094 12.9843 8.77519 13.9844 8.77519C14.9844 8.77519 14.9844 7.86094 15.9844 7.86094C16.9844 7.86094 16.9844 8.77519 17.9843 8.77519C18.9842 8.77519 18.9842 7.86094 19.9842 7.86094C20.9843 7.86094 20.9843 8.77519 21.9842 8.77519C22.6938 8.77519 22.9005 8.31558 23.3176 8.0483C23.1755 7.64063 23.0122 7.24289 22.8286 6.85659V6.85659Z" fill="var(--fill-0, #0052B4)"/>
<path id="Vector_5" d="M20.0696 3.13289C20.0419 3.13139 20.0136 3.13045 19.9842 3.13045C18.9842 3.13045 18.9842 4.0448 17.9843 4.0448C16.9843 4.0448 16.9843 3.13045 15.9844 3.13045C14.9844 3.13045 14.9844 4.0448 13.9843 4.0448C12.9842 4.0448 12.9842 3.13045 11.9842 3.13045C11.4438 3.13045 11.1954 3.39736 10.9235 3.6428V5.24278C11.1954 4.99739 11.4438 4.73053 11.9842 4.73053C12.9842 4.73053 12.9842 5.64478 13.9843 5.64478C14.9844 5.64478 14.9844 4.73053 15.9843 4.73053C16.9843 4.73053 16.9843 5.64478 17.9843 5.64478C18.9842 5.64478 18.9842 4.73053 19.9842 4.73053C20.9842 4.73053 20.9843 5.64478 21.9842 5.64478C22.0458 5.64478 22.1033 5.64113 22.1578 5.63461C21.5769 4.70817 20.8736 3.86644 20.0696 3.13289V3.13289Z" fill="var(--fill-0, #0052B4)"/>
<path id="Vector_6" d="M11.9842 0H11.984H11.9843H11.9842Z" fill="var(--fill-0, #0052B4)"/>
<path id="Vector_7" d="M15.0515 0.396281C14.777 0.643219 14.529 0.914437 13.9843 0.914437C12.9842 0.914437 12.9842 0.0001875 11.9842 9.375e-05H11.984C11.4669 0.000140625 11.2172 0.244687 10.9583 0.480891V2.08092C11.2172 1.84472 11.4669 1.60013 11.9842 1.60013C12.9843 1.60013 12.9843 2.51438 13.9844 2.51438C14.9844 2.51438 14.9844 1.60013 15.9844 1.60013C16.9844 1.60013 16.9844 2.51438 17.9843 2.51438C18.4039 2.51438 18.6473 2.35331 18.8625 2.16647C17.7218 1.36702 16.4356 0.761109 15.0515 0.396281V0.396281Z" fill="var(--fill-0, #0052B4)"/>
<path id="Vector_8" d="M13.9843 22.8274C12.9842 22.8274 12.9842 21.913 11.9842 21.913C10.9842 21.913 10.9842 22.8274 9.98424 22.8274C8.98439 22.8274 8.98439 21.913 7.98441 21.913C7.21842 21.913 7.03875 22.449 6.5475 22.7002C7.90219 23.3899 9.40533 23.8295 10.9963 23.9592C11.2423 23.7344 11.4923 23.5131 11.9842 23.5131C12.4762 23.5131 12.7261 23.7344 12.9722 23.9593C14.5632 23.8296 16.0665 23.3899 17.4212 22.7002C16.9298 22.4491 16.7502 21.913 15.9843 21.913C14.9844 21.913 14.9844 22.8274 13.9843 22.8274V22.8274Z" fill="var(--fill-0, #0052B4)"/>
<path id="Vector_9" d="M17.9843 19.697C16.9843 19.697 16.9843 18.7826 15.9844 18.7826C14.9844 18.7826 14.9844 19.697 13.9844 19.697C12.9843 19.697 12.9843 18.7826 11.9842 18.7826C10.9842 18.7826 10.9842 19.697 9.98428 19.697C8.98444 19.697 8.98444 18.7826 7.98445 18.7826C6.98438 18.7826 6.98438 19.697 5.9843 19.697C4.98422 19.697 4.98422 18.7826 3.98414 18.7826C3.26503 18.7826 3.06309 19.2556 2.63442 19.5211C2.90311 19.8548 3.18877 20.1742 3.49106 20.477C3.62648 20.4192 3.78539 20.3827 3.98409 20.3827C4.98417 20.3827 4.98417 21.2969 5.98425 21.2969C6.98433 21.2969 6.98433 20.3827 7.98441 20.3827C8.98439 20.3827 8.98439 21.2969 9.98424 21.2969C10.9842 21.2969 10.9842 20.3827 11.9842 20.3827C12.9842 20.3827 12.9842 21.2969 13.9843 21.2969C14.9844 21.2969 14.9844 20.3827 15.9843 20.3827C16.9843 20.3827 16.9843 21.2969 17.9843 21.2969C18.9842 21.2969 18.9842 20.3827 19.9842 20.3827C20.1831 20.3827 20.342 20.4192 20.4775 20.4771C20.7799 20.1742 21.0655 19.8548 21.3342 19.5212C20.9055 19.2557 20.7036 18.7827 19.9842 18.7827C18.9842 18.7826 18.9842 19.697 17.9843 19.697V19.697Z" fill="var(--fill-0, #0052B4)"/>
</g>
</svg>
