<svg preserveAspectRatio="none" width="100%" height="100%" overflow="visible" style="display: block;" viewBox="0 0 14 12" fill="none" xmlns="http://www.w3.org/2000/svg">
<g id="Group">
<path id="Vector" d="M8.5598 2.03803C8.5598 0.912469 7.64733 0 6.52172 0C5.39611 0 4.48364 0.912469 4.48364 2.03803H0C0 3.1462 0.965343 4.04466 2.07352 4.04466H2.00677C2.00677 5.15292 2.90508 6.05142 4.01344 6.05142C4.01344 7.03266 4.71816 7.848 5.64886 8.02228L5.64366 8.034H7.39983L7.39463 8.02228C8.32538 7.84791 9.03005 7.03261 9.03005 6.05142C10.1384 6.05142 11.0367 5.15292 11.0367 4.04466H10.9699C12.078 4.04466 13.0434 3.1462 13.0434 2.03803H8.5598Z" fill="var(--fill-0, #FFDA44)"/>
<path id="Vector_2" d="M5.6258 7.82606L4.36214 10.679C5.02889 10.95 5.75766 11.1007 6.52177 11.1007C7.28588 11.1007 8.01464 10.9501 8.68134 10.679L7.41773 7.82606H5.6258Z" fill="var(--fill-0, #FFDA44)"/>
</g>
</svg>
