<svg preserveAspectRatio="none" width="100%" height="100%" overflow="visible" style="display: block;" viewBox="0 0 16 16" fill="none" xmlns="http://www.w3.org/2000/svg">
<path id="Vector" d="M7.15379 15.1119C6.83031 15.0963 6.56265 14.886 6.45779 14.6006C6.27259 14.8422 5.95431 14.9637 5.64076 14.8829C5.32665 14.802 5.10704 14.5422 5.06162 14.2406C4.831 14.4399 4.495 14.4941 4.20442 14.3517C3.91328 14.2088 3.75053 13.9098 3.76721 13.6056C3.50167 13.7548 3.1615 13.7402 2.90532 13.5419C2.64967 13.3436 2.55001 13.0186 2.62721 12.7238C2.33711 12.8167 2.00739 12.7343 1.79607 12.4885C1.58476 12.2433 1.55237 11.9047 1.68704 11.6318C1.38442 11.6641 1.07767 11.517 0.920074 11.2343C0.761964 10.9515 0.798527 10.6129 0.985792 10.3723C0.682652 10.3431 0.411339 10.137 0.314308 9.82812C0.216761 9.51926 0.321105 9.19474 0.553277 8.99698C0.262136 8.90717 0.0388235 8.65048 0.00596415 8.32864C-0.0268952 8.00674 0.140073 7.71092 0.406651 7.56378C0.140026 7.41767 -0.0279733 7.12188 0.00385486 6.80046H0.0043702C0.0361983 6.47801 0.259511 6.22085 0.550089 6.13001C0.317917 5.93281 0.212542 5.60881 0.309058 5.2999C0.405573 4.99053 0.676323 4.7839 0.979511 4.75362C0.792198 4.51362 0.754652 4.17495 0.911683 3.89173C1.06871 3.60893 1.37551 3.46128 1.67865 3.4931C1.543 3.22024 1.57482 2.88162 1.78562 2.63538C1.9959 2.38967 2.32562 2.3067 2.61625 2.39852C2.53796 2.10424 2.6371 1.7787 2.89276 1.57995C3.1479 1.3811 3.48807 1.36596 3.75362 1.51413C3.73642 1.21001 3.89865 0.910994 4.18928 0.76751C4.47939 0.624541 4.8159 0.677791 5.047 0.877056C5.09134 0.575556 5.311 0.314697 5.62454 0.233228C5.93757 0.151853 6.25585 0.272369 6.44157 0.5134C6.54643 0.228025 6.81357 0.0172281 7.13706 0.00105619C7.46003 -0.0155844 7.74695 0.165916 7.88054 0.438869C8.0402 0.180072 8.34385 0.0266969 8.66368 0.0752125C8.98403 0.123212 9.22979 0.358994 9.30596 0.653838C9.51465 0.431509 9.84334 0.343385 10.147 0.454994C10.4512 0.567166 10.6442 0.847853 10.6588 1.15254C10.9077 0.977275 11.2479 0.956884 11.5228 1.12802C11.7978 1.29865 11.9298 1.6122 11.8828 1.91323C12.162 1.79168 12.499 1.8402 12.7338 2.06243C12.9686 2.28523 13.0353 2.6186 12.9289 2.90398C13.2268 2.84084 13.5472 2.95563 13.7329 3.22118C13.9187 3.48621 13.9171 3.82638 13.7559 4.08467C14.0601 4.08256 14.3507 4.25998 14.4796 4.55684C14.6079 4.85421 14.5374 5.18763 14.3272 5.40832C14.6262 5.46781 14.875 5.69998 14.9408 6.01718C15.006 6.33439 14.8698 6.64587 14.6199 6.81963C14.8996 6.93813 15.0968 7.21512 15.0973 7.5386V7.54906V7.55585C15.0973 7.87929 14.9011 8.15688 14.6214 8.27637C14.8719 8.4491 15.0091 8.76054 14.9439 9.07774C14.8792 9.39495 14.6309 9.62768 14.3319 9.6882C14.5427 9.90837 14.6142 10.2412 14.4864 10.5392C14.3585 10.8365 14.0679 11.0145 13.7632 11.0129C13.9249 11.2712 13.9276 11.6113 13.7424 11.8769C13.5572 12.1425 13.2373 12.2583 12.9394 12.1957C13.0464 12.4805 12.9801 12.8145 12.7458 13.0378C12.511 13.2606 12.1745 13.3096 11.8954 13.1891C11.9429 13.4896 11.8114 13.8037 11.5369 13.9754C11.2625 14.147 10.9223 14.1272 10.6729 13.9524C10.6588 14.2571 10.4668 14.5384 10.1632 14.651C9.85961 14.7637 10.1632 14.651 10.1627 14.651C9.85904 14.7632 9.53035 14.6756 9.32115 14.4539C9.24601 14.7492 9.00081 14.9855 8.68046 15.0346C8.36064 15.0831 8.05646 14.9307 7.89629 14.6719C7.76898 14.9344 7.49978 15.1128 7.19298 15.1128C7.1799 15.113 7.16687 15.1125 7.15379 15.1119V15.1119Z" fill="var(--fill-0, #F3F3F3)"/>
</svg>
