<svg preserveAspectRatio="none" width="100%" height="100%" overflow="visible" style="display: block;" viewBox="0 0 9 9" fill="none" xmlns="http://www.w3.org/2000/svg">
<g id="Group">
<path id="Vector" d="M2.08561 3.91303C1.3598 3.91303 0.659344 4.02342 0 4.22827C0.0292031 6.50827 1.88564 8.34783 4.17258 8.34783C5.5867 8.34783 6.83564 7.64391 7.59066 6.56808C6.29892 4.95103 4.31137 3.91303 2.08561 3.91303V3.91303Z" fill="var(--fill-0, #0052B4)"/>
<path id="Vector_2" d="M8.26913 4.97358C8.31938 4.71464 8.34652 4.4475 8.34652 4.17389C8.34652 1.86867 6.4778 0 4.17263 0C2.45259 0 0.976031 1.04067 0.337031 2.52652C0.901875 2.40947 1.48669 2.34783 2.0857 2.34783C4.50994 2.34778 6.70303 3.3555 8.26913 4.97358V4.97358Z" fill="var(--fill-0, #0052B4)"/>
</g>
</svg>
