<svg preserveAspectRatio="none" width="100%" height="100%" overflow="visible" style="display: block;" viewBox="0 0 12 12" fill="none" xmlns="http://www.w3.org/2000/svg">
<g id="Group">
<path id="Vector" d="M6.96144 3.23853C6.68872 4.37286 6.20417 4.15653 5.96638 5.14578C4.56561 4.80898 3.70292 3.40039 4.03972 1.99953C4.37638 0.598761 5.78511 -0.263926 7.18592 0.0728711C6.71028 2.05132 7.20542 2.22401 6.96144 3.23853Z" fill="var(--fill-0, #F0F0F0)"/>
<path id="Vector_2" d="M3.32661 4.07909C4.32116 4.68893 3.96566 5.08301 4.83294 5.6149C4.07975 6.84307 2.47358 7.22815 1.24536 6.47501C0.0171885 5.72187 -0.367984 4.1156 0.385204 2.88743C2.11986 3.95112 2.43697 3.53361 3.32661 4.07909V4.07909Z" fill="var(--fill-0, #F0F0F0)"/>
<path id="Vector_3" d="M3.00275 7.7959C3.89014 7.0385 4.15494 7.49834 4.9288 6.83787C5.86419 7.93367 5.73406 9.58029 4.63831 10.5157C3.54247 11.4511 1.89584 11.3208 0.960595 10.2251C2.50813 8.90403 2.20902 8.47329 3.00275 7.7959Z" fill="var(--fill-0, #F0F0F0)"/>
<path id="Vector_4" d="M6.43756 9.25245C5.99131 8.17446 6.5105 8.06459 6.12148 7.12461C7.45269 6.57368 8.97856 7.20621 9.52953 8.53742C10.0805 9.86862 9.44783 11.3944 8.11663 11.9454C7.33864 10.0653 6.83666 10.2167 6.43756 9.25245Z" fill="var(--fill-0, #F0F0F0)"/>
<path id="Vector_5" d="M8.88425 6.43578C7.72114 6.52704 7.77697 5.99923 6.76283 6.07882C6.65019 4.64262 7.72335 3.38679 9.15964 3.27406C10.5959 3.1616 11.8517 4.23467 11.9643 5.67101C9.93566 5.83006 9.92445 6.35426 8.88425 6.43578Z" fill="var(--fill-0, #F0F0F0)"/>
</g>
</svg>
