<svg preserveAspectRatio="none" width="100%" height="100%" overflow="visible" style="display: block;" viewBox="0 0 8 6" fill="none" xmlns="http://www.w3.org/2000/svg">
<g id="Group">
<path id="Vector" d="M3.65194 2.9243C2.73895 2.9243 2.73895 3.75909 1.82597 3.75909C0.912985 3.75909 0.912984 2.9243 0 2.9243V4.38516C0.912984 4.38516 0.912985 5.21995 1.82597 5.21995C2.73895 5.21995 2.73895 4.38516 3.65194 4.38516C4.56502 4.38516 4.56502 5.21995 5.47814 5.21995C6.39127 5.21995 6.39122 4.38516 7.30434 4.38516V2.9243C6.39127 2.9243 6.39127 3.75909 5.47814 3.75909C4.56502 3.75909 4.56502 2.9243 3.65194 2.9243V2.9243Z" fill="var(--fill-0, #F3F3F3)"/>
<path id="Vector_2" d="M3.65194 0C2.73895 0 2.73895 0.834797 1.82597 0.834797C0.912985 0.834797 0.912985 0 4.76837e-07 0V1.46086C0.912985 1.46086 0.912985 2.29566 1.82597 2.29566C2.73895 2.29566 2.73895 1.46086 3.65194 1.46086C4.56502 1.46086 4.56502 2.29566 5.47814 2.29566C6.39127 2.29566 6.39122 1.46086 7.30434 1.46086V0C6.39127 0 6.39127 0.834797 5.47814 0.834797C4.56502 0.834797 4.56502 0 3.65194 0Z" fill="var(--fill-0, #F3F3F3)"/>
</g>
</svg>
