<svg preserveAspectRatio="none" width="100%" height="100%" overflow="visible" style="display: block;" viewBox="0 0 10 7" fill="none" xmlns="http://www.w3.org/2000/svg">
<path id="Vector" d="M6.78253 3.50306C6.48797 3.50306 6.20831 3.5618 5.94862 3.65527C6.09089 3.3382 6.18628 2.98542 6.18628 2.60869C6.18628 1.11802 4.69561 0 4.69561 0C4.69561 0 3.20494 1.11802 3.20494 2.60869C3.20494 2.98537 3.30033 3.3382 3.44259 3.65527C3.18286 3.56189 2.9032 3.50306 2.60869 3.50306C1.11802 3.50306 0 4.99373 0 4.99373C0 4.99373 1.11802 6.48445 2.60869 6.48445C3.48267 6.48445 4.22808 5.9722 4.69566 5.54817C5.16323 5.97216 5.90864 6.48445 6.78262 6.48445C8.2733 6.48445 9.39131 4.99373 9.39131 4.99373C9.39131 4.99373 8.2732 3.50306 6.78253 3.50306V3.50306Z" fill="var(--fill-0, #F0F0F0)"/>
</svg>
