<svg preserveAspectRatio="none" width="100%" height="100%" overflow="visible" style="display: block;" viewBox="0 0 24 24" fill="none" xmlns="http://www.w3.org/2000/svg">
<g id="Group">
<path id="Vector" d="M12 24C15.6371 24 18.896 22.3817 21.0966 19.8261H2.90339C5.10403 22.3817 8.36292 24 12 24Z" fill="var(--fill-0, #338AF3)"/>
<path id="Vector_2" d="M24 12C24 5.37262 18.6274 0 12 0C5.37262 0 0 5.37262 0 12C0 13.0831 0.144375 14.1323 0.413391 15.1305H23.5867C23.8556 14.1323 24 13.0831 24 12Z" fill="var(--fill-0, #338AF3)"/>
<path id="Vector_3" d="M0.953859 16.6957C1.18519 17.2392 1.45561 17.762 1.76128 18.2609H22.2387C22.5444 17.7619 22.8148 17.2392 23.0462 16.6957H0.953859Z" fill="var(--fill-0, #338AF3)"/>
</g>
</svg>
