<svg preserveAspectRatio="none" width="100%" height="100%" overflow="visible" style="display: block;" viewBox="0 0 18 15" fill="none" xmlns="http://www.w3.org/2000/svg">
<g id="Group">
<path id="Vector" d="M2.67577 8.86959L3.33436 10.2467L4.82156 9.90295L4.15556 11.2765L5.35153 12.2249L3.86245 12.5605L3.86663 14.087L2.67577 13.132L1.48495 14.087L1.48913 12.5605L2.38419e-07 12.2249L1.19602 11.2765L0.529922 9.90295L2.01722 10.2467L2.67577 8.86959Z" fill="var(--fill-0, #F0F0F0)"/>
<path id="Vector_2" d="M13.4049 11.4783L13.7342 12.1668L14.4779 11.9949L14.1448 12.6817L14.7428 13.1559L13.9983 13.3238L14.0003 14.087L13.4049 13.6095L12.8095 14.087L12.8116 13.3238L12.0671 13.1559L12.6651 12.6817L12.3321 11.9949L13.0756 12.1668L13.4049 11.4783Z" fill="var(--fill-0, #F0F0F0)"/>
<path id="Vector_3" d="M10.3416 4.17394L10.6709 4.86253L11.4145 4.69059L11.0815 5.37736L11.6795 5.85159L10.935 6.01941L10.937 6.78262L10.3416 6.30511L9.7462 6.78262L9.74822 6.01941L9.0037 5.85159L9.60169 5.37736L9.26869 4.69059L10.0123 4.86253L10.3416 4.17394Z" fill="var(--fill-0, #F0F0F0)"/>
<path id="Vector_4" d="M13.4049 2.38419e-07L13.7342 0.688594L14.4779 0.516703L14.1449 1.20347L14.7428 1.67766L13.9983 1.84552L14.0003 2.60873L13.4049 2.13122L12.8095 2.60873L12.8116 1.84552L12.0671 1.67766L12.665 1.20347L12.3321 0.516703L13.0756 0.688594L13.4049 2.38419e-07Z" fill="var(--fill-0, #F0F0F0)"/>
<path id="Vector_5" d="M16.0807 3.13045L16.41 3.81905L17.1536 3.64711L16.8206 4.33387L17.4186 4.80811L16.674 4.97597L16.6761 5.73914L16.0807 5.26167L15.4853 5.73914L15.4874 4.97597L14.7428 4.80811L15.3408 4.33387L15.0078 3.64711L15.7514 3.81905L16.0807 3.13045Z" fill="var(--fill-0, #F0F0F0)"/>
<path id="Vector_6" d="M14.1674 6.78263L14.4264 7.57978H15.2646L14.5865 8.07248L14.8455 8.86959L14.1674 8.37694L13.4893 8.86959L13.7483 8.07248L13.0702 7.57978H13.9084L14.1674 6.78263Z" fill="var(--fill-0, #F0F0F0)"/>
</g>
</svg>
