<svg preserveAspectRatio="none" width="100%" height="100%" overflow="visible" style="display: block;" viewBox="0 0 8 7" fill="none" xmlns="http://www.w3.org/2000/svg">
<g id="Group">
<path id="Vector" d="M3.65217 4.76837e-07L4.104 0.782625H5.0077L4.55583 1.5652L5.0077 2.34783H4.104L3.65217 3.13045L3.20034 2.34783H2.29669L2.74852 1.5652L2.29669 0.782625H3.20034L3.65217 4.76837e-07Z" fill="var(--fill-0, #D80027)"/>
<path id="Vector_2" d="M1.35553 3.65217L1.80736 4.4348H2.71102L2.25919 5.21737L2.71102 6H1.80736L1.35553 6.78262L0.903657 6H4.76837e-07L0.451828 5.21737L4.76837e-07 4.4348H0.903657L1.35553 3.65217Z" fill="var(--fill-0, #D80027)"/>
<path id="Vector_3" d="M5.94886 3.65217L6.40069 4.4348H7.30434L6.85252 5.21737L7.30434 6H6.40069L5.94886 6.78262L5.49698 6H4.59333L5.04516 5.21737L4.59333 4.4348H5.49698L5.94886 3.65217Z" fill="var(--fill-0, #D80027)"/>
</g>
</svg>
