<svg preserveAspectRatio="none" width="100%" height="100%" overflow="visible" style="display: block;" viewBox="0 0 10 9" fill="none" xmlns="http://www.w3.org/2000/svg">
<g id="Group">
<path id="Vector" d="M7.21761 6.15834C5.69947 7.25527 3.5795 6.91383 2.48263 5.39573C1.38566 3.87755 1.72714 1.75762 3.24528 0.660749C3.71862 0.318749 4.25047 0.116578 4.79155 0.0463125C3.75059 -0.109359 2.6502 0.125203 1.72972 0.790312C-0.138719 2.14041 -0.559047 4.74952 0.791 6.61805C2.14105 8.48644 4.7502 8.90681 6.61873 7.55662C7.53931 6.89152 8.10748 5.92059 8.28645 4.8833C8.04992 5.37483 7.691 5.8163 7.21761 6.15834V6.15834Z" fill="var(--fill-0, #F0F0F0)"/>
<path id="Vector_2" d="M7.15259 0L8.00778 0.921609L9.14853 0.393235L8.5362 1.49123L9.39134 2.41294L8.15778 2.16989L7.5455 3.26798L7.39545 2.0197L6.16189 1.77666L7.30269 1.24828L7.15259 0Z" fill="var(--fill-0, #F0F0F0)"/>
</g>
</svg>
