<svg preserveAspectRatio="none" width="100%" height="100%" overflow="visible" style="display: block;" viewBox="0 0 24 21" fill="none" xmlns="http://www.w3.org/2000/svg">
<g id="Group">
<path id="Vector" d="M24 8.08256C24 4.96903 22.8142 2.13272 20.8695 0V16.1652C22.8142 14.0324 24 11.1961 24 8.08256Z" fill="var(--fill-0, #0052B4)"/>
<path id="Vector_2" d="M14.9901 18.6704L16.2471 18.6696L16.6348 17.4738L17.024 18.6691L17.6544 18.6687C18.041 18.4618 18.4149 18.2343 18.7747 17.9877L2.0948 1.30777C1.81992 1.70883 1.56923 2.12761 1.34381 2.56167L1.49203 3.01692L2.74898 3.01612L1.73255 3.75558L2.1217 4.95084L1.10433 4.21266L0.497531 4.65403C0.174047 5.74041 0 6.89114 0 8.08256C0 14.7099 5.37262 20.0826 12 20.0826C13.4012 20.0826 14.7461 19.842 15.9961 19.4004L14.9901 18.6704ZM2.67652 7.56084L3.06417 6.36516L2.04689 5.62687L3.30384 5.62608L3.69155 4.43034L4.0807 5.62561L5.33766 5.62481L4.32117 6.36427L4.71033 7.55953L3.69295 6.82134L2.67652 7.56084ZM5.26519 10.1695L5.65284 8.97384L4.63556 8.23556L5.89252 8.23477L6.28022 7.03903L6.66937 8.2343L7.92633 8.2335L6.90989 8.97295L7.29905 10.1682L6.28167 9.43003L5.26519 10.1695ZM7.85381 12.7782L8.24147 11.5825L7.22419 10.8442L8.48114 10.8435L8.86884 9.64772L9.258 10.843L10.515 10.8422L9.49851 11.5816L9.88767 12.7769L8.8703 12.0386L7.85381 12.7782ZM11.4589 14.6475L10.4424 15.3869L10.8301 14.1912L9.81281 13.4529L11.0698 13.4521L11.4575 12.2564L11.8467 13.4517L13.1036 13.4509L12.0872 14.1903L12.4763 15.3856L11.4589 14.6475ZM13.0311 17.9956L13.4188 16.7999L12.4015 16.0616L13.6584 16.0608L14.0461 14.8651L14.4353 16.0604L15.6922 16.0596L14.6758 16.799L15.065 17.9943L14.0476 17.256L13.0311 17.9956Z" fill="var(--fill-0, #0052B4)"/>
</g>
</svg>
