<svg preserveAspectRatio="none" width="100%" height="100%" overflow="visible" style="display: block;" viewBox="0 0 9 10" fill="none" xmlns="http://www.w3.org/2000/svg">
<g id="Group">
<path id="Vector" d="M0 0H1.5652V1.5652H0V0Z" fill="var(--fill-0, #D80027)"/>
<path id="Vector_2" d="M6.78258 4.76837e-07H8.34778V1.5652H6.78258V4.76837e-07Z" fill="var(--fill-0, #D80027)"/>
<path id="Vector_3" d="M6.78258 3.39131H8.34778V4.95652H6.78258V3.39131Z" fill="var(--fill-0, #D80027)"/>
<path id="Vector_4" d="M0 3.39131H1.5652V4.95652H0V3.39131Z" fill="var(--fill-0, #D80027)"/>
<path id="Vector_5" d="M3.39127 4.76837e-07H4.95647V1.5652H3.39127V4.76837e-07Z" fill="var(--fill-0, #D80027)"/>
<path id="Vector_6" d="M4.17389 8.34783C3.90127 8.34783 3.63844 8.30564 3.39127 8.22773V9.83841C3.64495 9.88678 3.90633 9.91308 4.17389 9.91308C4.44145 9.91308 4.70283 9.88678 4.95652 9.83841V8.22773C4.70934 8.30559 4.44652 8.34783 4.17389 8.34783Z" fill="var(--fill-0, #D80027)"/>
<path id="Vector_7" d="M1.60008 6.16261L0.350953 7.41174C0.567516 7.90481 0.876515 8.3482 1.2563 8.71992L2.36255 7.61367C1.96777 7.23225 1.69275 6.72788 1.60008 6.16261Z" fill="var(--fill-0, #D80027)"/>
<path id="Vector_8" d="M7.99683 7.41183L6.7477 6.1627C6.65498 6.72792 6.38002 7.23225 5.98528 7.61381L7.09153 8.72006C7.47122 8.3483 7.78027 7.90491 7.99683 7.41183Z" fill="var(--fill-0, #D80027)"/>
</g>
</svg>
