<svg preserveAspectRatio="none" width="100%" height="100%" overflow="visible" style="display: block;" viewBox="0 0 8 8" fill="none" xmlns="http://www.w3.org/2000/svg">
<g id="Group">
<path id="Vector" d="M4.79348 6.6195C3.15464 6.6195 1.82611 5.29092 1.82611 3.65213C1.82611 2.01333 3.15469 0.68475 4.79348 0.68475C5.30447 0.68475 5.78527 0.813984 6.20503 1.04142C5.54653 0.3975 4.64597 0 3.65217 0C1.63519 0 0 1.63514 0 3.65217C0 5.6692 1.63519 7.30434 3.65217 7.30434C4.64597 7.30434 5.54653 6.90684 6.20503 6.26292C5.78527 6.49027 5.30452 6.6195 4.79348 6.6195V6.6195Z" fill="var(--fill-0, #FFDA44)"/>
<path id="Vector_2" d="M5.62969 1.56516L6.15652 2.66681L7.34625 2.39194L6.81347 3.49064L7.77028 4.24941L6.579 4.51795L6.58233 5.73909L5.62969 4.97513L4.677 5.73909L4.68028 4.51795L3.489 4.24941L4.44581 3.49064L3.91298 2.39194L5.10281 2.66681L5.62969 1.56516Z" fill="var(--fill-0, #FFDA44)"/>
</g>
</svg>
