<svg preserveAspectRatio="none" width="100%" height="100%" overflow="visible" style="display: block;" viewBox="0 0 7 7" fill="none" xmlns="http://www.w3.org/2000/svg">
<g id="Group">
<path id="Vector" d="M1.0972 2.1182e-07L1.35628 0.797202H2.19445L1.51636 1.28981L1.77534 2.08701L1.0972 1.59431L0.419061 2.08701L0.678139 1.28981L4.05766e-08 0.797202H0.838217L1.0972 2.1182e-07Z" fill="var(--fill-0, #F0F0F0)"/>
<path id="Vector_2" d="M5.37871 0L5.63779 0.797201H6.47591L5.79782 1.28981L6.05685 2.08701L5.37871 1.59431L4.70057 2.08701L4.95965 1.28981L4.28151 0.797201H5.11968L5.37871 0Z" fill="var(--fill-0, #F0F0F0)"/>
<path id="Vector_3" d="M1.0972 4.17407L1.35628 4.97127H2.19445L1.51636 5.46393L1.77534 6.26113L1.0972 5.76843L0.419061 6.26113L0.678139 5.46393L0 4.97127H0.838217L1.0972 4.17407Z" fill="var(--fill-0, #F0F0F0)"/>
<path id="Vector_4" d="M5.37871 4.17407L5.63779 4.97127H6.47591L5.79782 5.46393L6.05685 6.26113L5.37871 5.76843L4.70057 6.26113L4.95965 5.46393L4.28151 4.97127H5.11968L5.37871 4.17407Z" fill="var(--fill-0, #F0F0F0)"/>
<path id="Vector_5" d="M3.23798 2.08701L3.49706 2.88421H4.33518L3.65709 3.37687L3.91612 4.17407L3.23798 3.68137L2.55984 4.17407L2.81887 3.37687L2.14073 2.88421H2.97895L3.23798 2.08701Z" fill="var(--fill-0, #F0F0F0)"/>
</g>
</svg>
