<svg preserveAspectRatio="none" width="100%" height="100%" overflow="visible" style="display: block;" viewBox="0 0 18 8" fill="none" xmlns="http://www.w3.org/2000/svg">
<g id="Group">
<path id="Vector" d="M17.5656 6.00774L16.9318 6.50302L17.2069 7.25869L16.54 6.80902L15.9061 7.3042L16.1278 6.531L15.461 6.08119L16.2648 6.05316L16.4866 5.27995L16.7618 6.03577L17.5656 6.00774Z" fill="var(--fill-0, #F0F0F0)"/>
<path id="Vector_2" d="M15.9425 3.19664L15.5164 3.87881L16.0335 4.49484L15.2529 4.3005L14.8267 4.98248L14.7705 4.18013L13.99 3.98545L14.7359 3.68409L14.6798 2.88169L15.1968 3.49795L15.9425 3.19664Z" fill="var(--fill-0, #F0F0F0)"/>
<path id="Vector_3" d="M13.4559 1.11009L13.2888 1.89689L13.9853 2.29908L13.1854 2.38341L13.0182 3.16997L12.691 2.43525L11.891 2.5192L12.4888 1.98098L12.1617 1.24627L12.8582 1.64836L13.4559 1.11009Z" fill="var(--fill-0, #F0F0F0)"/>
<path id="Vector_4" d="M10.4057 4.76837e-07L10.5178 0.796547L11.3098 0.936141L10.5869 1.28892L10.6989 2.08542L10.1401 1.5068L9.41705 1.85939L9.79476 1.14909L9.23597 0.570563L10.0282 0.710204L10.4057 4.76837e-07Z" fill="var(--fill-0, #F0F0F0)"/>
<path id="Vector_5" d="M7.15983 4.76837e-07L7.5375 0.710204L8.3295 0.570469L7.77089 1.14923L8.14838 1.85948L7.42547 1.5068L6.86662 2.08528L6.9787 1.28892L6.25575 0.936328L7.04789 0.796547L7.15983 4.76837e-07Z" fill="var(--fill-0, #F0F0F0)"/>
<path id="Vector_6" d="M4.10958 1.11009L4.70742 1.64836L5.40384 1.24627L5.0768 1.98127L5.6745 2.51939L4.87458 2.43525L4.5473 3.16997L4.38028 2.38327L3.58031 2.29927L4.27687 1.89698L4.10958 1.11009Z" fill="var(--fill-0, #F0F0F0)"/>
<path id="Vector_7" d="M1.623 3.19664L2.36892 3.49795L2.88577 2.88183L2.82984 3.68438L3.57553 3.98573L2.79511 4.18022L2.73891 4.98248L2.31281 4.3005L1.5323 4.49499L2.04933 3.87881L1.623 3.19664Z" fill="var(--fill-0, #F0F0F0)"/>
<path id="Vector_8" d="M0 6.00774L0.804 6.03577L1.07897 5.28005L1.30092 6.0533L2.10469 6.08138L1.43784 6.53119L1.65947 7.30434L1.02572 6.80916L0.358828 7.25883L0.633937 6.50302L0 6.00774Z" fill="var(--fill-0, #F0F0F0)"/>
</g>
</svg>
