<svg preserveAspectRatio="none" width="100%" height="100%" overflow="visible" style="display: block;" viewBox="0 0 14 11" fill="none" xmlns="http://www.w3.org/2000/svg">
<g id="Group">
<path id="Vector" d="M1.69566 7.56525C1.69566 8.42967 2.39644 9.13045 3.26086 9.13045H7.95651C7.95651 9.85083 8.54048 10.4348 9.26086 10.4348H10.8261C11.5464 10.4348 12.1304 9.85083 12.1304 9.13045V7.56525H1.69566Z" fill="var(--fill-0, #F0F0F0)"/>
<path id="Vector_2" d="M12.2609 4.64916e-05V3.65222C12.2609 4.22761 11.7928 4.6957 11.2174 4.6957V6.26091C12.6558 6.26091 13.8261 5.09062 13.8261 3.65222V4.64916e-05H12.2609Z" fill="var(--fill-0, #F0F0F0)"/>
<path id="Vector_3" d="M1.04348 3.65222C1.04348 4.22761 0.575391 4.6957 0 4.6957V6.26091C1.43845 6.26091 2.60869 5.09062 2.60869 3.65222V4.64916e-05H1.04348V3.65222Z" fill="var(--fill-0, #F0F0F0)"/>
<path id="Vector_4" d="M9.91303 4.64916e-05H11.4782V3.65222H9.91303V4.64916e-05Z" fill="var(--fill-0, #F0F0F0)"/>
<path id="Vector_5" d="M7.5652 2.08697C7.5652 2.23083 7.44816 2.34783 7.30434 2.34783C7.16053 2.34783 7.04348 2.23078 7.04348 2.08697V0H5.47828V2.08697C5.47828 2.23083 5.36123 2.34783 5.21742 2.34783C5.07361 2.34783 4.95656 2.23078 4.95656 2.08697V0H3.39131V2.08697C3.39131 3.09389 4.2105 3.91308 5.21742 3.91308C5.60522 3.91308 5.96484 3.7912 6.26091 3.5842C6.55692 3.79116 6.91659 3.91308 7.30439 3.91308C7.38248 3.91308 7.45927 3.90759 7.53478 3.89798C7.42388 4.35497 7.01231 4.69566 6.52177 4.69566V6.26086C7.96022 6.26086 9.13045 5.09058 9.13045 3.65217V2.08697V0H7.56525V2.08697H7.5652Z" fill="var(--fill-0, #F0F0F0)"/>
<path id="Vector_6" d="M3.39131 4.6957H5.73914V6.26091H3.39131V4.6957Z" fill="var(--fill-0, #F0F0F0)"/>
</g>
</svg>
