<svg preserveAspectRatio="none" width="100%" height="100%" overflow="visible" style="display: block;" viewBox="0 0 15 8" fill="none" xmlns="http://www.w3.org/2000/svg">
<path id="Vector" d="M10.9565 0V1.04348H12.3886C11.791 1.87411 10.9949 2.5522 10.07 3.00881C9.83269 2.7623 9.49955 2.60869 9.13041 2.60869C8.50814 2.60869 7.98802 3.04458 7.85775 3.62766C7.67541 3.64369 7.49086 3.65217 7.30434 3.65217C7.11783 3.65217 6.93328 3.64359 6.75094 3.62766C6.62067 3.04463 6.10055 2.60869 5.47828 2.60869C5.10914 2.60869 4.77609 2.7623 4.53872 3.00881C3.61378 2.55225 2.81775 1.87406 2.22009 1.04348H3.65217V0H0C0 4.03402 3.27033 7.30434 7.30434 7.30434C11.3385 7.30434 14.6087 4.03402 14.6087 0H10.9565Z" fill="var(--fill-0, #D80027)"/>
</svg>
