<svg preserveAspectRatio="none" width="100%" height="100%" overflow="visible" style="display: block;" viewBox="0 0 7 8" fill="none" xmlns="http://www.w3.org/2000/svg">
<g id="Group">
<path id="Vector" d="M0.0110157 3.65222C0.00445321 3.73838 5.96046e-08 3.82519 5.96046e-08 3.91303C5.96046e-08 5.78597 1.51838 7.30434 3.39131 7.30434C5.26425 7.30434 6.78263 5.78597 6.78263 3.91303C6.78263 3.82519 6.77817 3.73833 6.77161 3.65222H0.0110157Z" fill="var(--fill-0, #FFDA44)"/>
<path id="Vector_2" d="M3.39131 2.08697C3.96761 2.08697 4.4348 1.61979 4.4348 1.04348C4.4348 0.467184 3.96761 4.76837e-07 3.39131 4.76837e-07C2.81501 4.76837e-07 2.34783 0.467184 2.34783 1.04348C2.34783 1.61979 2.81501 2.08697 3.39131 2.08697Z" fill="var(--fill-0, #FFDA44)"/>
</g>
</svg>
