<svg preserveAspectRatio="none" width="100%" height="100%" overflow="visible" style="display: block;" viewBox="0 0 14 14" fill="none" xmlns="http://www.w3.org/2000/svg">
<path id="Vector" d="M13.5652 2.64577H9.21867C9.48698 2.3648 9.65213 1.98441 9.65213 1.5652C9.65213 0.700782 8.95134 0 8.08692 0C7.54233 0 7.06294 0.278251 6.78258 0.700172C6.50222 0.278251 6.02278 0 5.47823 0C4.61381 0 3.91303 0.700782 3.91303 1.5652C3.91303 1.98441 4.07817 2.36484 4.34648 2.64577H0C0 3.79838 1.00392 4.73269 2.15644 4.73269H2.08687C2.08687 5.88534 3.02123 6.8197 4.17389 6.8197C4.17389 7.19302 4.27228 7.54298 4.44403 7.84598L2.71294 9.57712L4.04109 10.9052L5.92509 9.02124C5.99888 9.04828 6.07523 9.06998 6.15408 9.08475L5.01562 11.6551L6.78258 13.5652L8.54953 11.655L7.41108 9.08466C7.48997 9.06989 7.56628 9.04823 7.64006 9.02114L9.52406 10.9051L10.8522 9.57698L9.12108 7.84584C9.29288 7.54289 9.39127 7.19287 9.39127 6.81956C10.5439 6.81956 11.4782 5.88525 11.4782 4.73255H11.4087C12.5612 4.73264 13.5652 3.79838 13.5652 2.64577V2.64577Z" fill="var(--fill-0, black)"/>
</svg>
