<svg preserveAspectRatio="none" width="100%" height="100%" overflow="visible" style="display: block;" viewBox="0 0 9 9" fill="none" xmlns="http://www.w3.org/2000/svg">
<g id="Group">
<path id="Vector" d="M7.06102 1.87219L6.07645 3.22898L4.48191 2.71186L5.46806 4.06748L4.48359 5.42428L6.07753 4.90533L7.06369 6.26091L7.06266 4.58461L8.65664 4.06561L7.06214 3.54858L7.06102 1.87219Z" fill="var(--fill-0, #D80027)"/>
<path id="Vector_2" d="M5.47823 7.56525C3.6053 7.56525 2.08692 6.04688 2.08692 4.17394C2.08692 2.301 3.6053 0.782625 5.47823 0.782625C6.0622 0.782625 6.61172 0.930282 7.09144 1.19025C6.33881 0.454266 5.30962 0 4.17389 0C1.86867 0 0 1.86872 0 4.17389C0 6.47906 1.86872 8.34778 4.17389 8.34778C5.30967 8.34778 6.33886 7.89352 7.09144 7.15753C6.61172 7.41759 6.0622 7.56525 5.47823 7.56525Z" fill="var(--fill-0, #D80027)"/>
</g>
</svg>
