<svg preserveAspectRatio="none" width="100%" height="100%" overflow="visible" style="display: block;" viewBox="0 0 7 7" fill="none" xmlns="http://www.w3.org/2000/svg">
<path id="Vector" d="M6.78262 1.56511H5.20031C5.28928 1.41155 5.34103 1.2337 5.34103 1.04348C5.34103 0.467109 4.87383 0 4.29755 0C3.89934 0 3.55355 0.223032 3.37762 0.550922C3.2017 0.223078 2.85591 0 2.4577 0C1.88142 0 1.41422 0.467109 1.41422 1.04348C1.41422 1.2337 1.46597 1.41159 1.55494 1.56511H0C0 2.14144 0.501984 2.60859 1.07822 2.60859H1.04348C1.04348 3.18492 1.51064 3.65208 2.08697 3.65208C2.08697 4.16236 2.45344 4.5863 2.93742 4.67705L2.11523 6.53339C2.50927 6.69356 2.93986 6.78253 3.39136 6.78253C3.84286 6.78253 4.27345 6.69356 4.66748 6.53339L3.8453 4.67705C4.32928 4.58639 4.69575 4.16241 4.69575 3.65208C5.27208 3.65208 5.73923 3.18492 5.73923 2.60859H5.7045C6.28069 2.60859 6.78262 2.14139 6.78262 1.56511V1.56511Z" fill="var(--fill-0, #F0F0F0)"/>
</svg>
