<svg preserveAspectRatio="none" width="100%" height="100%" overflow="visible" style="display: block;" viewBox="0 0 24 24" fill="none" xmlns="http://www.w3.org/2000/svg">
<g id="Group">
<path id="Vector" d="M12 0C8.07412 0 4.58873 1.88545 2.39948 4.8H21.6005C19.4113 1.88545 15.9259 0 12 0Z" fill="var(--fill-0, #D80027)"/>
<path id="Vector_2" d="M12 24C15.9259 24 19.4113 22.1145 21.6005 19.2H2.39948C4.58873 22.1145 8.07412 24 12 24Z" fill="var(--fill-0, #D80027)"/>
<path id="Vector_3" d="M0 12C0 12.822 0.082875 13.6245 0.240328 14.4H23.7598C23.9172 13.6245 24 12.822 24 12C24 11.178 23.9171 10.3755 23.7597 9.6H0.240328C0.082875 10.3755 0 11.178 0 12H0Z" fill="var(--fill-0, #D80027)"/>
</g>
</svg>
