<svg preserveAspectRatio="none" width="100%" height="100%" overflow="visible" style="display: block;" viewBox="0 0 24 24" fill="none" xmlns="http://www.w3.org/2000/svg">
<g id="Group">
<path id="Vector" d="M12 0C8.07413 0 4.58878 1.88545 2.39948 4.8H21.6005C19.4112 1.88541 15.9258 0 12 0V0Z" fill="var(--fill-0, #0052B4)"/>
<path id="Vector_2" d="M12 23.9999C15.9259 23.9999 19.4112 22.1144 21.6005 19.1999H2.39948C4.58873 22.1145 8.07412 23.9999 12 23.9999Z" fill="var(--fill-0, #0052B4)"/>
<path id="Vector_3" d="M0 12C0 12.8219 0.082875 13.6245 0.240328 14.4H23.7597C23.9172 13.6245 24 12.8219 24 12C24 11.178 23.9171 10.3754 23.7597 9.59995H0.240328C0.082875 10.3754 0 11.178 0 12V12Z" fill="var(--fill-0, #0052B4)"/>
</g>
</svg>
