<svg preserveAspectRatio="none" width="100%" height="100%" overflow="visible" style="display: block;" viewBox="0 0 4 8" fill="none" xmlns="http://www.w3.org/2000/svg">
<path id="Vector" d="M2.08692 0C1.2225 0 0.521718 0.700782 0.521718 1.5652C0.521718 2.24658 0.957375 2.82614 1.5652 3.04102V5.21742H0V7.30439H2.60869V3.04106C3.21652 2.82619 3.65217 2.24667 3.65217 1.56525C3.65212 0.700828 2.95134 0 2.08692 0V0ZM2.08692 2.08697C1.79878 2.08697 1.5652 1.85334 1.5652 1.56525C1.5652 1.27711 1.79878 1.04353 2.08692 1.04353C2.37506 1.04353 2.60864 1.27711 2.60864 1.56525C2.60864 1.85334 2.37506 2.08697 2.08692 2.08697Z" fill="var(--fill-0, #FFDA44)"/>
</svg>
