<svg preserveAspectRatio="none" width="100%" height="100%" overflow="visible" style="display: block;" viewBox="0 0 15 15" fill="none" xmlns="http://www.w3.org/2000/svg">
<path id="Vector" d="M12.4543 8.14153C12.4984 7.86886 12.5217 7.58925 12.5217 7.30434C12.5217 7.58925 12.4984 7.86886 12.4543 8.14153L14.6087 7.30434L12.4543 6.4672L11.2709 6.00741L9.34833 5.26036L8.60128 3.33778C9.861 3.7507 10.8579 4.74759 11.2709 6.00736L12.4542 6.46716C12.0966 4.25953 10.3491 2.51194 8.14148 2.15437L7.30434 0L6.46716 2.15442C4.25953 2.51208 2.51203 4.25958 2.15442 6.4672L0 7.30434L2.15447 8.14153C2.51208 10.3492 4.25958 12.0967 6.4672 12.4543L7.30434 14.6087L8.14153 12.4543C10.3491 12.0967 12.0967 10.3491 12.4543 8.14153V8.14153ZM8.54222 6.06652L7.30434 7.30434H11.7277L8.54217 8.54222L7.30434 7.30434V11.7277L6.06647 8.54217L7.30434 7.30434H2.88098L6.06647 6.06652L7.30434 7.30434V2.88098L8.54222 6.06652ZM6.00736 3.33783L5.26027 5.26041L3.33778 6.00745C3.7507 4.74759 4.74759 3.7508 6.00736 3.33783ZM3.33783 8.60133L5.26027 9.34837L6.00736 11.2709C4.74759 10.8579 3.7508 9.86109 3.33783 8.60133ZM8.60133 11.2709L9.34837 9.34837L11.2709 8.60133C10.8579 9.86109 9.86109 10.8579 8.60133 11.2709Z" fill="var(--fill-0, #F0F0F0)"/>
</svg>
