<svg preserveAspectRatio="none" width="100%" height="100%" overflow="visible" style="display: block;" viewBox="0 0 9 10" fill="none" xmlns="http://www.w3.org/2000/svg">
<g id="Group">
<path id="Vector" d="M5.77336 5.33597C5.34647 4.48223 4.79161 3.61692 4.79161 3.61692C4.79161 3.61692 4.80539 3.22294 4.80539 2.98819C4.80539 2.63456 4.5187 2.34787 4.16508 2.34787C3.83006 2.34787 3.55556 2.60527 3.52758 2.93297C3.26414 2.95017 3.05569 3.1687 3.05569 3.43645C3.05569 3.63112 3.16598 3.79983 3.32742 3.88416C3.40767 3.69647 3.5648 3.54994 3.75914 3.48314C3.79083 3.50906 3.82486 3.53222 3.86119 3.55186L3.94322 3.59114C3.94322 3.59114 3.63905 4.44853 3.63905 4.90912C3.63905 6.204 4.49283 6.60333 4.49283 6.60333V6.61669L4.06594 7.04353H4.91967V6.18975L5.34656 6.61664C5.35031 6.60862 6.15516 6.09961 5.77336 5.33597V5.33597Z" fill="var(--fill-0, #496E2D)"/>
<path id="Vector_2" d="M4.46583 0L4.66008 0.597844H5.28867L4.78012 0.967359L4.97442 1.5652L4.46583 1.19573L3.95723 1.5652L4.15153 0.967359L3.64298 0.597844H4.27158L4.46583 0Z" fill="var(--fill-0, #496E2D)"/>
<path id="Vector_3" d="M1.70583 0.896812L2.21433 1.26633L2.72292 0.896765L2.52867 1.4947L3.03727 1.86412L2.40863 1.86417L2.21437 2.46202L2.02008 1.86417L1.39148 1.86412L1.90003 1.49461L1.70583 0.896812Z" fill="var(--fill-0, #496E2D)"/>
<path id="Vector_4" d="M0 3.24464H0.628547L0.822844 2.6468L1.01709 3.24464L1.64573 3.24459L1.13719 3.61416L1.33148 4.212L0.822844 3.84248L0.314297 4.21195L0.5085 3.61411L0 3.24464Z" fill="var(--fill-0, #496E2D)"/>
<path id="Vector_5" d="M0 6.14667L0.5085 5.77725L0.31425 5.17936L0.822844 5.54887L1.33144 5.17936L1.13719 5.7772L1.64578 6.14672L1.01709 6.14677L0.822844 6.74456L0.628547 6.14667H0Z" fill="var(--fill-0, #496E2D)"/>
<path id="Vector_6" d="M1.70583 8.4945L1.90003 7.89675L1.39144 7.52723H2.02008L2.21437 6.92934L2.40863 7.52719H3.03727L2.52867 7.89675L2.72292 8.49455L2.21433 8.12503L1.70583 8.4945Z" fill="var(--fill-0, #496E2D)"/>
<path id="Vector_7" d="M4.46583 9.39131L4.27158 8.79356H3.64298L4.15153 8.424L3.95723 7.82616L4.46583 8.19558L4.97437 7.82611L4.78012 8.424L5.28867 8.79351L4.66008 8.79356L4.46583 9.39131Z" fill="var(--fill-0, #496E2D)"/>
<path id="Vector_8" d="M7.22583 8.4945L6.71733 8.12503L6.20878 8.49459L6.40298 7.89675L5.89439 7.52723L6.52303 7.52719L6.71723 6.92934L6.91158 7.52723H7.54017L7.03162 7.89675L7.22583 8.4945Z" fill="var(--fill-0, #496E2D)"/>
<path id="Vector_9" d="M8.93166 6.14667H8.30311L8.10881 6.74456L7.91456 6.14677H7.28588L7.79447 5.7772L7.60017 5.17941L8.10881 5.54887L8.61731 5.17941L8.42316 5.77725L8.93166 6.14667Z" fill="var(--fill-0, #496E2D)"/>
<path id="Vector_10" d="M8.93166 3.24464L8.42316 3.61411L8.61736 4.21195L8.10881 3.84248L7.60022 4.21205L7.79447 3.61416L7.28588 3.24469L7.91456 3.24459L8.10877 2.64684L8.30311 3.24464H8.93166Z" fill="var(--fill-0, #496E2D)"/>
<path id="Vector_11" d="M7.22583 0.896812L7.03162 1.49461L7.54017 1.86412H6.91158L6.71733 2.46202L6.52303 1.86417L5.89439 1.86422L6.40298 1.49461L6.20873 0.896859L6.71733 1.26628L7.22583 0.896812Z" fill="var(--fill-0, #496E2D)"/>
</g>
</svg>
