<svg preserveAspectRatio="none" width="100%" height="100%" overflow="visible" style="display: block;" viewBox="0 0 8 17" fill="none" xmlns="http://www.w3.org/2000/svg">
<g id="Group">
<path id="Vector" d="M7.17333 13.5445L5.70778 12.8552L6.4882 11.4359L4.8968 11.7403L4.69514 10.1326L3.58669 11.315L2.47823 10.1326L2.27653 11.7403L0.685172 11.4358L1.46559 12.8552L1.19209e-07 13.5445L1.46559 14.2338L0.685172 15.6532L2.27663 15.3488L2.47819 16.9564L3.58669 15.774L4.69514 16.9564L4.8968 15.3488L6.48816 15.6533L5.70773 14.2339L7.17333 13.5445Z" fill="var(--fill-0, #F0F0F0)"/>
<path id="Vector_2" d="M6.19537 2.48156L5.12944 1.98023L5.69705 0.947906L4.53956 1.16934L4.39289 0L3.58669 0.860016L2.78048 0L2.63377 1.16934L1.47628 0.947906L2.04394 1.98023L0.977953 2.48156L3.58669 3.00338L6.19537 2.48156Z" fill="var(--fill-0, #F0F0F0)"/>
<path id="Vector_3" d="M6.71709 2.48156C6.71709 4.21045 5.31553 5.61202 3.58664 5.61202C1.85775 5.61202 0.456187 4.21045 0.456187 2.48156" fill="var(--fill-0, #F0F0F0)"/>
</g>
</svg>
