<svg preserveAspectRatio="none" width="100%" height="100%" overflow="visible" style="display: block;" viewBox="0 0 17 14" fill="none" xmlns="http://www.w3.org/2000/svg">
<g id="Group">
<path id="Vector" d="M4.3875 1.91719L5.42344 5.10469H8.775L6.06562 7.07813L7.10156 10.2656L4.3875 8.29688L1.67344 10.2656L2.71406 7.07813L0 5.10469H3.35156L4.3875 1.91719Z" fill="var(--fill-0, #FFDA44)"/>
<path id="Vector_2" d="M12.0469 13.2L11.2547 12.225L10.0828 12.6797L10.7625 11.625L9.97031 10.6453L11.1844 10.9688L11.8687 9.91406L11.9344 11.1703L13.1531 11.4938L11.9766 11.9438L12.0469 13.2Z" fill="var(--fill-0, #FFDA44)"/>
<path id="Vector_3" d="M13.6219 10.3406L13.9969 9.14062L12.9703 8.41406L14.2266 8.39531L14.5969 7.19531L15.0047 8.38594L16.2609 8.37188L15.2531 9.12188L15.6562 10.3125L14.6297 9.58594L13.6219 10.3406Z" fill="var(--fill-0, #FFDA44)"/>
<path id="Vector_4" d="M15.7453 3.42188L15.1922 4.55156L16.0922 5.42813L14.85 5.25L14.2969 6.375L14.0812 5.1375L12.8344 4.95938L13.95 4.37344L13.7344 3.13125L14.6344 4.00781L15.7453 3.42188Z" fill="var(--fill-0, #FFDA44)"/>
<path id="Vector_5" d="M12.0797 0L11.9859 1.25156L13.1531 1.725L11.9297 2.025L11.8406 3.28125L11.1797 2.2125L9.95625 2.5125L10.7672 1.55156L10.1016 0.4875L11.2687 0.960938L12.0797 0Z" fill="var(--fill-0, #FFDA44)"/>
</g>
</svg>
