<svg preserveAspectRatio="none" width="100%" height="100%" overflow="visible" style="display: block;" viewBox="0 0 9 10" fill="none" xmlns="http://www.w3.org/2000/svg">
<g id="Group">
<path id="Vector" d="M6.04031 5.73914L6.23456 6.33703H6.8632L6.35461 6.7065L6.54891 7.30439L6.04031 6.93488L5.53172 7.30439L5.72597 6.7065L5.21742 6.33703H5.84602L6.04031 5.73914Z" fill="var(--fill-0, #F0F0F0)"/>
<path id="Vector_2" d="M4.4348 2.38419e-07L4.75866 0.996469H5.80631L4.95867 1.61227L5.28244 2.60873L4.4348 1.99284L3.5872 2.60873L3.91102 1.61227L3.06333 0.996469H4.11108L4.4348 2.38419e-07Z" fill="var(--fill-0, #F0F0F0)"/>
<path id="Vector_3" d="M4.4348 7.30439L4.75856 8.30086H5.80631L4.95858 8.91661L5.28244 9.91308L4.4348 9.29719L3.5872 9.91308L3.91092 8.91661L3.06333 8.30086H4.11094L4.4348 7.30439Z" fill="var(--fill-0, #F0F0F0)"/>
<path id="Vector_4" d="M7.49808 2.60873L7.82194 3.6052H8.86959L8.02195 4.22095L8.34572 5.21742L7.49808 4.60153L6.65048 5.21742L6.9743 4.22095L6.12666 3.6052H7.17436L7.49808 2.60873Z" fill="var(--fill-0, #F0F0F0)"/>
<path id="Vector_5" d="M1.37147 2.60873L1.69533 3.6052H2.74294L1.89534 4.22095L2.21906 5.21742L1.37147 4.60153L0.523828 5.21742L0.847688 4.22095L0 3.6052H1.0477L1.37147 2.60873Z" fill="var(--fill-0, #F0F0F0)"/>
</g>
</svg>
