<svg preserveAspectRatio="none" width="100%" height="100%" overflow="visible" style="display: block;" viewBox="0 0 9 12" fill="none" xmlns="http://www.w3.org/2000/svg">
<g id="Group">
<path id="Vector" d="M8.34778 8.0295L6.64223 8.83167L7.55048 10.4835L5.6985 10.1292L5.46384 12L4.17389 10.624L2.88389 12L2.64928 10.1292L0.797297 10.4834L1.7055 8.83167L0 8.0295L1.7055 7.22719L0.797297 5.57555L2.64923 5.92973L2.88394 4.05895L4.17389 5.43488L5.46389 4.05895L5.6985 5.92973L7.55053 5.57555L6.64238 7.22733L8.34778 8.0295Z" fill="var(--fill-0, #FFDA44)"/>
<path id="Vector_2" d="M7.30434 0.782625H4.95652C4.95652 0.350484 4.60608 0 4.17389 0C3.7417 0 3.39127 0.350437 3.39127 0.782625H1.04344C1.04344 1.21481 1.41994 1.56525 1.85212 1.56525H1.82602C1.82602 1.99744 2.17636 2.34788 2.60864 2.34788C2.60864 2.78006 2.95898 3.1305 3.39127 3.1305H4.95647C5.38861 3.1305 5.73909 2.78011 5.73909 2.34788C6.17123 2.34788 6.52172 1.99748 6.52172 1.56525H6.49561C6.92784 1.56525 7.30434 1.21486 7.30434 0.782625V0.782625Z" fill="var(--fill-0, #FFDA44)"/>
</g>
</svg>
