<svg preserveAspectRatio="none" width="100%" height="100%" overflow="visible" style="display: block;" viewBox="0 0 17 12" fill="none" xmlns="http://www.w3.org/2000/svg">
<path id="Vector" d="M16.5924 2.08955C16.1633 0.872532 15.0037 0 13.6399 0H10.9566C9.22767 0 7.82611 1.40156 7.82611 3.13045C7.82611 3.6953 7.97648 4.23816 8.23819 4.69566C7.24177 4.6875 6.31959 4.70255 5.73914 4.69566C5.73914 3.48834 5.73914 1.95038 5.73914 1.62858L5.86242 1.5053C6.41583 0.951891 6.23128 0.0295787 6.23128 0.0295787C6.23128 0.0295787 5.30906 -0.154875 4.75566 0.398531L4.1107 1.04348H3.39131C1.80647 1.04348 0.521766 2.32824 0.521766 3.91303H2.60873V6.26086C2.60873 6.60427 2.67797 6.93141 2.80308 7.22934L2.08697 7.82606H1.04348V6.78258H0V8.86955H4.69566V10.9565H3.65217V12H5.73914V9.91303L6.69563 8.7652H8.95655L9.91303 9.91303V10.9565H8.86955V12H13.0434V6.26081C13.0434 5.39639 13.7442 4.69561 14.6086 4.69561C14.6309 4.69561 14.6529 4.69641 14.6749 4.6973C14.6317 4.53005 14.6086 4.35469 14.6086 4.17389C14.6087 3.05597 15.4878 2.14341 16.5924 2.08955V2.08955ZM10.9566 10.9565V8.76516H11.0435L12 9.91298V10.9565H10.9566Z" fill="var(--fill-0, #D80027)"/>
</svg>
