<svg preserveAspectRatio="none" width="100%" height="100%" overflow="visible" style="display: block;" viewBox="0 0 23 19" fill="none" xmlns="http://www.w3.org/2000/svg">
<g id="Group">
<path id="Vector" d="M11.2537 18.7825C16.4132 18.7825 20.8117 15.526 22.5072 10.9564H1.49012e-08C1.69556 15.526 6.09403 18.7825 11.2537 18.7825Z" fill="var(--fill-0, #D80027)"/>
<path id="Vector_2" d="M15.9493 4.69552V3.13031H16.471V2.08683H15.4275V2.60859H14.3841V2.08683H13.3406V3.13031H13.8623V4.69552H12.8189V1.04344H13.3406V1.19209e-07H12.2971V0.521625H11.7754V1.19209e-07H10.7319V0.521625H10.2102V1.19209e-07H9.16669V1.04344H9.68845V4.69552H8.64497V3.13031H9.16669V2.08683H8.1232V2.60859H7.07977V2.08683H6.03628V3.13031H6.558V4.69552H5.51452V8.86945H16.9928V4.69552H15.9493Z" fill="var(--fill-0, #D80027)"/>
</g>
</svg>
