<svg preserveAspectRatio="none" width="100%" height="100%" overflow="visible" style="display: block;" viewBox="0 0 23 12" fill="none" xmlns="http://www.w3.org/2000/svg">
<g id="Group">
<path id="Vector" d="M12.7187 7.5652H22.307C21.8533 6.42525 21.2298 5.37159 20.4679 4.43475H12.7187H12.7187V0.101578C12.2063 0.034875 11.684 0 11.1535 0C10.6229 0 10.1006 0.034875 9.58828 0.101578V4.4347V4.43475H1.83905C1.07719 5.37159 0.453656 6.42525 0 7.5652H9.58819H9.58823V12H12.7187V7.56525V7.5652Z" fill="var(--fill-0, #D80027)"/>
<path id="Vector_2" d="M8.02303 2.86955V2.8695L6.21398 1.06045C5.87953 1.21172 5.55356 1.37836 5.23636 1.5585L6.54741 2.86955H8.02303Z" fill="var(--fill-0, #D80027)"/>
<path id="Vector_3" d="M14.2839 2.86955L16.093 1.0605C15.7489 0.904922 15.3961 0.765422 15.0356 0.642187L14.2839 1.39392V2.86955Z" fill="var(--fill-0, #D80027)"/>
</g>
</svg>
