<svg preserveAspectRatio="none" width="100%" height="100%" overflow="visible" style="display: block;" viewBox="0 0 5 5" fill="none" xmlns="http://www.w3.org/2000/svg">
<g id="Group">
<path id="Vector" d="M1.56525 4.76837e-07V0.869532C1.56525 1.15763 1.79883 1.39125 2.08697 1.39125C2.37511 1.39125 2.60869 1.15763 2.60869 0.869532V4.76837e-07H1.56525Z" fill="var(--fill-0, #0052B4)"/>
<path id="Vector_2" d="M1.56525 3.47827V4.3478C1.56525 4.63589 1.79883 4.86952 2.08697 4.86952C2.37511 4.86952 2.60869 4.63589 2.60869 4.3478V3.47827H1.56525Z" fill="var(--fill-0, #0052B4)"/>
<path id="Vector_3" d="M3.13045 1.73906V2.60869C3.13045 2.89678 3.36403 3.13041 3.65217 3.13041C3.94031 3.13041 4.17389 2.89678 4.17389 2.60869V1.73906H3.13045Z" fill="var(--fill-0, #0052B4)"/>
<path id="Vector_4" d="M1.56525 1.73906V2.60869C1.56525 2.89678 1.79883 3.13041 2.08697 3.13041C2.37511 3.13041 2.60869 2.89678 2.60869 2.60869V1.73906H1.56525Z" fill="var(--fill-0, #0052B4)"/>
<path id="Vector_5" d="M4.76837e-07 1.73906V2.60869C4.76837e-07 2.89678 0.233579 3.13041 0.521719 3.13041C0.80986 3.13041 1.04344 2.89678 1.04344 2.60869V1.73906H4.76837e-07Z" fill="var(--fill-0, #0052B4)"/>
</g>
</svg>
