<svg preserveAspectRatio="none" width="100%" height="100%" overflow="visible" style="display: block;" viewBox="0 0 9 9" fill="none" xmlns="http://www.w3.org/2000/svg">
<g id="Group">
<path id="Vector" d="M4.17389 0L4.39598 0.683249H5.11434L4.53319 1.1055L4.75519 1.7888L4.17389 1.3665L3.59269 1.7888L3.81469 1.1055L3.23353 0.683249H3.95189L4.17389 0Z" fill="var(--fill-0, #F0F0F0)"/>
<path id="Vector_2" d="M1.22255 1.22255L1.86262 1.54866L2.37066 1.04067L2.25825 1.75027L2.89838 2.07642L2.18878 2.18873L2.07642 2.89842L1.75022 2.25825L1.04067 2.37066L1.54875 1.86267L1.22255 1.22255Z" fill="var(--fill-0, #F0F0F0)"/>
<path id="Vector_3" d="M0 4.17389L0.683249 3.95189L0.683344 3.23358L1.1055 3.81469L1.7888 3.59264L1.3665 4.17389L1.7888 4.75519L1.1055 4.53319L0.683344 5.11434V4.39598L0 4.17389Z" fill="var(--fill-0, #F0F0F0)"/>
<path id="Vector_4" d="M1.22255 7.12528L1.54866 6.48516L1.04067 5.97722L1.75027 6.08958L2.07642 5.44945L2.18878 6.15905L2.89838 6.27136L2.25825 6.59756L2.37066 7.3072L1.86262 6.79908L1.22255 7.12528Z" fill="var(--fill-0, #F0F0F0)"/>
<path id="Vector_5" d="M4.17389 8.34783L3.95189 7.66453H3.23348L3.81469 7.24228L3.59269 6.55903L4.17389 6.98128L4.75519 6.55903L4.53319 7.24228L5.11434 7.66453H4.39598L4.17389 8.34783Z" fill="var(--fill-0, #F0F0F0)"/>
<path id="Vector_6" d="M7.12528 7.12528L6.48516 6.79922L5.97722 7.3072L6.08958 6.59756L5.44945 6.27145L6.15905 6.15905L6.27145 5.44945L6.59756 6.08958L7.30716 5.97722L6.79908 6.4852L7.12528 7.12528Z" fill="var(--fill-0, #F0F0F0)"/>
<path id="Vector_7" d="M8.34783 4.17389L7.66453 4.39598V5.11434L7.24228 4.53314L6.55903 4.75519L6.98133 4.17389L6.55903 3.59264L7.24228 3.81469L7.66453 3.23358V3.95189L8.34783 4.17389Z" fill="var(--fill-0, #F0F0F0)"/>
<path id="Vector_8" d="M7.12528 1.22259L6.79922 1.86267L7.30716 2.37066L6.59756 2.25825L6.27145 2.89842L6.15905 2.18873L5.44945 2.07637L6.08958 1.75027L5.97722 1.04072L6.4852 1.54866L7.12528 1.22259Z" fill="var(--fill-0, #F0F0F0)"/>
</g>
</svg>
