<svg preserveAspectRatio="none" width="100%" height="100%" overflow="visible" style="display: block;" viewBox="0 0 24 24" fill="none" xmlns="http://www.w3.org/2000/svg">
<g id="Group">
<path id="Vector" d="M3.72529e-09 13.4636C0.279187 15.6064 1.12397 17.5712 2.37914 19.2041L8.76792 13.4636H3.72529e-09Z" fill="var(--fill-0, #D80027)"/>
<path id="Vector_2" d="M10.3332 23.7968V15.0289L4.59267 21.4177C6.22566 22.6729 8.19037 23.5177 10.3332 23.7968V23.7968Z" fill="var(--fill-0, #D80027)"/>
<path id="Vector_3" d="M10.3332 0C8.19037 0.279187 6.22566 1.12397 4.59267 2.37914L10.3332 8.76801V0Z" fill="var(--fill-0, #D80027)"/>
<path id="Vector_4" d="M3.72529e-09 10.3332H8.76792L2.37909 4.59272C1.12392 6.22566 0.279141 8.19042 3.72529e-09 10.3332V10.3332Z" fill="var(--fill-0, #D80027)"/>
<path id="Vector_5" d="M13.4636 0V8.76797L19.2042 2.37914C17.5712 1.12406 15.6064 0.279141 13.4636 0V0Z" fill="var(--fill-0, #D80027)"/>
<path id="Vector_6" d="M23.7968 10.3332C23.5176 8.19042 22.6728 6.22566 21.4177 4.59267L15.0288 10.3332H23.7968Z" fill="var(--fill-0, #D80027)"/>
<path id="Vector_7" d="M15.0288 13.4636L21.4177 19.2042C22.6728 17.5712 23.5177 15.6064 23.7968 13.4636H15.0288Z" fill="var(--fill-0, #D80027)"/>
<path id="Vector_8" d="M13.4636 23.7968C15.6064 23.5177 17.5712 22.6729 19.2041 21.4177L13.4636 15.0289V23.7968Z" fill="var(--fill-0, #D80027)"/>
</g>
</svg>
