<svg preserveAspectRatio="none" width="100%" height="100%" overflow="visible" style="display: block;" viewBox="0 0 19 4" fill="none" xmlns="http://www.w3.org/2000/svg">
<path id="Vector" d="M17.3001 0C16.3001 0 16.3001 0.914343 15.3001 0.914343C14.3002 0.914343 14.3002 0 13.3002 0C12.3002 0 12.3002 0.914343 11.3002 0.914343C10.3001 0.914343 10.3001 0 9.30005 0C8.30006 0 8.30006 0.914343 7.30012 0.914343C6.30028 0.914343 6.30028 0 5.3003 0C4.30022 0 4.30022 0.914343 3.30014 0.914343C2.30006 0.914343 2.30006 0 1.29998 0C0.609328 0 0.395625 0.436124 0 0.705983C1.04948 1.99158 2.36058 3.05489 3.85144 3.81623L9.30023 3.54173L14.749 3.81619C16.2398 3.0548 17.5509 1.99162 18.6004 0.70603C18.2046 0.436218 17.9909 0 17.3001 0V0Z" fill="var(--fill-0, #0052B4)"/>
</svg>
