<svg preserveAspectRatio="none" width="100%" height="100%" overflow="visible" style="display: block;" viewBox="0 0 10 14" fill="none" xmlns="http://www.w3.org/2000/svg">
<path id="Vector" d="M9.88266 4.59539C9.88266 2.05739 7.82522 0 5.28727 0C3.41442 0 1.80441 1.12078 1.08853 2.72784L0.521766 4.78261L1.04348 5.30433L0 7.3913L1.04348 7.91302L0.521766 8.43473V8.95645L1.04348 9.47817V10.5217L1.5652 11.0434L3.13041 10.5217C3.13041 10.5217 3.13041 11.0434 3.65213 11.5651C4.17384 12.0869 4.69566 13.1304 4.69566 13.1304C4.69566 13.1304 6.26086 13.6521 7.30434 12.0869C8.34783 10.5217 9.39131 9.99994 9.39131 9.99994L8.38556 7.98834C9.30534 7.1482 9.88266 5.93944 9.88266 4.59539V4.59539Z" fill="var(--fill-0, black)"/>
</svg>
