<svg preserveAspectRatio="none" width="100%" height="100%" overflow="visible" style="display: block;" viewBox="0 0 10 10" fill="none" xmlns="http://www.w3.org/2000/svg">
<path id="Vector" d="M8.25295 5.20369L9.28706 4.64353L8.25295 4.08337C8.0115 2.51489 6.77222 1.27556 5.20373 1.03416L4.64353 0L4.08337 1.03411C2.51494 1.27552 1.27566 2.51484 1.03416 4.08333L0 4.64353L1.03411 5.20369C1.27556 6.77217 2.51484 8.0115 4.08333 8.25291L4.64353 9.28706L5.20369 8.25295C6.77222 8.0115 8.0115 6.77217 8.25295 5.20369V5.20369ZM4.64358 6.7305C3.49097 6.7305 2.55661 5.79619 2.55661 4.64353C2.55661 3.49087 3.49092 2.55656 4.64358 2.55656C5.79623 2.55656 6.73055 3.49087 6.73055 4.64353C6.73055 5.79619 5.79619 6.7305 4.64358 6.7305Z" fill="var(--fill-0, black)"/>
</svg>
