<svg preserveAspectRatio="none" width="100%" height="100%" overflow="visible" style="display: block;" viewBox="0 0 24 24" fill="none" xmlns="http://www.w3.org/2000/svg">
<g id="Group">
<path id="Vector" d="M5.68927 2.1818H18.8505C16.8986 0.807516 14.5187 0 11.9501 0C10.3849 0 7.64114 0.807516 5.68927 2.1818Z" fill="var(--fill-0, #D80027)"/>
<path id="Vector_2" d="M11.4284 6.54548H22.6416C22.2425 5.76487 21.7605 5.03367 21.2072 4.36369H11.4284V6.54548Z" fill="var(--fill-0, #D80027)"/>
<path id="Vector_3" d="M11.4284 10.9091H23.9003C23.8328 10.16 23.6971 9.43041 23.4983 8.72733H11.4284V10.9091Z" fill="var(--fill-0, #D80027)"/>
<path id="Vector_4" d="M0.402 15.2728H23.4982C23.6971 14.5697 23.8327 13.8401 23.9002 13.091H1.86265e-09C0.0675 13.8401 0.203156 14.5697 0.402 15.2728V15.2728Z" fill="var(--fill-0, #D80027)"/>
<path id="Vector_5" d="M2.69306 19.6363H21.2072C21.7605 18.9662 22.2425 18.2351 22.6416 17.4545H1.25869C1.65773 18.2351 2.1397 18.9663 2.69306 19.6363V19.6363Z" fill="var(--fill-0, #D80027)"/>
<path id="Vector_6" d="M11.9501 24C14.5187 24 16.8986 23.1925 18.8505 21.8182H5.0498C7.00167 23.1925 9.38152 24 11.9501 24Z" fill="var(--fill-0, #D80027)"/>
</g>
</svg>
