<svg preserveAspectRatio="none" width="100%" height="100%" overflow="visible" style="display: block;" viewBox="0 0 16 4" fill="none" xmlns="http://www.w3.org/2000/svg">
<g id="Group">
<path id="Vector" d="M1.09716 1.5652L1.35619 2.36245H2.19431L1.51627 2.85506L1.77525 3.65217L1.09716 3.15956L0.419016 3.65217L0.678094 2.85506L0 2.36245H0.838078L1.09716 1.5652Z" fill="var(--fill-0, #F0F0F0)"/>
<path id="Vector_2" d="M3.70584 0.782625L3.96487 1.57983H4.803L4.12495 2.07244L4.38394 2.86955L3.70584 2.37694L3.02775 2.86955L3.28678 2.07244L2.60873 1.57983H3.44686L3.70584 0.782625Z" fill="var(--fill-0, #F0F0F0)"/>
<path id="Vector_3" d="M6.31453 1.19209e-07L6.57356 0.797203H7.41169L6.73364 1.28986L6.99262 2.08697L6.31453 1.59431L5.63644 2.08697L5.89547 1.28986L5.21742 0.797203H6.05555L6.31453 1.19209e-07Z" fill="var(--fill-0, #F0F0F0)"/>
<path id="Vector_4" d="M14.5551 1.5652L14.296 2.36245H13.4579L14.136 2.85506L13.877 3.65217L14.5551 3.15956L15.2332 3.65217L14.9741 2.85506L15.6522 2.36245H14.8141L14.5551 1.5652Z" fill="var(--fill-0, #F0F0F0)"/>
<path id="Vector_5" d="M11.9464 0.782625L11.6873 1.57983H10.8492L11.5273 2.07244L11.2683 2.86955L11.9464 2.37694L12.6245 2.86955L12.3654 2.07244L13.0435 1.57983H12.2054L11.9464 0.782625Z" fill="var(--fill-0, #F0F0F0)"/>
<path id="Vector_6" d="M9.33769 1.19209e-07L9.07866 0.797203H8.24053L8.91858 1.28986L8.65959 2.08697L9.33769 1.59431L10.0158 2.08697L9.75675 1.28986L10.4348 0.797203H9.59667L9.33769 1.19209e-07Z" fill="var(--fill-0, #F0F0F0)"/>
</g>
</svg>
