<svg preserveAspectRatio="none" width="100%" height="100%" overflow="visible" style="display: block;" viewBox="0 0 6 8" fill="none" xmlns="http://www.w3.org/2000/svg">
<g id="Group">
<path id="Vector" d="M1.56525 3.65217C1.56525 1.90383 2.79398 0.443251 4.4348 0.084938C4.18261 0.0298599 3.92095 0 3.65217 0C1.63509 0 0 1.63509 0 3.65217C0 5.66925 1.63509 7.30434 3.65217 7.30434C3.92091 7.30434 4.18256 7.27448 4.4348 7.21941C2.79398 6.86105 1.56525 5.40052 1.56525 3.65217V3.65217Z" fill="var(--fill-0, #F0F0F0)"/>
<path id="Vector_2" d="M4.39453 0.521719L4.58883 1.11956H5.21742L4.70883 1.48908L4.90313 2.08692L4.39453 1.71745L3.88594 2.08692L4.08023 1.48908L3.57164 1.11956H4.20023L4.39453 0.521719Z" fill="var(--fill-0, #F0F0F0)"/>
<path id="Vector_3" d="M4.39453 2.08692L4.58883 2.68481H5.21742L4.70883 3.05428L4.90313 3.65217L4.39453 3.28266L3.88594 3.65217L4.08023 3.05428L3.57164 2.68481H4.20023L4.39453 2.08692Z" fill="var(--fill-0, #F0F0F0)"/>
<path id="Vector_4" d="M4.39453 3.65217L4.58883 4.25002H5.21742L4.70883 4.61953L4.90313 5.21738L4.39453 4.84786L3.88594 5.21738L4.08023 4.61953L3.57164 4.25002H4.20023L4.39453 3.65217Z" fill="var(--fill-0, #F0F0F0)"/>
<path id="Vector_5" d="M4.39453 5.21738L4.58883 5.81522H5.21742L4.70883 6.18473L4.90313 6.78258L4.39453 6.41311L3.88594 6.78258L4.08023 6.18473L3.57164 5.81522H4.20023L4.39453 5.21738Z" fill="var(--fill-0, #F0F0F0)"/>
</g>
</svg>
