<svg preserveAspectRatio="none" width="100%" height="100%" overflow="visible" style="display: block;" viewBox="0 0 24 6" fill="none" xmlns="http://www.w3.org/2000/svg">
<g id="Group">
<path id="Vector" d="M21.9842 0.914343C20.9843 0.914343 20.9843 0 19.9842 0C18.9842 0 18.9842 0.914343 17.9843 0.914343C16.9844 0.914343 16.9843 0 15.9844 0C14.9844 0 14.9844 0.914343 13.9844 0.914343C12.9843 0.914343 12.9843 0 11.9842 0C10.9842 0 10.9842 0.914343 9.98428 0.914343C8.98444 0.914343 8.98444 0 7.98445 0C6.98438 0 6.98438 0.914343 5.9843 0.914343C4.98422 0.914343 4.98422 0 3.98414 0C2.9843 0 2.9843 0.914343 1.98431 0.914343C0.989719 0.914343 0.983953 0.0100783 0 0.000422001C0.0277031 0.549328 0.0932344 1.0882 0.192328 1.61517C0.989391 1.73231 1.05919 2.51433 1.98436 2.51433C2.98434 2.51433 2.98434 1.60008 3.98419 1.60008C4.98427 1.60008 4.98427 2.51433 5.98434 2.51433C6.98442 2.51433 6.98442 1.60008 7.9845 1.60008C8.98449 1.60008 8.98449 2.51433 9.98433 2.51433C10.9843 2.51433 10.9843 1.60008 11.9843 1.60008C12.9843 1.60008 12.9843 2.51433 13.9844 2.51433C14.9845 2.51433 14.9845 1.60008 15.9844 1.60008C16.9844 1.60008 16.9844 2.51433 17.9843 2.51433C18.9843 2.51433 18.9843 1.60008 19.9843 1.60008C20.9843 1.60008 20.9843 2.51433 21.9843 2.51433C22.9095 2.51433 22.9793 1.73236 23.7765 1.61522C23.8756 1.0882 23.941 0.549374 23.9689 0.000467777C22.9847 0.0101709 22.9789 0.914343 21.9842 0.914343V0.914343Z" fill="var(--fill-0, #0052B4)"/>
<path id="Vector_2" d="M19.9842 3.13045C18.9842 3.13045 18.9842 4.0448 17.9843 4.0448C16.9844 4.0448 16.9843 3.13045 15.9844 3.13045C14.9844 3.13045 14.9844 4.0448 13.9844 4.0448C12.9843 4.0448 12.9843 3.13045 11.9842 3.13045C10.9842 3.13045 10.9842 4.0448 9.98428 4.0448C8.98444 4.0448 8.98444 3.13045 7.98445 3.13045C6.98438 3.13045 6.98438 4.0448 5.9843 4.0448C4.98422 4.0448 4.98422 3.13045 3.98414 3.13045C2.9843 3.13045 2.9843 4.0448 1.98431 4.0448C1.2698 4.0448 1.0657 3.57811 0.642656 3.31148C0.924281 4.12519 1.29066 4.89923 1.73189 5.6228C1.80862 5.63695 1.89216 5.64478 1.98431 5.64478C2.9843 5.64478 2.9843 4.73053 3.98414 4.73053C4.98422 4.73053 4.98422 5.64478 5.9843 5.64478C6.98438 5.64478 6.98438 4.73053 7.98445 4.73053C8.98444 4.73053 8.98444 5.64478 9.98428 5.64478C10.9843 5.64478 10.9843 4.73053 11.9842 4.73053C12.9843 4.73053 12.9843 5.64478 13.9844 5.64478C14.9844 5.64478 14.9844 4.73053 15.9844 4.73053C16.9844 4.73053 16.9844 5.64478 17.9843 5.64478C18.9842 5.64478 18.9843 4.73053 19.9842 4.73053C20.9843 4.73053 20.9843 5.64478 21.9842 5.64478C22.0764 5.64478 22.16 5.63695 22.2368 5.62275C22.678 4.89923 23.0444 4.12519 23.3261 3.31153C22.903 3.57802 22.6989 4.0448 21.9842 4.0448C20.9843 4.0448 20.9843 3.13045 19.9842 3.13045Z" fill="var(--fill-0, #0052B4)"/>
</g>
</svg>
