<svg preserveAspectRatio="none" width="100%" height="100%" overflow="visible" style="display: block;" viewBox="0 0 15 15" fill="none" xmlns="http://www.w3.org/2000/svg">
<g id="Group">
<path id="Vector" d="M7.30434 1.19209e-07L7.69289 1.19573H8.95008L7.93294 1.93472L8.32149 3.13045L7.30434 2.39142L6.28716 3.13045L6.6757 1.93472L5.65856 1.19573H6.9158L7.30434 1.19209e-07Z" fill="var(--fill-0, #FFDA44)"/>
<path id="Vector_2" d="M2.13933 2.13937L3.25964 2.71013L4.14862 1.82119L3.95189 3.06291L5.07216 3.6337L3.83039 3.83039L3.6337 5.0722L3.06291 3.95194L1.82119 4.14867L2.71017 3.25969L2.13933 2.13937Z" fill="var(--fill-0, #FFDA44)"/>
<path id="Vector_3" d="M0 7.30434L1.19573 6.9158V5.65856L1.93467 6.67575L3.13045 6.2872L2.39137 7.30434L3.13045 8.32148L1.93467 7.93299L1.19573 8.95012V7.69289L0 7.30434Z" fill="var(--fill-0, #FFDA44)"/>
<path id="Vector_4" d="M2.13933 12.4693L2.71012 11.349L1.82119 10.46L3.06295 10.6568L3.63366 9.53653L3.83039 10.7783L5.07211 10.975L3.95198 11.5458L4.14862 12.7875L3.25964 11.8985L2.13933 12.4693Z" fill="var(--fill-0, #FFDA44)"/>
<path id="Vector_5" d="M7.30434 14.6087L6.91575 13.413H5.65856L6.67575 12.674L6.28716 11.4783L7.30434 12.2173L8.32149 11.4783L7.93294 12.674L8.95008 13.413H7.69284L7.30434 14.6087Z" fill="var(--fill-0, #FFDA44)"/>
<path id="Vector_6" d="M12.4693 12.4693L11.349 11.8986L10.46 12.7875L10.6568 11.5457L9.53658 10.975L10.7783 10.7783L10.975 9.53653L11.5457 10.6568L12.7875 10.46L11.8985 11.3491L12.4693 12.4693Z" fill="var(--fill-0, #FFDA44)"/>
<path id="Vector_7" d="M14.6086 7.30434L13.4129 7.69289V8.95012L12.6739 7.93294L11.4783 8.32148L12.2173 7.30434L11.4783 6.2872L12.674 6.67575L13.4129 5.65856V6.91584L14.6086 7.30434Z" fill="var(--fill-0, #FFDA44)"/>
<path id="Vector_8" d="M12.4693 2.13937L11.8985 3.25969L12.7875 4.14867L11.5457 3.95189L10.975 5.07216L10.7783 3.83039L9.53658 3.63366L10.6568 3.06291L10.46 1.82123L11.3491 2.71017L12.4693 2.13937Z" fill="var(--fill-0, #FFDA44)"/>
</g>
</svg>
