<svg preserveAspectRatio="none" width="100%" height="100%" overflow="visible" style="display: block;" viewBox="0 0 24 19" fill="none" xmlns="http://www.w3.org/2000/svg">
<g id="Group">
<path id="Vector" d="M23.0884 14.5078L14.3148 10.8722L14.9507 12.8637L20.4847 18.3976C21.5896 17.2928 22.4801 15.9737 23.0884 14.5078Z" fill="var(--fill-0, #0052B4)"/>
<path id="Vector_2" d="M24 9.91303C24 8.2853 23.6756 6.7335 23.0884 5.3183L12 9.91303H24Z" fill="var(--fill-0, #0052B4)"/>
<path id="Vector_3" d="M20.4847 1.42838C19.9572 0.901031 19.3812 0.422297 18.7635 5.96046e-08H16.1077L12 9.91303L20.4847 1.42838Z" fill="var(--fill-0, #0052B4)"/>
<path id="Vector_4" d="M12 5.96046e-08H7.8923L12 9.91303V5.96046e-08Z" fill="var(--fill-0, #0052B4)"/>
<path id="Vector_5" d="M3.51534 1.42838C2.41041 2.53322 1.51992 3.85233 0.911672 5.31825L12 9.91303L3.51534 1.42838Z" fill="var(--fill-0, #0052B4)"/>
<path id="Vector_6" d="M0 9.91303C0 11.5408 0.324422 13.0926 0.911625 14.5078L12 9.91303H0Z" fill="var(--fill-0, #0052B4)"/>
</g>
</svg>
