<svg preserveAspectRatio="none" width="100%" height="100%" overflow="visible" style="display: block;" viewBox="0 0 9 6" fill="none" xmlns="http://www.w3.org/2000/svg">
<g id="Group">
<path id="Vector" d="M3.39131 5.8087L2.86959 4.76527V2.6783L4.17394 1.63481L5.47828 2.6783V4.2435L6 3.72178V4.76527L4.95652 5.8087H3.39131Z" fill="var(--fill-0, #F0F0F0)"/>
<path id="Vector_2" d="M0.585141 2.60869L0.723281 3.03384H1.17028L0.808641 3.29667L0.946828 3.72178L0.585141 3.459L0.223453 3.72178L0.361641 3.29667L1.19209e-07 3.03384H0.447L0.585141 2.60869Z" fill="var(--fill-0, #F0F0F0)"/>
<path id="Vector_3" d="M1.62863 1.5652L1.76677 1.99036H2.21381L1.85213 2.25319L1.99027 2.6783L1.62863 2.41556L1.26698 2.6783L1.40517 2.25319L1.04348 1.99036H1.49044L1.62863 1.5652Z" fill="var(--fill-0, #F0F0F0)"/>
<path id="Vector_4" d="M2.67211 0.521719L2.81025 0.946875H3.2572L2.89561 1.2097L3.0337 1.63481L2.67211 1.37208L2.31042 1.63481L2.44856 1.2097L2.08697 0.946875H2.53392L2.67211 0.521719Z" fill="var(--fill-0, #F0F0F0)"/>
<path id="Vector_5" d="M7.76269 2.60869L7.62455 3.03384H7.17759L7.53919 3.29667L7.40105 3.72178L7.76269 3.459L8.12438 3.72178L7.98623 3.29667L8.34783 3.03384H7.90088L7.76269 2.60869Z" fill="var(--fill-0, #F0F0F0)"/>
<path id="Vector_6" d="M6.7192 1.5652L6.58106 1.99036H6.13411L6.4957 2.25319L6.35756 2.6783L6.7192 2.41556L7.08089 2.6783L6.9427 2.25319L7.30434 1.99036H6.85739L6.7192 1.5652Z" fill="var(--fill-0, #F0F0F0)"/>
<path id="Vector_7" d="M5.67577 0.521719L5.53758 0.946875H5.09062L5.45222 1.2097L5.31408 1.63481L5.67577 1.37208L6.03741 1.63481L5.89927 1.2097L6.26086 0.946875H5.81391L5.67577 0.521719Z" fill="var(--fill-0, #F0F0F0)"/>
<path id="Vector_8" d="M4.17394 0L4.03575 0.425156H3.5888L3.95039 0.687938L3.81225 1.11305L4.17394 0.850312L4.53558 1.11305L4.39744 0.687938L4.75903 0.425156H4.31208L4.17394 0Z" fill="var(--fill-0, #F0F0F0)"/>
</g>
</svg>
