<svg preserveAspectRatio="none" width="100%" height="100%" overflow="visible" style="display: block;" viewBox="0 0 7 4" fill="none" xmlns="http://www.w3.org/2000/svg">
<path id="Vector" d="M1.42327 2.83495C2.09569 3.25753 2.78653 3.50287 3.1402 3.612C3.49387 3.50292 4.18472 3.25753 4.85714 2.83495C5.53523 2.40876 6.01059 1.92136 6.2805 1.37831C5.9828 1.1677 5.61956 1.04348 5.22717 1.04348C5.0843 1.04348 4.9455 1.0604 4.81205 1.09148C4.52925 0.448921 3.8873 0 3.14025 0C2.3932 0 1.7512 0.448921 1.46845 1.09148C1.335 1.0604 1.19616 1.04348 1.05333 1.04348C0.660938 1.04348 0.297703 1.1677 0 1.37831C0.269766 1.92131 0.745125 2.40872 1.42327 2.83495Z" fill="var(--fill-0, #0052B4)"/>
</svg>
