<svg preserveAspectRatio="none" width="100%" height="100%" overflow="visible" style="display: block;" viewBox="0 0 24 18" fill="none" xmlns="http://www.w3.org/2000/svg">
<g id="Group">
<path id="Vector" d="M0 15C0.273984 16.0643 0.690516 17.0714 1.2277 18H22.0162C22.5533 17.0714 22.9699 16.0643 23.2439 15L11.622 14.087L0 15Z" fill="var(--fill-0, #0052B4)"/>
<path id="Vector_2" d="M23.2439 9C22.9699 7.93566 22.5534 6.92859 22.0162 6L11.622 5.73914C11.622 3.64322 11.622 1.66242 11.622 0C10.7305 0 9.86175 0.0972656 9.02573 0.281625C9.0097 0.285187 1.18716 6.45553 1.18716 12C1.38717 12.0348 11.622 13.0435 11.622 13.0435C11.622 13.0435 11.622 10.7578 11.622 9H23.2439Z" fill="var(--fill-0, #0052B4)"/>
</g>
</svg>
