<svg preserveAspectRatio="none" width="100%" height="100%" overflow="visible" style="display: block;" viewBox="0 0 14 14" fill="none" xmlns="http://www.w3.org/2000/svg">
<g id="Group">
<path id="Vector" d="M6.78258 2.38419e-07L7.30055 1.59431H8.97698L7.6208 2.57967L8.13877 4.17394L6.78258 3.18863L5.42634 4.17394L5.94445 2.57967L4.58822 1.59431H6.26461L6.78258 2.38419e-07Z" fill="var(--fill-0, #F0F0F0)"/>
<path id="Vector_2" d="M2.38419e-07 6.78272L1.59431 6.26466V4.58822L2.57967 5.9445L4.17394 5.42648L3.18863 6.78272L4.17394 8.13881L2.57967 7.62075L1.59431 8.97698V7.30064L2.38419e-07 6.78272Z" fill="var(--fill-0, #F0F0F0)"/>
<path id="Vector_3" d="M6.78267 13.5653L6.26466 11.9709H4.58822L5.9445 10.9856L5.42648 9.39131L6.78267 10.3766L8.13881 9.39131L7.62075 10.9856L8.97698 11.9709H7.30064L6.78267 13.5653Z" fill="var(--fill-0, #F0F0F0)"/>
<path id="Vector_4" d="M13.5653 6.78258L11.9709 7.30059V8.97698L10.9856 7.62075L9.39131 8.13877L10.3766 6.78258L9.39131 5.42644L10.9856 5.9445L11.9709 4.58822V6.26461L13.5653 6.78258Z" fill="var(--fill-0, #F0F0F0)"/>
</g>
</svg>
