<svg preserveAspectRatio="none" width="100%" height="100%" overflow="visible" style="display: block;" viewBox="0 0 13 20" fill="none" xmlns="http://www.w3.org/2000/svg">
<path id="Vector" d="M12.087 13.0435H9.82605L8.86956 14.0869V16.1739H6.78259V15.1304H7.82608V13.0435H3.13041V14.3478H2.08693V11.862C1.76677 11.5754 1.56521 11.1591 1.56521 10.6956V3.91304C1.56521 3.04862 2.26599 2.34783 3.13041 2.34783V12H5.21739L5.93345 11.4033C5.80839 11.1054 5.73911 10.7782 5.73911 10.4348V8.86961H4.1739V5.7392H7.30431C7.30431 5.21748 8.08694 4.69571 8.08694 4.69571C8.08694 4.69571 8.86956 5.21743 8.86956 5.7392V6.52183V8.86966C9.45002 8.87655 10.3722 8.8615 11.3686 8.86966C11.1068 8.41216 10.9565 7.8693 10.9565 7.30445C10.9565 6.38378 11.354 5.55606 11.9867 4.98324C11.0747 2.96222 9.61942 1.239 7.80691 0H0V19.8261H7.80695C10.011 18.3195 11.6867 16.0971 12.4997 13.4937L12.087 13.0435Z" fill="var(--fill-0, #A2001D)"/>
</svg>
