<svg preserveAspectRatio="none" width="100%" height="100%" overflow="visible" style="display: block;" viewBox="0 0 78 22" fill="none" xmlns="http://www.w3.org/2000/svg">
<g id="Group 18">
<path id="i" d="M11.6016 21.3862V5.92253H15.2214V21.3862H11.6016Z" fill="var(--fill-0, white)"/>
<path id="m" d="M38.1854 5.74826C39.421 5.74826 40.5117 5.98958 41.4577 6.47222C42.423 6.95486 43.1759 7.69812 43.7165 8.70201C44.257 9.68659 44.5273 10.9608 44.5273 12.5245V21.3857H40.9075V12.9878C40.9075 11.6171 40.6083 10.5939 40.0098 9.91825C39.4113 9.24256 38.5522 8.90471 37.4325 8.90471C36.641 8.90471 35.9363 9.07846 35.3186 9.42596C34.7201 9.77346 34.2471 10.2851 33.8996 10.9608C33.5714 11.6364 33.4073 12.4955 33.4073 13.538V21.3857H29.7875V12.9878C29.7875 11.6171 29.4883 10.5939 28.8898 9.91825C28.2914 9.24256 27.4323 8.90471 26.3125 8.90471C25.521 8.90471 24.8164 9.07846 24.1986 9.42596C23.6001 9.77346 23.1271 10.2851 22.7796 10.9608C22.4514 11.6364 22.2873 12.4955 22.2873 13.538V21.3857H18.6676V5.92201H22.1136V10.0341L21.5055 8.81784C22.0267 7.81395 22.7796 7.05139 23.7642 6.53014C24.7681 6.00889 25.9071 5.74826 27.1813 5.74826C28.6292 5.74826 29.8841 6.10542 30.9459 6.81972C32.027 7.53402 32.7413 8.61513 33.0888 10.063L31.6698 9.57075C32.1718 8.41242 33.0019 7.48576 34.1602 6.79076C35.3186 6.09576 36.6603 5.74826 38.1854 5.74826Z" fill="var(--fill-0, white)"/>
<path id="e" d="M55.5601 21.5884C53.8419 21.5884 52.3361 21.2506 51.0426 20.5749C49.7684 19.8799 48.7742 18.9339 48.0599 17.737C47.3649 16.54 47.0174 15.179 47.0174 13.6539C47.0174 12.1094 47.3552 10.7484 48.0309 9.57075C48.7259 8.37381 49.6719 7.4375 50.8688 6.7618C52.0851 6.08611 53.4654 5.74826 55.0099 5.74826C56.5157 5.74826 57.8574 6.07646 59.0351 6.73284C60.2127 7.38923 61.1394 8.3159 61.8151 9.51284C62.4908 10.7098 62.8286 12.1191 62.8286 13.7407C62.8286 13.8952 62.8189 14.0689 62.7996 14.262C62.7996 14.455 62.79 14.6385 62.7707 14.8122H49.8843V12.4087H60.8594L59.4405 13.1616C59.4598 12.2735 59.2764 11.4917 58.8903 10.816C58.5042 10.1403 57.9733 9.60937 57.2976 9.22326C56.6412 8.83715 55.8786 8.64409 55.0099 8.64409C54.1218 8.64409 53.3399 8.83715 52.6642 9.22326C52.0079 9.60937 51.4866 10.1499 51.1005 10.8449C50.7337 11.5206 50.5503 12.3218 50.5503 13.2485V13.8276C50.5503 14.7543 50.7627 15.5748 51.1874 16.2891C51.6121 17.0034 52.2106 17.5536 52.9828 17.9397C53.755 18.3258 54.6431 18.5189 55.6469 18.5189C56.5157 18.5189 57.2976 18.3837 57.9926 18.1134C58.6876 17.8432 59.3053 17.4184 59.8459 16.8393L61.7861 19.0691C61.0911 19.8799 60.2127 20.5073 59.1509 20.9514C58.1084 21.3761 56.9115 21.5884 55.5601 21.5884Z" fill="var(--fill-0, white)"/>
<path id="8" d="M71.3794 22.0005C70.0696 22.0005 68.9391 21.8133 67.9879 21.4391C67.0524 21.0649 66.3273 20.5269 65.8127 19.8252C65.3137 19.108 65.0643 18.2659 65.0643 17.2992C65.0643 16.3636 65.306 15.5684 65.7893 14.9135C66.2883 14.243 67.0056 13.7284 67.9412 13.3698C68.8923 13.0111 70.0384 12.8318 71.3794 12.8318C72.7048 12.8318 73.8431 13.0111 74.7942 13.3698C75.7454 13.7284 76.4705 14.243 76.9695 14.9135C77.484 15.5684 77.7413 16.3636 77.7413 17.2992C77.7413 18.2659 77.484 19.108 76.9695 19.8252C76.4549 20.5269 75.722 21.0649 74.7709 21.4391C73.8197 21.8133 72.6892 22.0005 71.3794 22.0005ZM71.3794 20.5737C72.8295 20.5737 73.96 20.2774 74.7709 19.6849C75.5973 19.0924 76.0105 18.2893 76.0105 17.2758C76.0105 16.2623 75.5973 15.467 74.7709 14.8901C73.96 14.2976 72.8295 14.0013 71.3794 14.0013C69.9293 14.0013 68.7988 14.2976 67.9879 14.8901C67.1771 15.467 66.7717 16.2623 66.7717 17.2758C66.7717 18.2893 67.1771 19.0924 67.9879 19.6849C68.7988 20.2774 69.9293 20.5737 71.3794 20.5737ZM71.3794 13.7908C70.1631 13.7908 69.1262 13.6271 68.2686 13.2996C67.4266 12.9722 66.7795 12.5044 66.3273 11.8962C65.8751 11.2725 65.649 10.5319 65.649 9.67426C65.649 8.76987 65.8829 7.99802 66.3507 7.35871C66.8341 6.70381 67.5046 6.20483 68.3622 5.86179C69.2198 5.51874 70.2255 5.34722 71.3794 5.34722C72.5333 5.34722 73.539 5.51874 74.3966 5.86179C75.2698 6.20483 75.9481 6.70381 76.4315 7.35871C76.9149 7.99802 77.1566 8.76987 77.1566 9.67426C77.1566 10.5319 76.9305 11.2725 76.4783 11.8962C76.0261 12.5044 75.3634 12.9722 74.4902 13.2996C73.6326 13.6271 72.5956 13.7908 71.3794 13.7908ZM71.3794 12.6681C72.658 12.6681 73.656 12.403 74.3732 11.8729C75.0905 11.3427 75.4491 10.6332 75.4491 9.74442C75.4491 8.80885 75.0749 8.08378 74.3265 7.56921C73.5936 7.03905 72.6112 6.77397 71.3794 6.77397C70.1476 6.77397 69.1652 7.03905 68.4323 7.56921C67.6995 8.08378 67.333 8.80105 67.333 9.72103C67.333 10.6254 67.6839 11.3427 68.3856 11.8729C69.1028 12.403 70.1008 12.6681 71.3794 12.6681Z" fill="var(--fill-0, white)"/>
<rect id="Rectangle 693" x="11.5825" width="10.4695" height="3.56409" rx="1.78205" fill="url(#paint0_linear_26102_43564)"/>
<path id="Union" d="M3.78688 5.90419H8.47802V9.08955H3.78688V16.0396C3.78688 17.1468 4.68446 18.0444 5.79168 18.0444H6.01444C6.76908 18.0444 7.45259 17.8481 7.90482 17.6774L9.13302 20.6061C9.13302 20.6061 7.90786 21.3857 5.56892 21.3857H4.78928C2.14425 21.3857 2.71201e-05 19.2415 2.71201e-05 16.5965V1.7832H3.78688V5.90419Z" fill="var(--fill-0, white)"/>
</g>
<defs>
<linearGradient id="paint0_linear_26102_43564" x1="11.5825" y1="1.78205" x2="22.052" y2="1.78205" gradientUnits="userSpaceOnUse">
<stop stop-color="#FDE047"/>
<stop offset="0.899038" stop-color="#FDE047" stop-opacity="0"/>
</linearGradient>
</defs>
</svg>
