<svg preserveAspectRatio="none" width="100%" height="100%" overflow="visible" style="display: block;" viewBox="0 0 24 24" fill="none" xmlns="http://www.w3.org/2000/svg">
<g id="Group">
<path id="Vector" d="M2.06723 4.28077C1.12462 5.50716 0.413859 6.92067 0 8.45625H6.24272L2.06723 4.28077Z" fill="var(--fill-0, #0052B4)"/>
<path id="Vector_2" d="M23.1732 8.45625C22.7594 6.92072 22.0485 5.5072 21.106 4.28081L16.9306 8.45625H23.1732Z" fill="var(--fill-0, #0052B4)"/>
<path id="Vector_3" d="M0 14.7171C0.413906 16.2526 1.12467 17.6662 2.06723 18.8925L6.24258 14.7171H0Z" fill="var(--fill-0, #0052B4)"/>
<path id="Vector_4" d="M18.8925 2.06728C17.6661 1.12467 16.2526 0.413906 14.717 0V6.24267L18.8925 2.06728Z" fill="var(--fill-0, #0052B4)"/>
<path id="Vector_5" d="M4.28077 21.1059C5.50716 22.0485 6.92067 22.7593 8.4562 23.1732V16.9306L4.28077 21.1059Z" fill="var(--fill-0, #0052B4)"/>
<path id="Vector_6" d="M8.45616 0C6.92062 0.413906 5.50711 1.12467 4.28077 2.06723L8.45616 6.24262V0Z" fill="var(--fill-0, #0052B4)"/>
<path id="Vector_7" d="M14.7171 23.1732C16.2526 22.7593 17.6661 22.0485 18.8925 21.106L14.7171 16.9306V23.1732Z" fill="var(--fill-0, #0052B4)"/>
<path id="Vector_8" d="M16.9306 14.7171L21.106 18.8925C22.0485 17.6662 22.7594 16.2526 23.1732 14.7171H16.9306Z" fill="var(--fill-0, #0052B4)"/>
</g>
</svg>
