<svg preserveAspectRatio="none" width="100%" height="100%" overflow="visible" style="display: block;" viewBox="0 0 9 10" fill="none" xmlns="http://www.w3.org/2000/svg">
<path id="Vector" d="M4.17389 0C1.87238 0 0 1.87242 0 4.17389V5.73909C0 8.04061 1.87242 9.91298 4.17389 9.91298C6.47536 9.91298 8.34778 8.04056 8.34778 5.73909V4.17389C8.34783 1.87242 6.47541 0 4.17389 0ZM6.78258 5.73914C6.78258 6.90502 6.01373 7.8945 4.95647 8.22773V6.52177L6.06384 5.41439L4.95708 4.30762L4.95647 3.91373V3.39136H3.39131V4.95652L2.28469 6.06309L3.39131 7.16967V8.22778C2.33405 7.89455 1.5652 6.90506 1.5652 5.73919V4.17398C1.5652 2.73553 2.73548 1.5653 4.17389 1.5653C5.6123 1.5653 6.78258 2.73558 6.78258 4.17398V5.73914Z" fill="var(--fill-0, #FFDA44)"/>
</svg>
