<svg preserveAspectRatio="none" width="100%" height="100%" overflow="visible" style="display: block;" viewBox="0 0 9 9" fill="none" xmlns="http://www.w3.org/2000/svg">
<g id="Group">
<path id="Vector" d="M4.17389 0C1.86867 0 0 1.86872 0 4.17389C0 6.47906 1.86872 8.34778 4.17389 8.34778C6.47906 8.34778 8.34778 6.47906 8.34778 4.17389C8.34778 1.86872 6.47911 0 4.17389 0ZM4.17389 6.78258C2.73314 6.78258 1.5652 5.61459 1.5652 4.17389C1.5652 2.73319 2.73319 1.5652 4.17389 1.5652C5.61459 1.5652 6.78258 2.73319 6.78258 4.17389C6.78258 5.61459 5.61464 6.78258 4.17389 6.78258Z" fill="var(--fill-0, #FFDA44)"/>
<path id="Vector_2" d="M4.17389 2.60869C3.59756 2.60869 3.13041 3.07584 3.13041 3.65217V5.21737H5.21737V3.65217C5.21737 3.07584 4.75022 2.60869 4.17389 2.60869V2.60869Z" fill="var(--fill-0, #FFDA44)"/>
</g>
</svg>
