<svg preserveAspectRatio="none" width="100%" height="100%" overflow="visible" style="display: block;" viewBox="0 0 20 20" fill="none" xmlns="http://www.w3.org/2000/svg">
<path id="Vector" d="M19.0404 16.8269L11.7338 9.52026H11.7337L19.0404 2.21353C18.7253 1.80403 18.3806 1.41005 18.0055 1.03491C17.6304 0.659813 17.2365 0.315047 16.8269 0L9.52026 7.30664L9.52022 7.30669L2.21358 0C1.80412 0.315094 1.41009 0.659766 1.03495 1.03491C0.659813 1.41005 0.315094 1.80403 4.68492e-05 2.21353L7.30669 9.52012L7.30673 9.52017L0 16.8269C0.315141 17.2364 0.659859 17.6304 1.03491 18.0055C1.41005 18.3806 1.80398 18.7254 2.21353 19.0404L9.52022 11.7338L9.52026 11.7337L16.8269 19.0404C17.2364 18.7253 17.6304 18.3806 18.0055 18.0055C18.3807 17.6303 18.7253 17.2364 19.0404 16.8269V16.8269Z" fill="var(--fill-0, #D80027)"/>
</svg>
