<svg preserveAspectRatio="none" width="100%" height="100%" overflow="visible" style="display: block;" viewBox="0 0 24 24" fill="none" xmlns="http://www.w3.org/2000/svg">
<path id="Vector" d="M13.5652 23.8984V13.5653V13.5652H23.8984C23.9652 13.0529 24 12.5305 24 12C24 11.4696 23.9652 10.9472 23.8984 10.4348H13.5653L13.5652 10.4348V0.101625C13.0529 0.0349219 12.5306 0 12 0C11.4695 4.6875e-05 10.9471 0.0349219 10.4348 0.101625L10.4348 10.4347V10.4348H0.101625C0.034875 10.9471 0 11.4695 0 12C4.6875e-05 12.5306 0.034875 13.0529 0.101625 13.5652H10.4348L10.4348 23.8984C10.9472 23.9651 11.4694 24 12 24C12.5306 24 13.0529 23.9651 13.5652 23.8984V23.8984Z" fill="var(--fill-0, #F0F0F0)"/>
</svg>
