<svg preserveAspectRatio="none" width="100%" height="100%" overflow="visible" style="display: block;" viewBox="0 0 24 24" fill="none" xmlns="http://www.w3.org/2000/svg">
<g id="Group">
<path id="Vector" d="M23.8984 10.4348H13.5653H13.5652V0.101578C13.0529 0.034875 12.5305 0 12 0C11.4694 0 10.9471 0.034875 10.4348 0.101578V10.4347V10.4348H0.101578C0.034875 10.9471 0 11.4695 0 12C0 12.5306 0.034875 13.0529 0.101578 13.5652H10.4347H10.4348V23.8984C10.9471 23.9651 11.4694 24 12 24C12.5305 24 13.0529 23.9652 13.5652 23.8984V13.5653V13.5652H23.8984C23.9651 13.0529 24 12.5306 24 12C24 11.4695 23.9651 10.9471 23.8984 10.4348V10.4348Z" fill="var(--fill-0, #D80027)"/>
<path id="Vector_2" d="M15.1305 15.1305L20.4853 20.4853C20.7315 20.2391 20.9665 19.9817 21.1906 19.7149L16.6062 15.1305H15.1305V15.1305Z" fill="var(--fill-0, #D80027)"/>
<path id="Vector_3" d="M8.86955 15.1305H8.86945L3.51469 20.4853C3.76088 20.7315 4.01827 20.9665 4.28508 21.1906L8.86955 16.6061V15.1305Z" fill="var(--fill-0, #D80027)"/>
<path id="Vector_4" d="M8.86955 8.86964V8.86955L3.51473 3.51469C3.26845 3.76088 3.03352 4.01827 2.80936 4.28508L7.39387 8.86959H8.86955V8.86964Z" fill="var(--fill-0, #D80027)"/>
<path id="Vector_5" d="M15.1305 8.86964L20.4853 3.51473C20.2391 3.26845 19.9817 3.03352 19.7149 2.80941L15.1305 7.39392V8.86964Z" fill="var(--fill-0, #D80027)"/>
</g>
</svg>
