<svg preserveAspectRatio="none" width="100%" height="100%" overflow="visible" style="display: block;" viewBox="0 0 8 7" fill="none" xmlns="http://www.w3.org/2000/svg">
<path id="Vector" d="M7.81064 4.64916e-05H6.24061C6.25359 0.172593 6.26095 0.346687 6.26095 0.521765C6.26095 1.68258 5.9708 2.80772 5.46497 3.60863C5.30892 3.85566 5.0467 4.2045 4.6957 4.43981V0H3.1305V4.43981C2.77955 4.2045 2.51728 3.8557 2.36123 3.60863C1.85536 2.80772 1.56525 1.68258 1.56525 0.521765C1.56525 0.346687 1.57266 0.172546 1.58559 4.64916e-05H0.0155625C0.00548441 0.17175 0 0.345656 0 0.521765C0 3.74002 1.71881 6.26091 3.91303 6.26091C6.10725 6.26091 7.82606 3.74002 7.82606 0.521765C7.82616 0.345656 7.82067 0.17175 7.81064 4.64916e-05V4.64916e-05Z" fill="var(--fill-0, #D80027)"/>
</svg>
