<svg preserveAspectRatio="none" width="100%" height="100%" overflow="visible" style="display: block;" viewBox="0 0 8 8" fill="none" xmlns="http://www.w3.org/2000/svg">
<g id="Group">
<path id="Vector" d="M0.957516 1.98717L1.09716 1.88573L2.3985 2.83125L1.90148 1.30139L3.20273 0.355734H2.71027C2.07305 0.840375 1.48584 1.38713 0.957516 1.98717V1.98717Z" fill="var(--fill-0, #FFDA44)"/>
<path id="Vector_2" d="M6.26091 5.96046e-08L6.51994 0.797109H7.35806L6.68002 1.28981L6.93891 2.08692L6.26091 1.59427L5.58286 2.08692L5.8417 1.28981L5.16366 0.797109H6.00183L6.26091 5.96046e-08Z" fill="var(--fill-0, #FFDA44)"/>
<path id="Vector_3" d="M1.0972 5.21738L1.35623 6.01448H2.19436L1.51636 6.50723L1.77525 7.30434L1.0972 6.81164L0.41911 7.30434L0.678 6.50723L1.19209e-07 6.01448H0.838125L1.0972 5.21738Z" fill="var(--fill-0, #FFDA44)"/>
</g>
</svg>
