<svg preserveAspectRatio="none" width="100%" height="100%" overflow="visible" style="display: block;" viewBox="0 0 11 9" fill="none" xmlns="http://www.w3.org/2000/svg">
<g id="Group">
<path id="Vector" d="M5.47823 7.56525C3.6053 7.56525 2.08692 6.04688 2.08692 4.17394C2.08692 2.301 3.6053 0.782625 5.47823 0.782625C6.0622 0.782625 6.61172 0.930282 7.09144 1.19025C6.33881 0.454266 5.30962 0 4.17389 0C1.86867 0 0 1.86872 0 4.17389C0 6.47906 1.86872 8.34778 4.17389 8.34778C5.30967 8.34778 6.33886 7.89352 7.09144 7.15753C6.61172 7.41759 6.0622 7.56525 5.47823 7.56525Z" fill="var(--fill-0, #F0F0F0)"/>
<path id="Vector_2" d="M8.08692 1.82611L8.53612 3.08944L9.74709 2.51372L9.17142 3.72469L10.4347 4.17394L9.17142 4.62319L9.74709 5.83416L8.53612 5.25844L8.08692 6.52177L7.63777 5.25844L6.42675 5.83416L7.00247 4.62319L5.73909 4.17394L7.00247 3.72469L6.42675 2.51372L7.63777 3.08944L8.08692 1.82611Z" fill="var(--fill-0, #F0F0F0)"/>
</g>
</svg>
