<svg preserveAspectRatio="none" width="100%" height="100%" overflow="visible" style="display: block;" viewBox="0 0 13 15" fill="none" xmlns="http://www.w3.org/2000/svg">
<path id="Vector" d="M0.75 12.4167V2.41667C0.75 1.97464 0.925595 1.55072 1.23816 1.23816C1.55072 0.925595 1.97464 0.75 2.41667 0.75H11.4167V14.0833H2.41667C1.97464 14.0833 1.55072 13.9077 1.23816 13.5952C0.925595 13.2826 0.75 12.8587 0.75 12.4167ZM0.75 12.4167C0.75 11.9746 0.925595 11.5507 1.23816 11.2382C1.55072 10.9256 1.97464 10.75 2.41667 10.75H11.4167M6.08333 6.08333C6.81971 6.08333 7.41667 5.48638 7.41667 4.75C7.41667 4.01362 6.81971 3.41667 6.08333 3.41667C5.34695 3.41667 4.75 4.01362 4.75 4.75C4.75 5.48638 5.34695 6.08333 6.08333 6.08333ZM6.08333 6.08333C6.61377 6.08333 7.12247 6.29405 7.49755 6.66912C7.87262 7.04419 8.08333 7.5529 8.08333 8.08333M6.08333 6.08333C5.5529 6.08333 5.04419 6.29405 4.66912 6.66912C4.29405 7.04419 4.08333 7.5529 4.08333 8.08333" stroke="var(--stroke-0, #FAFAFA)" stroke-width="1.5" stroke-linecap="round" stroke-linejoin="round"/>
</svg>
