<svg preserveAspectRatio="none" width="100%" height="100%" overflow="visible" style="display: block;" viewBox="0 0 5 5" fill="none" xmlns="http://www.w3.org/2000/svg">
<g id="Group">
<path id="Vector" d="M0.260579 2.08697C0.172594 2.08697 0.0857346 2.09147 2.38419e-07 2.1C0.00314086 2.60583 0.186141 3.06881 0.488391 3.42848C0.649641 2.99456 0.890391 2.59889 1.194 2.26027C0.904032 2.14875 0.589454 2.08697 0.260579 2.08697Z" fill="var(--fill-0, #FFDA44)"/>
<path id="Vector_2" d="M1.38473 4.05258C1.60411 4.13095 1.84031 4.17394 2.08669 4.17394C2.33306 4.17394 2.56927 4.13095 2.78864 4.05258C2.66906 3.58327 2.42217 3.1643 2.08669 2.83505C1.7512 3.16425 1.50431 3.58327 1.38473 4.05258Z" fill="var(--fill-0, #FFDA44)"/>
<path id="Vector_3" d="M3.89395 1.04381C3.53311 0.420094 2.85919 4.76837e-07 2.08669 4.76837e-07C1.31419 4.76837e-07 0.640267 0.420048 0.279423 1.04381C0.937267 1.04714 1.55414 1.22602 2.08669 1.53488C2.61923 1.22602 3.23602 1.04714 3.89395 1.04381Z" fill="var(--fill-0, #FFDA44)"/>
<path id="Vector_4" d="M2.97928 2.26031C3.28289 2.59889 3.52364 2.99456 3.68489 3.42853C3.98714 3.06886 4.17014 2.60588 4.17328 2.10005C4.0875 2.09147 4.00064 2.08702 3.9127 2.08702C3.58392 2.08697 3.26934 2.14875 2.97928 2.26031V2.26031Z" fill="var(--fill-0, #FFDA44)"/>
</g>
</svg>
