<svg preserveAspectRatio="none" width="100%" height="100%" overflow="visible" style="display: block;" viewBox="0 0 24 22" fill="none" xmlns="http://www.w3.org/2000/svg">
<g id="Group">
<path id="Vector" d="M12 8.86955H23.5866C23.2857 7.75327 22.8284 6.70134 22.2387 5.73909H12V8.86955Z" fill="var(--fill-0, #338AF3)"/>
<path id="Vector_2" d="M4.53014 21.3913H19.4698C20.565 20.5191 21.5041 19.4596 22.2387 18.2609H1.76128C2.49586 19.4595 3.43505 20.5191 4.53014 21.3913V21.3913Z" fill="var(--fill-0, #338AF3)"/>
<path id="Vector_3" d="M4.17389 2.90339C3.23048 3.71578 2.41491 4.67245 1.76128 5.73914H4.17389V2.90339Z" fill="var(--fill-0, #338AF3)"/>
<path id="Vector_4" d="M12 12C12 10.7777 12 9.75473 12 8.86955H7.30434V12H4.17389V8.86955H0.413391C0.144375 9.8677 0 10.9169 0 12C0 13.0831 0.144375 14.1323 0.413391 15.1305H23.5867C23.8556 14.1323 24 13.0831 24 12H12Z" fill="var(--fill-0, #338AF3)"/>
<path id="Vector_5" d="M12 0C10.3336 0 8.74669 0.339984 7.30434 0.953812V5.73914H12C12 4.64639 12 3.717 12 2.60869H19.4699C17.42 0.976125 14.8242 0 12 0V0Z" fill="var(--fill-0, #338AF3)"/>
</g>
</svg>
