<svg preserveAspectRatio="none" width="100%" height="100%" overflow="visible" style="display: block;" viewBox="0 0 12 12" fill="none" xmlns="http://www.w3.org/2000/svg">
<g id="Group">
<path id="Vector" d="M12 0C11.9993 0 11.9986 4.6875e-05 11.998 4.6875e-05L12 0Z" fill="var(--fill-0, #F0F0F0)"/>
<path id="Vector_2" d="M11.9679 12H12C12 11.9891 12 11.9787 12 11.9679C11.9893 11.9786 11.9786 11.9893 11.9679 12Z" fill="var(--fill-0, #F0F0F0)"/>
<path id="Vector_3" d="M12 6.26091C12 4.14942 12 2.76581 12 4.6875e-05H11.998C5.3715 0.001125 0 5.37323 0 12H6.26086V8.47444L9.78642 12H11.9679C11.9787 11.9893 11.9894 11.9786 12 11.9679C12 11.1594 12 10.4381 12 9.78651L8.47444 6.26091H12Z" fill="var(--fill-0, #F0F0F0)"/>
</g>
</svg>
