<svg preserveAspectRatio="none" width="100%" height="100%" overflow="visible" style="display: block;" viewBox="0 0 15 14" fill="none" xmlns="http://www.w3.org/2000/svg">
<path id="Vector" d="M14.1832 5.15231H8.76572L7.09162 0L5.41753 5.15231H0L4.38286 8.33662L2.70872 13.4891L7.09162 10.3047L11.4745 13.4891L9.80039 8.33667L14.1832 5.15231ZM5.60953 7.93805L6.17564 6.19575H8.00756L8.57372 7.93805V7.93809L7.09162 9.01486L5.60958 7.93809L5.60953 7.93805ZM7.66856 5.15231H6.51473L7.09162 3.37669L7.66856 5.15231ZM9.4613 7.29319L9.10472 6.1958H10.9717L9.4613 7.29319ZM5.07848 6.1958L4.72191 7.29319L3.21145 6.1958H5.07848ZM4.69355 10.7572L5.27048 8.98163L6.204 9.65981L4.69355 10.7572ZM7.97925 9.65986L8.91277 8.98167L9.4897 10.7572L7.97925 9.65986Z" fill="var(--fill-0, #FFDA44)"/>
</svg>
