<svg preserveAspectRatio="none" width="100%" height="100%" overflow="visible" style="display: block;" viewBox="0 0 10 11" fill="none" xmlns="http://www.w3.org/2000/svg">
<path id="Vector" d="M8.96339 8.52277C8.47045 8.71636 7.89769 8.69583 7.40076 8.41697C6.5228 7.92422 6.20939 6.80887 6.70228 5.93077L6.55266 5.84686C8.05598 5.48438 9.16819 4.11984 9.14869 2.50959C9.13659 1.50848 8.68926 0.612844 7.98956 0L6.89395 1.12247C7.30814 1.45256 7.57669 1.95891 7.58358 2.52858C7.59577 3.53545 6.78661 4.36453 5.77978 4.37667L5.78189 4.54809C4.71628 3.4275 2.97853 3.14658 1.5938 3.96858C0.73289 4.4797 0.180984 5.31483 0 6.22725L1.51987 6.61491C1.59867 6.09112 1.90284 5.60541 2.39273 5.31455C3.25856 4.80056 4.38113 5.08688 4.89511 5.95266L5.04267 5.86514C4.60495 7.34817 5.2305 8.99363 6.63483 9.78188C7.50792 10.2719 8.50711 10.3323 9.3878 10.0328L8.96339 8.52277ZM5.79239 5.41992L5.7923 5.41997L5.79239 5.41992Z" fill="var(--fill-0, #FF9811)"/>
</svg>
