<svg preserveAspectRatio="none" width="100%" height="100%" overflow="visible" style="display: block;" viewBox="0 0 23 16" fill="none" xmlns="http://www.w3.org/2000/svg">
<g id="Group">
<path id="Vector" d="M22.4232 7.18752H8.42848L1.23989 0C1.00753 0.245062 0.755671 0.587249 0.599905 0.830951L7.47453 7.70919L0.59414 14.5897C0.730358 14.8321 1.02712 15.1908 1.23548 15.4241L8.42862 8.231H22.4249C22.4324 8.05794 22.4347 7.88413 22.4347 7.70928C22.4347 7.475 22.4282 7.30227 22.4232 7.18752Z" fill="var(--fill-0, #FFDA44)"/>
<path id="Vector_2" d="M1.34972 10.2717V9.26651C2.35275 9.26651 3.1687 8.45047 3.1687 7.44753C3.1687 6.73789 2.59134 6.16058 1.88175 6.16058C1.39833 6.16058 1.005 6.55386 1.005 7.03738C1.005 7.34652 1.25648 7.59805 1.56567 7.59805C1.74042 7.59805 1.88259 7.45578 1.88259 7.28103H2.88768C2.88768 8.01008 2.29462 8.60314 1.56572 8.60314C0.702327 8.60319 5.42756e-08 7.90072 5.42756e-08 7.03747C5.42756e-08 5.9998 0.844217 5.15563 1.88179 5.15563C3.14563 5.15563 4.17388 6.18388 4.17388 7.44767C4.17384 9.00472 2.90695 10.2717 1.34972 10.2717V10.2717Z" fill="var(--fill-0, #FFDA44)"/>
</g>
</svg>
