<svg preserveAspectRatio="none" width="100%" height="100%" overflow="visible" style="display: block;" viewBox="0 0 12 13" fill="none" xmlns="http://www.w3.org/2000/svg">
<g id="Group">
<path id="Vector" d="M3.36084 3.54231L4.37813 4.28059L3.99047 5.47627L5.007 4.73677L6.02438 5.47506L5.63522 4.27974L6.65166 3.54034L5.3947 3.54109L5.0055 2.34582L4.6178 3.54151L3.36084 3.54231Z" fill="var(--fill-0, #FFDA44)"/>
<path id="Vector_2" d="M8.00625 0.801853C7.06064 0.2559 6.02672 -0.00177208 5.00625 9.17058e-06V1.56488C5.76052 1.56352 6.52467 1.75384 7.22362 2.15743C9.34134 3.38012 10.0695 6.09774 8.84681 8.21546C7.62417 10.3332 4.90659 11.0614 2.78883 9.8387C2.17186 9.48249 1.67381 8.99884 1.30669 8.4407L0 9.30339C0.496734 10.0585 1.17155 10.7123 2.00625 11.1941C4.87144 12.8484 8.54817 11.8632 10.2023 8.99799C11.8566 6.13281 10.8714 2.45607 8.00625 0.801853V0.801853Z" fill="var(--fill-0, #FFDA44)"/>
<path id="Vector_3" d="M1.54641 4.95451C1.13156 5.7129 1.41009 6.66404 2.16844 7.07888L7.25198 9.8567C6.90628 10.4886 7.08989 11.2578 7.72181 11.6035L9.09502 12.3547C9.72694 12.7004 10.5196 12.4683 10.8653 11.8363L11.6165 10.4632L1.54641 4.95451Z" fill="var(--fill-0, #FFDA44)"/>
</g>
</svg>
