<svg preserveAspectRatio="none" width="100%" height="100%" overflow="visible" style="display: block;" viewBox="0 0 11 16" fill="none" xmlns="http://www.w3.org/2000/svg">
<g id="Group">
<path id="Vector" d="M1.09716 13.0435L1.35619 13.8406H2.19436L1.51631 14.3333L1.77534 15.1304L1.09716 14.6378L0.41911 15.1304L0.678141 14.3333L0 13.8406H0.838125L1.09716 13.0435Z" fill="var(--fill-0, #FFDA44)"/>
<path id="Vector_2" d="M7.77239 7.82606L8.03137 8.62322H8.86955L8.1915 9.11592L8.45058 9.91303L7.77239 9.42042L7.09434 9.91303L7.35338 9.11592L6.67519 8.62322H7.51336L7.77239 7.82606Z" fill="var(--fill-0, #FFDA44)"/>
<path id="Vector_3" d="M9.44498 0L9.70402 0.797156H10.5422L9.86414 1.28981L10.1231 2.08692L9.44498 1.59431L8.76694 2.08692L9.02597 1.28981L8.34783 0.797156H9.186L9.44498 0Z" fill="var(--fill-0, #FFDA44)"/>
<path id="Vector_4" d="M9.85936 5.73909L10.1183 6.5363H10.9565L10.2785 7.02895L10.5375 7.82606L9.85936 7.33345L9.18131 7.82606L9.44034 7.02895L8.76216 6.5363H9.60033L9.85936 5.73909Z" fill="var(--fill-0, #FFDA44)"/>
<path id="Vector_5" d="M2.29903 11.1686L3.04598 11.5492L3.63862 10.9565L3.50756 11.7843L4.25433 12.1648L3.42642 12.296L3.29531 13.1238L2.91487 12.377L2.08697 12.5082L2.67961 11.9155L2.29903 11.1686Z" fill="var(--fill-0, #FFDA44)"/>
<path id="Vector_6" d="M2.29903 8.03817L3.04598 8.4187L3.63862 7.82606L3.50756 8.65388L4.25433 9.03436L3.42642 9.16552L3.29531 9.99338L2.91487 9.24656L2.08697 9.37772L2.67961 8.78508L2.29903 8.03817Z" fill="var(--fill-0, #FFDA44)"/>
<path id="Vector_7" d="M4.90772 10.0448L5.65467 10.4253L6.24731 9.83269L6.11625 10.6605L6.86302 11.041L6.03511 11.1721L5.904 12L5.52356 11.2531L4.69566 11.3843L5.2883 10.7917L4.90772 10.0448Z" fill="var(--fill-0, #FFDA44)"/>
<path id="Vector_8" d="M4.90772 3.34252L5.65467 3.72305L6.24731 3.13041L6.11625 3.95822L6.86302 4.3387L6.03511 4.46986L5.904 5.29772L5.52356 4.55091L4.69566 4.68206L5.2883 4.08942L4.90772 3.34252Z" fill="var(--fill-0, #FFDA44)"/>
<path id="Vector_9" d="M7.43602 3.26217L8.18297 3.6427L8.77561 3.05006L8.6445 3.87787L9.39131 4.25836L8.56341 4.38952L8.4323 5.21738L8.05186 4.47056L7.22395 4.60172L7.81659 4.00908L7.43602 3.26217Z" fill="var(--fill-0, #FFDA44)"/>
</g>
</svg>
