<svg preserveAspectRatio="none" width="100%" height="100%" overflow="visible" style="display: block;" viewBox="0 0 4 7" fill="none" xmlns="http://www.w3.org/2000/svg">
<path id="Vector" d="M3.17194 3.3345L1.70498 2.69883C1.70498 2.69883 2.0482 1.55962 2.06648 1.48167C2.07984 1.42472 2.08697 1.36533 2.08697 1.3043C2.08697 1.08816 1.99936 0.8925 1.8577 0.750938L2.22661 0.382031C1.99059 0.146015 1.66448 0 1.3043 0C0.944109 0 0.618 0.145968 0.381984 0.382031L0.75089 0.750938C0.609234 0.892547 0.521672 1.0882 0.521672 1.3043C0.521672 1.38333 0.533625 1.4595 0.555422 1.53145L0 2.08683H1.0095C1.0095 2.08683 0.592125 2.71373 0.364265 3.22856C0.136406 3.74334 0.367407 4.3718 0.894 4.60589L1.1985 4.74122L1.70498 5.21728V5.739L1.18327 6.26072H2.22675V5.21723L2.70286 4.74113H3.68761C3.69234 4.73133 3.69731 4.72177 3.70181 4.71173C3.93577 4.18519 3.69858 3.5685 3.17194 3.3345Z" fill="var(--fill-0, black)"/>
</svg>
