<svg preserveAspectRatio="none" width="100%" height="100%" overflow="visible" style="display: block;" viewBox="0 0 8 8" fill="none" xmlns="http://www.w3.org/2000/svg">
<path id="Vector" d="M6.37635 3.23789L7.63485 1.57312L6.38619 0.62925L5.55379 0L2.03905 4.64967C1.42461 4.45458 0.72763 4.65413 0.316723 5.19769C-0.20462 5.88731 -0.0681214 6.86888 0.621457 7.39013C1.31108 7.91138 2.29264 7.77492 2.81389 7.08534C3.2248 6.54173 3.22668 5.81686 2.87141 5.27883L5.12661 2.29542L6.37635 3.23789ZM1.98149 6.45619C1.80777 6.68611 1.48058 6.73153 1.25071 6.55781C1.02083 6.384 0.975364 6.05677 1.14913 5.82689C1.32285 5.59711 1.65008 5.55155 1.88 5.72536C2.10983 5.89912 2.15525 6.22636 1.98149 6.45619V6.45619Z" fill="var(--fill-0, #FFDA44)"/>
</svg>
