<svg preserveAspectRatio="none" width="100%" height="100%" overflow="visible" style="display: block;" viewBox="0 0 11 9" fill="none" xmlns="http://www.w3.org/2000/svg">
<g id="Group">
<path id="Vector" d="M8.1653 1.97953L9.14991 3.33633L10.7445 2.8193L9.7583 4.17492L10.7428 5.53167L9.14878 5.01267L8.16267 6.3683L8.1637 4.692L6.56967 4.173L8.16427 3.65597L8.1653 1.97953Z" fill="var(--fill-0, #F0F0F0)"/>
<path id="Vector_2" d="M5.47823 7.56525C3.6053 7.56525 2.08692 6.04688 2.08692 4.17394C2.08692 2.301 3.6053 0.782625 5.47823 0.782625C6.0622 0.782625 6.61167 0.930329 7.09139 1.19025C6.33881 0.454219 5.30958 0 4.17389 0C1.86867 0 0 1.86872 0 4.17389C0 6.47906 1.86872 8.34778 4.17389 8.34778C5.30967 8.34778 6.33886 7.89352 7.09139 7.15753C6.61167 7.41755 6.0622 7.56525 5.47823 7.56525V7.56525Z" fill="var(--fill-0, #F0F0F0)"/>
</g>
</svg>
