<svg preserveAspectRatio="none" width="100%" height="100%" overflow="visible" style="display: block;" viewBox="0 0 2 9" fill="none" xmlns="http://www.w3.org/2000/svg">
<g id="Group">
<path id="Vector" d="M0 3.50761H1.04348V4.55109H0V3.50761Z" fill="var(--fill-0, #D80027)"/>
<path id="Vector_2" d="M0.521719 1.04344C0.809856 1.04344 1.04344 0.809856 1.04344 0.521719C1.04344 0.233582 0.809856 0 0.521719 0C0.233581 0 1.19209e-07 0.233582 1.19209e-07 0.521719C1.19209e-07 0.809856 0.233581 1.04344 0.521719 1.04344Z" fill="var(--fill-0, #D80027)"/>
<path id="Vector_3" d="M0.521719 8.0587C0.809856 8.0587 1.04344 7.82512 1.04344 7.53698C1.04344 7.24885 0.809856 7.01527 0.521719 7.01527C0.233581 7.01527 0 7.24885 0 7.53698C0 7.82512 0.233581 8.0587 0.521719 8.0587Z" fill="var(--fill-0, #D80027)"/>
</g>
</svg>
