<svg preserveAspectRatio="none" width="100%" height="100%" overflow="visible" style="display: block;" viewBox="0 0 8 8" fill="none" xmlns="http://www.w3.org/2000/svg">
<g id="Group">
<path id="Vector" d="M6.6157 4.69566L6.81 5.29355H7.43859L6.93 5.66297L7.1243 6.26086L6.6157 5.89134L6.10711 6.26086L6.30141 5.66297L5.79281 5.29355H6.42141L6.6157 4.69566Z" fill="var(--fill-0, #F0F0F0)"/>
<path id="Vector_2" d="M3.45839 0L3.78216 0.996516H4.82991L3.98222 1.61222L4.30608 2.60869L3.45839 1.9928L2.61075 2.60869L2.93456 1.61222L2.08692 0.996516H3.13458L3.45839 0Z" fill="var(--fill-0, #F0F0F0)"/>
<path id="Vector_3" d="M6.58884 1.04344L6.91261 2.04H7.96031L7.11267 2.6557L7.43644 3.65217L6.58884 3.03628L5.7412 3.65217L6.06502 2.6557L5.21738 2.04H6.26503L6.58884 1.04344Z" fill="var(--fill-0, #F0F0F0)"/>
<path id="Vector_4" d="M4.11441 5.21738L4.43822 6.21389H5.48588L4.63823 6.82959L4.96205 7.82606L4.11441 7.21022L3.26677 7.82606L3.59058 6.82959L2.74294 6.21389H3.79064L4.11441 5.21738Z" fill="var(--fill-0, #F0F0F0)"/>
<path id="Vector_5" d="M1.37142 2.60869L1.69523 3.6052H2.74294L1.89525 4.22091L2.21906 5.21738L1.37142 4.60153L0.523828 5.21738L0.847594 4.22091L1.19209e-07 3.6052H1.04766L1.37142 2.60869Z" fill="var(--fill-0, #F0F0F0)"/>
</g>
</svg>
