<svg preserveAspectRatio="none" width="100%" height="100%" overflow="visible" style="display: block;" viewBox="0 0 15 15" fill="none" xmlns="http://www.w3.org/2000/svg">
<path id="Vector" d="M5.47656 5.41672C5.6333 4.97117 5.94266 4.59546 6.34987 4.35614C6.75707 4.11683 7.23583 4.02935 7.70135 4.1092C8.16687 4.18904 8.58911 4.43107 8.89328 4.79241C9.19745 5.15374 9.36393 5.61107 9.36323 6.08339C9.36323 7.41672 7.36323 8.08339 7.36323 8.08339M7.41667 10.75H7.42333M14.0833 7.41667C14.0833 11.0986 11.0986 14.0833 7.41667 14.0833C3.73477 14.0833 0.75 11.0986 0.75 7.41667C0.75 3.73477 3.73477 0.75 7.41667 0.75C11.0986 0.75 14.0833 3.73477 14.0833 7.41667Z" stroke="var(--stroke-0, #FAFAFA)" stroke-width="1.5" stroke-linecap="round" stroke-linejoin="round"/>
</svg>
