<svg preserveAspectRatio="none" width="100%" height="100%" overflow="visible" style="display: block;" viewBox="0 0 15 15" fill="none" xmlns="http://www.w3.org/2000/svg">
<path id="Vector" d="M6.19837 13.3317C6.30995 13.5347 6.474 13.704 6.67336 13.8218C6.87272 13.9397 7.10009 14.0019 7.3317 14.0019C7.56331 14.0019 7.79068 13.9397 7.99004 13.8218C8.1894 13.704 8.35344 13.5347 8.46503 13.3317M1.99833 0.665055C1.19833 1.79839 0.665 3.13172 0.665 4.66505M13.9983 4.66505C13.9983 3.13172 13.465 1.79839 12.665 0.665055M3.33167 4.66505C3.33167 3.60419 3.75309 2.58677 4.50324 1.83663C5.25339 1.08648 6.2708 0.665055 7.33167 0.665055C8.39253 0.665055 9.40995 1.08648 10.1601 1.83663C10.9102 2.58677 11.3317 3.60419 11.3317 4.66505C11.3317 9.33172 13.3317 10.6651 13.3317 10.6651H1.33167C1.33167 10.6651 3.33167 9.33172 3.33167 4.66505Z" stroke="var(--stroke-0, #0A0A0A)" stroke-width="1.33" stroke-linecap="round" stroke-linejoin="round"/>
</svg>
