<svg preserveAspectRatio="none" width="100%" height="100%" overflow="visible" style="display: block;" viewBox="0 0 15 15" fill="none" xmlns="http://www.w3.org/2000/svg">
<path id="Vector" d="M12.75 4.41667V3.41667C12.75 3.06304 12.6095 2.72391 12.3595 2.47386C12.1094 2.22381 11.7703 2.08333 11.4167 2.08333H2.08333C1.72971 2.08333 1.39057 2.22381 1.14052 2.47386C0.890476 2.72391 0.75 3.06304 0.75 3.41667V12.75C0.75 13.1036 0.890476 13.4428 1.14052 13.6928C1.39057 13.9429 1.72971 14.0833 2.08333 14.0833H4.41667M9.41667 0.75V3.41667M4.08333 0.75V3.41667M0.75 6.08333H4.08333M10.4167 11.0833L9.41667 10.2833V8.75M13.4167 10.0833C13.4167 12.2925 11.6258 14.0833 9.41667 14.0833C7.20753 14.0833 5.41667 12.2925 5.41667 10.0833C5.41667 7.87419 7.20753 6.08333 9.41667 6.08333C11.6258 6.08333 13.4167 7.87419 13.4167 10.0833Z" stroke="var(--stroke-0, #FAFAFA)" stroke-width="1.5" stroke-linecap="round" stroke-linejoin="round"/>
</svg>
