<svg preserveAspectRatio="none" width="100%" height="100%" overflow="visible" style="display: block;" viewBox="0 0 15 14" fill="none" xmlns="http://www.w3.org/2000/svg">
<path id="Vector" d="M10.0833 12.75V11.4167C10.0833 10.7094 9.80238 10.0311 9.30229 9.53105C8.80219 9.03095 8.12391 8.75 7.41667 8.75H3.41667C2.70942 8.75 2.03115 9.03095 1.53105 9.53105C1.03095 10.0311 0.75 10.7094 0.75 11.4167V12.75M14.0833 12.7499V11.4166C14.0829 10.8257 13.8862 10.2518 13.5242 9.7848C13.1623 9.31783 12.6554 8.9843 12.0833 8.83659M10.0833 0.836589C10.6569 0.983456 11.1654 1.31706 11.5284 1.7848C11.8915 2.25254 12.0886 2.82781 12.0886 3.41992C12.0886 4.01204 11.8915 4.58731 11.5284 5.05505C11.1654 5.52279 10.6569 5.85639 10.0833 6.00326M8.08333 3.41667C8.08333 4.88943 6.88943 6.08333 5.41667 6.08333C3.94391 6.08333 2.75 4.88943 2.75 3.41667C2.75 1.94391 3.94391 0.75 5.41667 0.75C6.88943 0.75 8.08333 1.94391 8.08333 3.41667Z" stroke="var(--stroke-0, #FAFAFA)" stroke-width="1.5" stroke-linecap="round" stroke-linejoin="round"/>
</svg>
