<svg preserveAspectRatio="none" width="100%" height="100%" overflow="visible" style="display: block;" viewBox="0 0 10 12" fill="none" xmlns="http://www.w3.org/2000/svg">
<path id="Vector" d="M0.665 5.99833H6.665C7.37224 5.99833 8.05052 6.27928 8.55062 6.77938C9.05071 7.27948 9.33167 7.95776 9.33167 8.665C9.33167 9.37224 9.05071 10.0505 8.55062 10.5506C8.05052 11.0507 7.37224 11.3317 6.665 11.3317H1.33167C1.15486 11.3317 0.985287 11.2614 0.860262 11.1364C0.735238 11.0114 0.665 10.8418 0.665 10.665V1.33167C0.665 1.15486 0.735238 0.985287 0.860262 0.860262C0.985287 0.735238 1.15486 0.665 1.33167 0.665H5.99833C6.70558 0.665 7.38385 0.945951 7.88395 1.44605C8.38405 1.94615 8.665 2.62442 8.665 3.33167C8.665 4.03891 8.38405 4.71719 7.88395 5.21728C7.38385 5.71738 6.70558 5.99833 5.99833 5.99833" stroke="var(--stroke-0, #0A0A0A)" stroke-width="1.33" stroke-linecap="round" stroke-linejoin="round"/>
</svg>
