<svg preserveAspectRatio="none" width="100%" height="100%" overflow="visible" style="display: block;" viewBox="0 0 14 15" fill="none" xmlns="http://www.w3.org/2000/svg">
<path id="Vector" d="M3.33167 5.99833V3.99833C3.33167 3.11428 3.68286 2.26643 4.30798 1.64131C4.9331 1.01619 5.78095 0.665 6.665 0.665C7.54906 0.665 8.3969 1.01619 9.02202 1.64131C9.64714 2.26643 9.99833 3.11428 9.99833 3.99833V5.99833M7.33167 9.99833C7.33167 10.3665 7.03319 10.665 6.665 10.665C6.29681 10.665 5.99833 10.3665 5.99833 9.99833C5.99833 9.63014 6.29681 9.33167 6.665 9.33167C7.03319 9.33167 7.33167 9.63014 7.33167 9.99833ZM1.99833 5.99833H11.3317C12.068 5.99833 12.665 6.59529 12.665 7.33167V12.665C12.665 13.4014 12.068 13.9983 11.3317 13.9983H1.99833C1.26195 13.9983 0.665 13.4014 0.665 12.665V7.33167C0.665 6.59529 1.26195 5.99833 1.99833 5.99833Z" stroke="var(--stroke-0, black)" stroke-opacity="0.5" stroke-width="1.33" stroke-linecap="round" stroke-linejoin="round"/>
</svg>
