<svg preserveAspectRatio="none" width="100%" height="100%" overflow="visible" style="display: block;" viewBox="0 0 22 22" fill="none" xmlns="http://www.w3.org/2000/svg">
<path id="Vector" d="M9.30005 20.0001C9.46743 20.3045 9.7135 20.5584 10.0125 20.7353C10.3116 20.9121 10.6526 21.0054 11 21.0054C11.3475 21.0054 11.6885 20.9121 11.9876 20.7353C12.2866 20.5584 12.5327 20.3045 12.7 20.0001M3 1.00008C1.8 2.70008 1 4.70008 1 7.00008M21 7.00008C21 4.70008 20.2 2.70008 19 1.00008M5 7.00008C5 5.40878 5.63214 3.88266 6.75736 2.75744C7.88258 1.63222 9.4087 1.00008 11 1.00008C12.5913 1.00008 14.1174 1.63222 15.2426 2.75744C16.3679 3.88266 17 5.40878 17 7.00008C17 14.0001 20 16.0001 20 16.0001H2C2 16.0001 5 14.0001 5 7.00008Z" stroke="var(--stroke-0, #0A0A0A)" stroke-width="2" stroke-linecap="round" stroke-linejoin="round"/>
</svg>
