<svg preserveAspectRatio="none" width="100%" height="100%" overflow="visible" style="display: block;" viewBox="0 0 15 18" fill="none" xmlns="http://www.w3.org/2000/svg">
<path id="Vector" d="M1 9H10C11.0609 9 12.0783 9.42143 12.8284 10.1716C13.5786 10.9217 14 11.9391 14 13C14 14.0609 13.5786 15.0783 12.8284 15.8284C12.0783 16.5786 11.0609 17 10 17H2C1.73478 17 1.48043 16.8946 1.29289 16.7071C1.10536 16.5196 1 16.2652 1 16V2C1 1.73478 1.10536 1.48043 1.29289 1.29289C1.48043 1.10536 1.73478 1 2 1H9C10.0609 1 11.0783 1.42143 11.8284 2.17157C12.5786 2.92172 13 3.93913 13 5C13 6.06087 12.5786 7.07828 11.8284 7.82843C11.0783 8.57857 10.0609 9 9 9" stroke="var(--stroke-0, #0A0A0A)" stroke-width="2" stroke-linecap="round" stroke-linejoin="round"/>
</svg>
