<svg preserveAspectRatio="none" width="100%" height="100%" overflow="visible" style="display: block;" viewBox="0 0 107 30" fill="none" xmlns="http://www.w3.org/2000/svg">
<g id="Group 18">
<path id="i" d="M15.8204 29.1631V8.07617H20.7564V29.1631H15.8204Z" fill="var(--fill-0, black)"/>
<path id="m" d="M52.071 7.83854C53.7559 7.83854 55.2433 8.16761 56.5333 8.82575C57.8495 9.4839 58.8762 10.4974 59.6134 11.8664C60.3505 13.209 60.719 14.9465 60.719 17.0789V29.1624H55.783V17.7107C55.783 15.8416 55.3749 14.4463 54.5588 13.5249C53.7427 12.6035 52.5712 12.1428 51.0443 12.1428C49.965 12.1428 49.0041 12.3797 48.1617 12.8536C47.3456 13.3274 46.7006 14.0251 46.2267 14.9465C45.7792 15.8679 45.5554 17.0394 45.5554 18.461V29.1624H40.6194V17.7107C40.6194 15.8416 40.2113 14.4463 39.3952 13.5249C38.5791 12.6035 37.4076 12.1428 35.8807 12.1428C34.8014 12.1428 33.8405 12.3797 32.9981 12.8536C32.182 13.3274 31.537 14.0251 31.0631 14.9465C30.6156 15.8679 30.3918 17.0394 30.3918 18.461V29.1624H25.4558V8.07547H30.1549V13.6828L29.3256 12.0243C30.0364 10.6554 31.0631 9.61553 32.4058 8.90473C33.7747 8.19394 35.3279 7.83854 37.0654 7.83854C39.0398 7.83854 40.751 8.32557 42.1989 9.29962C43.6732 10.2737 44.6472 11.7479 45.1211 13.7223L43.1861 13.051C43.8706 11.4715 45.0026 10.2079 46.5821 9.26013C48.1617 8.3124 49.9913 7.83854 52.071 7.83854Z" fill="var(--fill-0, black)"/>
<path id="e" d="M75.7637 29.4388C73.4208 29.4388 71.3674 28.9781 69.6035 28.0567C67.866 27.109 66.5103 25.819 65.5362 24.1868C64.5885 22.5546 64.1146 20.6986 64.1146 18.6189C64.1146 16.5129 64.5753 14.6569 65.4967 13.051C66.4444 11.4188 67.7344 10.142 69.3666 9.22064C71.0251 8.29924 72.9074 7.83854 75.0135 7.83854C77.0669 7.83854 78.8965 8.28608 80.5024 9.18115C82.1082 10.0762 83.3719 11.3399 84.2933 12.9721C85.2147 14.6042 85.6754 16.526 85.6754 18.7374C85.6754 18.948 85.6622 19.1849 85.6359 19.4482C85.6359 19.7114 85.6227 19.9615 85.5964 20.1985H68.024V16.9209H82.9901L81.0552 17.9476C81.0815 16.7366 80.8314 15.6704 80.3049 14.749C79.7784 13.8276 79.0545 13.1037 78.1331 12.5772C77.238 12.0507 76.1981 11.7874 75.0135 11.7874C73.8025 11.7874 72.7363 12.0507 71.8149 12.5772C70.9198 13.1037 70.209 13.8408 69.6825 14.7885C69.1823 15.7099 68.9322 16.8024 68.9322 18.0661V18.8558C68.9322 20.1195 69.2218 21.2383 69.801 22.2124C70.3801 23.1864 71.1962 23.9367 72.2493 24.4632C73.3023 24.9897 74.5133 25.253 75.8822 25.253C77.0669 25.253 78.1331 25.0687 79.0808 24.7001C80.0285 24.3316 80.8709 23.7524 81.608 22.9627L84.2538 26.0033C83.3061 27.1089 82.1082 27.9645 80.6603 28.57C79.2387 29.1492 77.6065 29.4388 75.7637 29.4388Z" fill="var(--fill-0, black)"/>
<path id="8" d="M97.3355 30.0006C95.5494 30.0006 94.0079 29.7455 92.7108 29.2351C91.435 28.7248 90.4463 27.9913 89.7446 27.0344C89.0642 26.0563 88.724 24.9081 88.724 23.5898C88.724 22.314 89.0536 21.2296 89.7127 20.3366C90.3931 19.4222 91.3712 18.7206 92.647 18.2315C93.9441 17.7425 95.5069 17.4979 97.3355 17.4979C99.1429 17.4979 100.695 17.7425 101.992 18.2315C103.289 18.7206 104.278 19.4222 104.958 20.3366C105.66 21.2296 106.011 22.314 106.011 23.5898C106.011 24.9081 105.66 26.0563 104.958 27.0344C104.257 27.9913 103.257 28.7248 101.96 29.2351C100.663 29.7455 99.1216 30.0006 97.3355 30.0006ZM97.3355 28.055C99.313 28.055 100.855 27.651 101.96 26.8431C103.087 26.0351 103.651 24.94 103.651 23.5579C103.651 22.1758 103.087 21.0914 101.96 20.3047C100.855 19.4967 99.313 19.0927 97.3355 19.0927C95.3581 19.0927 93.8165 19.4967 92.7108 20.3047C91.6051 21.0914 91.0523 22.1758 91.0523 23.5579C91.0523 24.94 91.6051 26.0351 92.7108 26.8431C93.8165 27.651 95.3581 28.055 97.3355 28.055ZM97.3355 18.8056C95.677 18.8056 94.263 18.5824 93.0936 18.1358C91.9454 17.6893 91.0629 17.0514 90.4463 16.2222C89.8297 15.3716 89.5214 14.3616 89.5214 13.1922C89.5214 11.9589 89.8403 10.9064 90.4782 10.0346C91.1374 9.14155 92.0517 8.46113 93.2211 7.99335C94.3906 7.52556 95.7621 7.29167 97.3355 7.29167C98.909 7.29167 100.28 7.52556 101.45 7.99335C102.641 8.46113 103.566 9.14155 104.225 10.0346C104.884 10.9064 105.214 11.9589 105.214 13.1922C105.214 14.3616 104.905 15.3716 104.289 16.2222C103.672 17.0514 102.768 17.6893 101.578 18.1358C100.408 18.5824 98.9941 18.8056 97.3355 18.8056ZM97.3355 17.2747C99.0791 17.2747 100.44 16.9132 101.418 16.1903C102.396 15.4673 102.885 14.4998 102.885 13.2878C102.885 12.0121 102.375 11.0233 101.354 10.3217C100.355 9.59871 99.0153 9.23724 97.3355 9.23724C95.6558 9.23724 94.3162 9.59871 93.3168 10.3217C92.3175 11.0233 91.8178 12.0014 91.8178 13.256C91.8178 14.4892 92.2962 15.4673 93.253 16.1903C94.2311 16.9132 95.592 17.2747 97.3355 17.2747Z" fill="var(--fill-0, black)"/>
<rect id="Rectangle 693" x="15.7943" width="14.2766" height="4.86013" rx="2.43006" fill="url(#paint0_linear_25905_44325)"/>
<path id="Union" d="M5.16393 8.05116H11.5609V12.3948H5.16393V21.8722C5.16393 23.382 6.3879 24.606 7.89775 24.606H8.20151C9.23057 24.606 10.1626 24.3383 10.7793 24.1055L12.4541 28.0992C12.4541 28.0992 10.7834 29.1623 7.59399 29.1623H6.53084C2.92398 29.1623 4.071e-05 26.2384 4.071e-05 22.6315V2.43164H5.16393V8.05116Z" fill="var(--fill-0, black)"/>
</g>
<defs>
<linearGradient id="paint0_linear_25905_44325" x1="15.7943" y1="2.43006" x2="30.0709" y2="2.43006" gradientUnits="userSpaceOnUse">
<stop stop-color="#783EFF"/>
<stop offset="0.899038" stop-color="#783EFF" stop-opacity="0"/>
</linearGradient>
</defs>
</svg>
