<svg preserveAspectRatio="none" width="100%" height="100%" overflow="visible" style="display: block;" viewBox="0 0 22 19" fill="none" xmlns="http://www.w3.org/2000/svg">
<path id="Vector" d="M21.0001 10V3C21.0001 2.46957 20.7894 1.96086 20.4143 1.58579C20.0393 1.21071 19.5306 1 19.0001 1H3.00013C2.46969 1 1.96099 1.21071 1.58591 1.58579C1.21084 1.96086 1.00013 2.46957 1.00013 3V15C1.00013 16.1 1.90013 17 3.00013 17H11.0001M21.0001 4L12.0301 9.7C11.7214 9.89343 11.3644 9.99601 11.0001 9.99601C10.6358 9.99601 10.2789 9.89343 9.97013 9.7L1.00013 4M15.0001 16L17.0001 18L21.0001 14" stroke="var(--stroke-0, #0A0A0A)" stroke-width="2" stroke-linecap="round" stroke-linejoin="round"/>
</svg>
