<svg preserveAspectRatio="none" width="100%" height="100%" overflow="visible" style="display: block;" viewBox="0 0 16 16" fill="none" xmlns="http://www.w3.org/2000/svg">
<g id="Group">
<path id="Vector" d="M15.9323 6.95653H9.04353H9.0435V0.0677188C8.70191 0.02325 8.35366 0 8 0C7.64628 0 7.29809 0.02325 6.95653 0.0677188V6.95647V6.9565H0.0677188C0.02325 7.29809 0 7.64634 0 8C0 8.35372 0.02325 8.70191 0.0677188 9.04347H6.95647H6.9565V15.9323C7.29809 15.9768 7.64628 16 8 16C8.35366 16 8.70191 15.9768 9.04347 15.9323V9.04353V9.0435H15.9323C15.9768 8.70191 16 8.35372 16 8C16 7.64634 15.9768 7.29809 15.9323 6.95653V6.95653Z" fill="var(--fill-0, #D80027)"/>
<path id="Vector_2" d="M10.087 10.087L13.6568 13.6569C13.821 13.4927 13.9777 13.3212 14.1271 13.1433L11.0708 10.087H10.087V10.087Z" fill="var(--fill-0, #D80027)"/>
<path id="Vector_3" d="M5.91303 10.087H5.91297L2.34313 13.6568C2.50725 13.821 2.67884 13.9777 2.85672 14.1271L5.91303 11.0707V10.087Z" fill="var(--fill-0, #D80027)"/>
<path id="Vector_4" d="M5.91303 5.91309V5.91303L2.34316 2.34313C2.17897 2.50725 2.02234 2.67884 1.87291 2.85672L4.92925 5.91306H5.91303V5.91309Z" fill="var(--fill-0, #D80027)"/>
<path id="Vector_5" d="M10.087 5.91309L13.6569 2.34316C13.4927 2.17897 13.3212 2.02234 13.1433 1.87294L10.087 4.92928V5.91309Z" fill="var(--fill-0, #D80027)"/>
</g>
</svg>
