<svg preserveAspectRatio="none" width="100%" height="100%" overflow="visible" style="display: block;" viewBox="0 0 16 16" fill="none" xmlns="http://www.w3.org/2000/svg">
<g id="Group">
<path id="Vector" d="M1.37816 2.85384C0.74975 3.67144 0.275906 4.61378 0 5.6375H4.16181L1.37816 2.85384Z" fill="var(--fill-0, #0052B4)"/>
<path id="Vector_2" d="M15.4488 5.6375C15.1729 4.61381 14.699 3.67147 14.0707 2.85387L11.2871 5.6375H15.4488Z" fill="var(--fill-0, #0052B4)"/>
<path id="Vector_3" d="M0 9.81141C0.275937 10.8351 0.749781 11.7774 1.37816 12.595L4.16172 9.81141H0Z" fill="var(--fill-0, #0052B4)"/>
<path id="Vector_4" d="M12.595 1.37819C11.7774 0.749781 10.8351 0.275937 9.81134 0V4.16178L12.595 1.37819Z" fill="var(--fill-0, #0052B4)"/>
<path id="Vector_5" d="M2.85384 14.0706C3.67144 14.699 4.61378 15.1729 5.63747 15.4488V11.2871L2.85384 14.0706Z" fill="var(--fill-0, #0052B4)"/>
<path id="Vector_6" d="M5.63744 0C4.61375 0.275937 3.67141 0.749781 2.85384 1.37816L5.63744 4.16175V0Z" fill="var(--fill-0, #0052B4)"/>
<path id="Vector_7" d="M9.81137 15.4488C10.8351 15.1729 11.7774 14.699 12.595 14.0707L9.81137 11.2871V15.4488Z" fill="var(--fill-0, #0052B4)"/>
<path id="Vector_8" d="M11.2871 9.81141L14.0707 12.595C14.699 11.7775 15.1729 10.8351 15.4488 9.81141H11.2871Z" fill="var(--fill-0, #0052B4)"/>
</g>
</svg>
