<svg preserveAspectRatio="none" width="100%" height="100%" overflow="visible" style="display: block;" viewBox="0 0 15 15" fill="none" xmlns="http://www.w3.org/2000/svg">
<path id="Vector" d="M9.83087 1.20248C8.40499 0.648533 6.83199 0.60179 5.37574 1.07009C3.91949 1.53839 2.66859 2.49325 1.83287 3.77448C0.997154 5.05571 0.62747 6.58537 0.785833 8.10684C0.944197 9.62832 1.62097 11.0491 2.70263 12.1307C3.78429 13.2124 5.20503 13.8891 6.7265 14.0475C8.24798 14.2059 9.77764 13.8362 11.0589 13.0005C12.3401 12.1648 13.295 10.9139 13.7633 9.4576C14.2316 8.00135 14.1848 6.42835 13.6309 5.00248M8.36426 6.46917L12.0976 2.73584M8.76432 7.40251C8.76432 8.13889 8.16737 8.73584 7.43099 8.73584C6.69461 8.73584 6.09766 8.13889 6.09766 7.40251C6.09766 6.66613 6.69461 6.06917 7.43099 6.06917C8.16737 6.06917 8.76432 6.66613 8.76432 7.40251Z" stroke="var(--stroke-0, #FAFAFA)" stroke-width="1.5" stroke-linecap="round" stroke-linejoin="round"/>
</svg>
